%TF.GenerationSoftware,KiCad,Pcbnew,6.0.2+dfsg-1*%
%TF.CreationDate,2024-02-19T13:24:51+02:00*%
%TF.ProjectId,rpi_pico_si5351,7270695f-7069-4636-9f5f-736935333531,rev?*%
%TF.SameCoordinates,Original*%
%TF.FileFunction,Copper,L3,Inr*%
%TF.FilePolarity,Positive*%
%FSLAX46Y46*%
G04 Gerber Fmt 4.6, Leading zero omitted, Abs format (unit mm)*
G04 Created by KiCad (PCBNEW 6.0.2+dfsg-1) date 2024-02-19 13:24:51*
%MOMM*%
%LPD*%
G01*
G04 APERTURE LIST*
%TA.AperFunction,ComponentPad*%
%ADD10C,3.600000*%
%TD*%
%TA.AperFunction,ComponentPad*%
%ADD11C,2.000000*%
%TD*%
%TA.AperFunction,ViaPad*%
%ADD12C,0.800000*%
%TD*%
G04 APERTURE END LIST*
D10*
%TO.N,N/C*%
%TO.C,H3*%
X126000000Y-29000000D03*
%TD*%
%TO.N,N/C*%
%TO.C,H4*%
X34000000Y-29000000D03*
%TD*%
D11*
%TO.N,GPIO13*%
%TO.C,SW2*%
X91500000Y-30500000D03*
%TO.N,GND*%
X96500000Y-30500000D03*
%TO.N,GPIO15*%
X91500000Y-45000000D03*
%TO.N,GPIO14*%
X96500000Y-45000000D03*
%TO.N,GND*%
X94000000Y-45000000D03*
%TD*%
D10*
%TO.N,N/C*%
%TO.C,H1*%
X126000000Y-71000000D03*
%TD*%
%TO.N,N/C*%
%TO.C,H2*%
X34000000Y-71000000D03*
%TD*%
D12*
%TO.N,GPIO18*%
X88200000Y-62500000D03*
%TO.N,GND*%
X37000000Y-57400000D03*
X62100000Y-44100000D03*
X124950000Y-64500000D03*
X106000000Y-26000000D03*
X110800000Y-38400000D03*
X109650000Y-69750000D03*
X114000000Y-74000000D03*
X124950000Y-40500000D03*
X90550000Y-58550000D03*
X124950000Y-35500000D03*
X49700000Y-57400000D03*
X124950000Y-52500000D03*
X106000000Y-38000000D03*
X106000000Y-71000000D03*
X37000000Y-37800000D03*
X106000000Y-34000000D03*
X66625000Y-52475000D03*
X116225000Y-50650000D03*
X49700000Y-37800000D03*
X119825000Y-50000000D03*
X120100000Y-44150000D03*
X116050000Y-35750000D03*
X62100000Y-47300000D03*
X114650000Y-71650000D03*
X124950000Y-47500000D03*
X44900000Y-31000000D03*
X93100000Y-66200000D03*
X57700000Y-31000000D03*
X116150000Y-64350000D03*
X116150000Y-55100000D03*
X106000000Y-61000000D03*
X66300000Y-47300000D03*
X116150000Y-59600000D03*
X122400000Y-46900000D03*
X80775000Y-50000000D03*
X106000000Y-74000000D03*
X122000000Y-74000000D03*
X110500000Y-57650000D03*
X114000000Y-26000000D03*
X106000000Y-45000000D03*
X124950000Y-59500000D03*
X122000000Y-26000000D03*
X106000000Y-52000000D03*
X66300000Y-44100000D03*
%TO.N,GPIO0*%
X39899312Y-31499312D03*
X31900000Y-37800000D03*
%TO.N,GPIO1*%
X34500000Y-37800000D03*
X42400000Y-31500000D03*
%TO.N,GPIO25*%
X83000000Y-31500000D03*
X75100000Y-37800000D03*
%TO.N,GPIO12*%
X77900000Y-31500000D03*
X70000000Y-37800000D03*
%TO.N,GPIO11*%
X75400000Y-31500000D03*
X67500000Y-37800000D03*
%TO.N,GPIO10*%
X64900000Y-37800000D03*
X72900000Y-31500000D03*
%TO.N,GPIO29*%
X62400000Y-37800000D03*
X70300000Y-31500000D03*
%TO.N,GPIO9*%
X67800000Y-31500000D03*
X59800000Y-37800000D03*
%TO.N,GPIO8*%
X57300000Y-37800000D03*
X65300000Y-31500000D03*
%TO.N,GPIO7*%
X62700000Y-31500000D03*
X54800000Y-37800000D03*
%TO.N,3V3_OUT*%
X42000000Y-57400000D03*
X50000000Y-30500000D03*
%TO.N,GPIO24*%
X75100000Y-57400000D03*
X83000000Y-30500497D03*
%TO.N,GPIO23*%
X62400000Y-57400000D03*
X70300000Y-30500000D03*
%TO.N,RUN*%
X65300000Y-30500000D03*
X57300000Y-57400000D03*
%TO.N,GPIO26*%
X62700000Y-30500497D03*
X54800000Y-57400000D03*
%TO.N,GPIO27*%
X60200000Y-30500000D03*
X52200000Y-57400000D03*
%TO.N,GPIO28*%
X55100000Y-30500497D03*
X47200000Y-57400000D03*
%TO.N,ADC_VREF*%
X52600000Y-30500000D03*
X44600000Y-57400000D03*
%TO.N,3V3_EN*%
X39500000Y-57400000D03*
X47500000Y-30500000D03*
%TO.N,VDD_SYS*%
X42400000Y-30500000D03*
X34500000Y-57400000D03*
%TO.N,VBUS*%
X31900000Y-57400000D03*
X39900000Y-30499810D03*
%TO.N,GPIO13*%
X80500000Y-31500000D03*
X72510000Y-41110000D03*
X72500000Y-37800000D03*
%TO.N,GPIO15*%
X80100000Y-37800000D03*
X88100000Y-31500000D03*
X80130000Y-41110000D03*
%TO.N,GPIO14*%
X77590000Y-41110000D03*
X85600000Y-31500000D03*
X77600000Y-37800000D03*
%TO.N,GPIO16*%
X80200000Y-57400000D03*
X88100000Y-30500497D03*
%TO.N,GPIO17*%
X77600000Y-57400000D03*
X82000000Y-57400000D03*
X85600000Y-30500497D03*
%TO.N,GPIO18*%
X80500000Y-30500000D03*
X72600000Y-57400000D03*
X72500000Y-62500000D03*
%TO.N,GPIO22*%
X59800000Y-65925000D03*
X59800000Y-57400000D03*
X67800000Y-30500497D03*
X99800000Y-58500000D03*
%TO.N,GPIO21*%
X64900000Y-65100000D03*
X99800000Y-62500000D03*
X72900000Y-30500497D03*
X64900000Y-57400000D03*
%TO.N,GPIO20*%
X67500000Y-57400000D03*
X67425000Y-64300000D03*
X99800000Y-66500000D03*
X75400000Y-30500497D03*
%TO.N,GPIO19*%
X70000000Y-57400000D03*
X77900000Y-30500497D03*
X88200000Y-66500000D03*
X69975000Y-63275000D03*
%TO.N,GPIO6*%
X52200000Y-37800000D03*
X60200000Y-31500000D03*
X52200000Y-49300000D03*
%TO.N,GPIO5*%
X55100000Y-31500000D03*
X47100000Y-51700000D03*
X47200000Y-37800000D03*
%TO.N,GPIO4*%
X44600000Y-37800000D03*
X52600000Y-31500000D03*
%TO.N,GPIO3*%
X42100000Y-43000000D03*
X42100000Y-37800000D03*
X50000000Y-31500000D03*
%TO.N,GPIO2*%
X39500000Y-37800000D03*
X47500000Y-31500000D03*
%TD*%
%TA.AperFunction,Conductor*%
%TO.N,GND*%
G36*
X129688121Y-25274002D02*
G01*
X129734614Y-25327658D01*
X129746000Y-25380000D01*
X129746000Y-74620000D01*
X129725998Y-74688121D01*
X129672342Y-74734614D01*
X129620000Y-74746000D01*
X30380000Y-74746000D01*
X30311879Y-74725998D01*
X30265386Y-74672342D01*
X30254000Y-74620000D01*
X30254000Y-70978435D01*
X31940812Y-70978435D01*
X31956937Y-71258099D01*
X31957762Y-71262306D01*
X31957763Y-71262311D01*
X31970322Y-71326324D01*
X32010868Y-71532986D01*
X32101606Y-71798011D01*
X32227473Y-72048269D01*
X32386139Y-72279130D01*
X32574669Y-72486322D01*
X32789573Y-72666010D01*
X32793199Y-72668285D01*
X32793201Y-72668286D01*
X32848661Y-72703076D01*
X33026876Y-72814869D01*
X33030778Y-72816631D01*
X33030782Y-72816633D01*
X33278273Y-72928380D01*
X33278277Y-72928382D01*
X33282185Y-72930146D01*
X33286305Y-72931366D01*
X33286304Y-72931366D01*
X33546664Y-73008488D01*
X33546668Y-73008489D01*
X33550777Y-73009706D01*
X33555014Y-73010354D01*
X33555017Y-73010355D01*
X33639874Y-73023340D01*
X33827682Y-73052079D01*
X33970295Y-73054319D01*
X34103484Y-73056412D01*
X34103490Y-73056412D01*
X34107775Y-73056479D01*
X34385875Y-73022825D01*
X34656833Y-72951740D01*
X34915638Y-72844540D01*
X34963396Y-72816633D01*
X35153801Y-72705369D01*
X35153802Y-72705369D01*
X35157499Y-72703208D01*
X35377941Y-72530359D01*
X35572886Y-72329192D01*
X35575419Y-72325744D01*
X35575423Y-72325739D01*
X35736187Y-72106884D01*
X35738725Y-72103429D01*
X35766755Y-72051804D01*
X35870341Y-71861023D01*
X35870342Y-71861021D01*
X35872391Y-71857247D01*
X35971409Y-71595203D01*
X36033948Y-71322146D01*
X36058849Y-71043127D01*
X36059301Y-71000000D01*
X36057831Y-70978435D01*
X123940812Y-70978435D01*
X123956937Y-71258099D01*
X123957762Y-71262306D01*
X123957763Y-71262311D01*
X123970322Y-71326324D01*
X124010868Y-71532986D01*
X124101606Y-71798011D01*
X124227473Y-72048269D01*
X124386139Y-72279130D01*
X124574669Y-72486322D01*
X124789573Y-72666010D01*
X124793199Y-72668285D01*
X124793201Y-72668286D01*
X124848661Y-72703076D01*
X125026876Y-72814869D01*
X125030778Y-72816631D01*
X125030782Y-72816633D01*
X125278273Y-72928380D01*
X125278277Y-72928382D01*
X125282185Y-72930146D01*
X125286305Y-72931366D01*
X125286304Y-72931366D01*
X125546664Y-73008488D01*
X125546668Y-73008489D01*
X125550777Y-73009706D01*
X125555014Y-73010354D01*
X125555017Y-73010355D01*
X125639874Y-73023340D01*
X125827682Y-73052079D01*
X125970295Y-73054319D01*
X126103484Y-73056412D01*
X126103490Y-73056412D01*
X126107775Y-73056479D01*
X126385875Y-73022825D01*
X126656833Y-72951740D01*
X126915638Y-72844540D01*
X126963396Y-72816633D01*
X127153801Y-72705369D01*
X127153802Y-72705369D01*
X127157499Y-72703208D01*
X127377941Y-72530359D01*
X127572886Y-72329192D01*
X127575419Y-72325744D01*
X127575423Y-72325739D01*
X127736187Y-72106884D01*
X127738725Y-72103429D01*
X127766755Y-72051804D01*
X127870341Y-71861023D01*
X127870342Y-71861021D01*
X127872391Y-71857247D01*
X127971409Y-71595203D01*
X128033948Y-71322146D01*
X128058849Y-71043127D01*
X128059301Y-71000000D01*
X128040248Y-70720521D01*
X127983442Y-70446213D01*
X127889933Y-70182153D01*
X127761452Y-69933226D01*
X127748530Y-69914839D01*
X127602844Y-69707550D01*
X127602843Y-69707549D01*
X127600377Y-69704040D01*
X127409689Y-69498834D01*
X127395550Y-69487261D01*
X127196232Y-69324123D01*
X127192914Y-69321407D01*
X126954066Y-69175040D01*
X126697563Y-69062443D01*
X126678210Y-69056930D01*
X126647881Y-69048291D01*
X126428153Y-68985700D01*
X126423911Y-68985096D01*
X126423905Y-68985095D01*
X126218548Y-68955868D01*
X126150819Y-68946229D01*
X126003708Y-68945459D01*
X125874981Y-68944785D01*
X125874975Y-68944785D01*
X125870695Y-68944763D01*
X125866451Y-68945322D01*
X125866447Y-68945322D01*
X125744326Y-68961400D01*
X125592964Y-68981327D01*
X125588824Y-68982460D01*
X125588822Y-68982460D01*
X125327316Y-69054000D01*
X125322765Y-69055245D01*
X125065097Y-69165149D01*
X124919747Y-69252140D01*
X124828411Y-69306803D01*
X124828407Y-69306806D01*
X124824729Y-69309007D01*
X124821386Y-69311685D01*
X124821382Y-69311688D01*
X124812046Y-69319168D01*
X124606109Y-69484155D01*
X124413281Y-69687352D01*
X124249815Y-69914839D01*
X124118735Y-70162407D01*
X124022466Y-70425473D01*
X123962790Y-70699171D01*
X123940812Y-70978435D01*
X36057831Y-70978435D01*
X36040248Y-70720521D01*
X35983442Y-70446213D01*
X35889933Y-70182153D01*
X35761452Y-69933226D01*
X35748530Y-69914839D01*
X35602844Y-69707550D01*
X35602843Y-69707549D01*
X35600377Y-69704040D01*
X35409689Y-69498834D01*
X35395550Y-69487261D01*
X35196232Y-69324123D01*
X35192914Y-69321407D01*
X34954066Y-69175040D01*
X34697563Y-69062443D01*
X34678210Y-69056930D01*
X34647881Y-69048291D01*
X34428153Y-68985700D01*
X34423911Y-68985096D01*
X34423905Y-68985095D01*
X34218548Y-68955868D01*
X34150819Y-68946229D01*
X34003708Y-68945459D01*
X33874981Y-68944785D01*
X33874975Y-68944785D01*
X33870695Y-68944763D01*
X33866451Y-68945322D01*
X33866447Y-68945322D01*
X33744326Y-68961400D01*
X33592964Y-68981327D01*
X33588824Y-68982460D01*
X33588822Y-68982460D01*
X33327316Y-69054000D01*
X33322765Y-69055245D01*
X33065097Y-69165149D01*
X32919747Y-69252140D01*
X32828411Y-69306803D01*
X32828407Y-69306806D01*
X32824729Y-69309007D01*
X32821386Y-69311685D01*
X32821382Y-69311688D01*
X32812046Y-69319168D01*
X32606109Y-69484155D01*
X32413281Y-69687352D01*
X32249815Y-69914839D01*
X32118735Y-70162407D01*
X32022466Y-70425473D01*
X31962790Y-70699171D01*
X31940812Y-70978435D01*
X30254000Y-70978435D01*
X30254000Y-65918096D01*
X59140729Y-65918096D01*
X59144913Y-65955994D01*
X59156954Y-66065052D01*
X59158113Y-66075553D01*
X59160723Y-66082684D01*
X59160723Y-66082686D01*
X59202016Y-66195524D01*
X59212553Y-66224319D01*
X59216789Y-66230622D01*
X59216789Y-66230623D01*
X59287352Y-66335631D01*
X59300908Y-66355805D01*
X59306527Y-66360918D01*
X59306528Y-66360919D01*
X59412460Y-66457309D01*
X59418076Y-66462419D01*
X59557293Y-66538008D01*
X59710522Y-66578207D01*
X59794477Y-66579526D01*
X59861319Y-66580576D01*
X59861322Y-66580576D01*
X59868916Y-66580695D01*
X60023332Y-66545329D01*
X60113460Y-66500000D01*
X60127187Y-66493096D01*
X87540729Y-66493096D01*
X87547645Y-66555740D01*
X87552308Y-66597970D01*
X87558113Y-66650553D01*
X87612553Y-66799319D01*
X87616789Y-66805622D01*
X87616789Y-66805623D01*
X87692596Y-66918435D01*
X87700908Y-66930805D01*
X87706527Y-66935918D01*
X87706528Y-66935919D01*
X87717903Y-66946269D01*
X87818076Y-67037419D01*
X87957293Y-67113008D01*
X88110522Y-67153207D01*
X88194477Y-67154526D01*
X88261319Y-67155576D01*
X88261322Y-67155576D01*
X88268916Y-67155695D01*
X88423332Y-67120329D01*
X88430118Y-67116916D01*
X88430121Y-67116915D01*
X88474399Y-67094646D01*
X88544243Y-67081908D01*
X88609887Y-67108952D01*
X88650488Y-67167194D01*
X88654591Y-67231792D01*
X88641024Y-67300000D01*
X88643445Y-67312170D01*
X88643579Y-67312844D01*
X88646000Y-67337425D01*
X88646000Y-68762575D01*
X88643579Y-68787153D01*
X88641024Y-68800000D01*
X88646000Y-68825017D01*
X88660737Y-68899106D01*
X88667631Y-68909423D01*
X88667631Y-68909424D01*
X88692628Y-68946834D01*
X88716876Y-68983124D01*
X88800894Y-69039263D01*
X88900000Y-69058976D01*
X88912847Y-69056421D01*
X88937425Y-69054000D01*
X92062575Y-69054000D01*
X92087153Y-69056421D01*
X92100000Y-69058976D01*
X92199106Y-69039263D01*
X92283124Y-68983124D01*
X92339263Y-68899106D01*
X92354000Y-68825017D01*
X92358976Y-68800000D01*
X95641024Y-68800000D01*
X95646000Y-68825017D01*
X95660737Y-68899106D01*
X95667631Y-68909423D01*
X95667631Y-68909424D01*
X95692628Y-68946834D01*
X95716876Y-68983124D01*
X95800894Y-69039263D01*
X95900000Y-69058976D01*
X95912847Y-69056421D01*
X95937425Y-69054000D01*
X99062575Y-69054000D01*
X99087153Y-69056421D01*
X99100000Y-69058976D01*
X99199106Y-69039263D01*
X99283124Y-68983124D01*
X99339263Y-68899106D01*
X99354000Y-68825017D01*
X99358976Y-68800000D01*
X99356421Y-68787153D01*
X99354000Y-68762575D01*
X99354000Y-67337425D01*
X99356421Y-67312844D01*
X99356555Y-67312170D01*
X99358976Y-67300000D01*
X99345682Y-67233165D01*
X99352010Y-67162452D01*
X99395565Y-67106385D01*
X99462517Y-67082766D01*
X99529383Y-67097854D01*
X99557293Y-67113008D01*
X99710522Y-67153207D01*
X99794477Y-67154526D01*
X99861319Y-67155576D01*
X99861322Y-67155576D01*
X99868916Y-67155695D01*
X100023332Y-67120329D01*
X100099724Y-67081908D01*
X100158072Y-67052563D01*
X100158075Y-67052561D01*
X100164855Y-67049151D01*
X100170626Y-67044222D01*
X100170629Y-67044220D01*
X100279536Y-66951204D01*
X100279536Y-66951203D01*
X100285314Y-66946269D01*
X100377755Y-66817624D01*
X100436842Y-66670641D01*
X100445987Y-66606382D01*
X100458581Y-66517891D01*
X100458581Y-66517888D01*
X100459162Y-66513807D01*
X100459307Y-66500000D01*
X100440276Y-66342733D01*
X100384280Y-66194546D01*
X100321153Y-66102695D01*
X100298855Y-66070251D01*
X100298854Y-66070249D01*
X100294553Y-66063992D01*
X100176275Y-65958611D01*
X100168889Y-65954700D01*
X100042988Y-65888039D01*
X100042989Y-65888039D01*
X100036274Y-65884484D01*
X99882633Y-65845892D01*
X99875034Y-65845852D01*
X99875033Y-65845852D01*
X99809181Y-65845507D01*
X99724221Y-65845062D01*
X99716841Y-65846834D01*
X99716839Y-65846834D01*
X99577563Y-65880271D01*
X99577560Y-65880272D01*
X99570184Y-65882043D01*
X99429414Y-65954700D01*
X99310039Y-66058838D01*
X99218950Y-66188444D01*
X99161406Y-66336037D01*
X99160414Y-66343570D01*
X99160414Y-66343571D01*
X99142774Y-66477563D01*
X99140729Y-66493096D01*
X99147645Y-66555740D01*
X99152308Y-66597970D01*
X99158113Y-66650553D01*
X99212553Y-66799319D01*
X99216789Y-66805622D01*
X99216789Y-66805623D01*
X99247105Y-66850738D01*
X99268497Y-66918435D01*
X99249893Y-66986951D01*
X99197200Y-67034532D01*
X99127147Y-67046072D01*
X99117953Y-67044595D01*
X99100000Y-67041024D01*
X99087153Y-67043579D01*
X99062575Y-67046000D01*
X95937425Y-67046000D01*
X95912847Y-67043579D01*
X95900000Y-67041024D01*
X95887828Y-67043445D01*
X95883932Y-67044220D01*
X95874983Y-67046000D01*
X95800894Y-67060737D01*
X95790577Y-67067631D01*
X95790576Y-67067631D01*
X95745344Y-67097854D01*
X95716876Y-67116876D01*
X95709983Y-67127192D01*
X95690938Y-67155695D01*
X95660737Y-67200894D01*
X95641024Y-67300000D01*
X95643445Y-67312170D01*
X95643579Y-67312844D01*
X95646000Y-67337425D01*
X95646000Y-68762575D01*
X95643579Y-68787153D01*
X95641024Y-68800000D01*
X92358976Y-68800000D01*
X92356421Y-68787153D01*
X92354000Y-68762575D01*
X92354000Y-67337425D01*
X92356421Y-67312844D01*
X92356555Y-67312170D01*
X92358976Y-67300000D01*
X92339263Y-67200894D01*
X92309062Y-67155695D01*
X92290017Y-67127192D01*
X92283124Y-67116876D01*
X92199106Y-67060737D01*
X92125017Y-67046000D01*
X92116068Y-67044220D01*
X92112172Y-67043445D01*
X92100000Y-67041024D01*
X92087153Y-67043579D01*
X92062575Y-67046000D01*
X88937425Y-67046000D01*
X88912847Y-67043579D01*
X88900000Y-67041024D01*
X88887828Y-67043445D01*
X88887827Y-67043445D01*
X88883387Y-67044328D01*
X88812673Y-67037999D01*
X88756607Y-66994444D01*
X88732988Y-66927491D01*
X88749317Y-66858397D01*
X88756477Y-66847235D01*
X88777755Y-66817624D01*
X88836842Y-66670641D01*
X88845987Y-66606382D01*
X88858581Y-66517891D01*
X88858581Y-66517888D01*
X88859162Y-66513807D01*
X88859307Y-66500000D01*
X88840276Y-66342733D01*
X88784280Y-66194546D01*
X88721153Y-66102695D01*
X88698855Y-66070251D01*
X88698854Y-66070249D01*
X88694553Y-66063992D01*
X88576275Y-65958611D01*
X88568889Y-65954700D01*
X88442988Y-65888039D01*
X88442989Y-65888039D01*
X88436274Y-65884484D01*
X88282633Y-65845892D01*
X88275034Y-65845852D01*
X88275033Y-65845852D01*
X88209181Y-65845507D01*
X88124221Y-65845062D01*
X88116841Y-65846834D01*
X88116839Y-65846834D01*
X87977563Y-65880271D01*
X87977560Y-65880272D01*
X87970184Y-65882043D01*
X87829414Y-65954700D01*
X87710039Y-66058838D01*
X87618950Y-66188444D01*
X87561406Y-66336037D01*
X87560414Y-66343570D01*
X87560414Y-66343571D01*
X87542774Y-66477563D01*
X87540729Y-66493096D01*
X60127187Y-66493096D01*
X60158072Y-66477563D01*
X60158075Y-66477561D01*
X60164855Y-66474151D01*
X60170626Y-66469222D01*
X60170629Y-66469220D01*
X60279536Y-66376204D01*
X60279536Y-66376203D01*
X60285314Y-66371269D01*
X60377755Y-66242624D01*
X60436842Y-66095641D01*
X60448155Y-66016151D01*
X60458581Y-65942891D01*
X60458581Y-65942888D01*
X60459162Y-65938807D01*
X60459307Y-65925000D01*
X60440276Y-65767733D01*
X60384280Y-65619546D01*
X60318957Y-65524500D01*
X60298855Y-65495251D01*
X60298854Y-65495249D01*
X60294553Y-65488992D01*
X60176275Y-65383611D01*
X60168889Y-65379700D01*
X60042988Y-65313039D01*
X60042989Y-65313039D01*
X60036274Y-65309484D01*
X59882633Y-65270892D01*
X59875034Y-65270852D01*
X59875033Y-65270852D01*
X59809181Y-65270507D01*
X59724221Y-65270062D01*
X59716841Y-65271834D01*
X59716839Y-65271834D01*
X59577563Y-65305271D01*
X59577560Y-65305272D01*
X59570184Y-65307043D01*
X59429414Y-65379700D01*
X59310039Y-65483838D01*
X59218950Y-65613444D01*
X59203698Y-65652563D01*
X59164459Y-65753207D01*
X59161406Y-65761037D01*
X59160414Y-65768570D01*
X59160414Y-65768571D01*
X59145398Y-65882634D01*
X59140729Y-65918096D01*
X30254000Y-65918096D01*
X30254000Y-65093096D01*
X64240729Y-65093096D01*
X64249421Y-65171825D01*
X64252753Y-65202000D01*
X64258113Y-65250553D01*
X64260723Y-65257684D01*
X64260723Y-65257686D01*
X64306805Y-65383611D01*
X64312553Y-65399319D01*
X64316789Y-65405622D01*
X64316789Y-65405623D01*
X64377017Y-65495251D01*
X64400908Y-65530805D01*
X64406527Y-65535918D01*
X64406528Y-65535919D01*
X64506240Y-65626649D01*
X64518076Y-65637419D01*
X64657293Y-65713008D01*
X64810522Y-65753207D01*
X64894477Y-65754526D01*
X64961319Y-65755576D01*
X64961322Y-65755576D01*
X64968916Y-65755695D01*
X65123332Y-65720329D01*
X65205415Y-65679046D01*
X65258072Y-65652563D01*
X65258075Y-65652561D01*
X65264855Y-65649151D01*
X65270626Y-65644222D01*
X65270629Y-65644220D01*
X65379536Y-65551204D01*
X65379536Y-65551203D01*
X65385314Y-65546269D01*
X65439417Y-65470977D01*
X89891650Y-65470977D01*
X89893552Y-65500000D01*
X89904920Y-65673444D01*
X89954865Y-65870102D01*
X90039812Y-66054365D01*
X90043145Y-66059081D01*
X90139573Y-66195524D01*
X90156915Y-66220063D01*
X90161057Y-66224098D01*
X90217984Y-66279553D01*
X90302254Y-66361645D01*
X90470960Y-66474371D01*
X90553149Y-66509682D01*
X90640065Y-66547024D01*
X90657384Y-66554465D01*
X90753606Y-66576238D01*
X90849646Y-66597970D01*
X90849649Y-66597970D01*
X90855282Y-66599245D01*
X90861053Y-66599472D01*
X90861055Y-66599472D01*
X90922093Y-66601870D01*
X91058026Y-66607211D01*
X91176168Y-66590081D01*
X91253106Y-66578926D01*
X91253110Y-66578925D01*
X91258828Y-66578096D01*
X91264300Y-66576238D01*
X91264302Y-66576238D01*
X91445497Y-66514730D01*
X91445499Y-66514729D01*
X91450961Y-66512875D01*
X91627992Y-66413733D01*
X91783991Y-66283991D01*
X91913733Y-66127992D01*
X92012875Y-65950961D01*
X92015615Y-65942891D01*
X92076238Y-65764302D01*
X92076238Y-65764300D01*
X92078096Y-65758828D01*
X92083433Y-65722024D01*
X92095174Y-65641042D01*
X92107211Y-65558026D01*
X92108730Y-65500000D01*
X92090164Y-65297950D01*
X92078809Y-65257686D01*
X92062627Y-65200309D01*
X92035089Y-65102667D01*
X91945348Y-64920690D01*
X91851152Y-64794546D01*
X91827400Y-64762739D01*
X91827400Y-64762738D01*
X91823947Y-64758115D01*
X91674952Y-64620385D01*
X91503353Y-64512114D01*
X91471177Y-64499277D01*
X91320260Y-64439068D01*
X91314896Y-64436928D01*
X91309236Y-64435802D01*
X91309232Y-64435801D01*
X91121561Y-64398471D01*
X91121558Y-64398471D01*
X91115894Y-64397344D01*
X91110119Y-64397268D01*
X91110115Y-64397268D01*
X91008694Y-64395941D01*
X90913010Y-64394688D01*
X90907313Y-64395667D01*
X90907312Y-64395667D01*
X90890994Y-64398471D01*
X90713040Y-64429049D01*
X90522679Y-64499277D01*
X90517718Y-64502229D01*
X90517717Y-64502229D01*
X90353273Y-64600063D01*
X90353270Y-64600065D01*
X90348305Y-64603019D01*
X90195756Y-64736801D01*
X90192181Y-64741336D01*
X90192180Y-64741337D01*
X90182040Y-64754199D01*
X90070141Y-64896142D01*
X90067452Y-64901253D01*
X90067450Y-64901256D01*
X90023996Y-64983849D01*
X89975667Y-65075707D01*
X89973953Y-65081228D01*
X89973951Y-65081232D01*
X89962568Y-65117891D01*
X89915498Y-65269482D01*
X89891650Y-65470977D01*
X65439417Y-65470977D01*
X65477755Y-65417624D01*
X65536842Y-65270641D01*
X65559162Y-65113807D01*
X65559307Y-65100000D01*
X65540276Y-64942733D01*
X65484280Y-64794546D01*
X65394553Y-64663992D01*
X65276275Y-64558611D01*
X65268889Y-64554700D01*
X65142988Y-64488039D01*
X65142989Y-64488039D01*
X65136274Y-64484484D01*
X64982633Y-64445892D01*
X64975034Y-64445852D01*
X64975033Y-64445852D01*
X64909181Y-64445507D01*
X64824221Y-64445062D01*
X64816841Y-64446834D01*
X64816839Y-64446834D01*
X64677563Y-64480271D01*
X64677560Y-64480272D01*
X64670184Y-64482043D01*
X64529414Y-64554700D01*
X64410039Y-64658838D01*
X64318950Y-64788444D01*
X64298443Y-64841042D01*
X64265370Y-64925871D01*
X64261406Y-64936037D01*
X64260414Y-64943570D01*
X64260414Y-64943571D01*
X64242291Y-65081232D01*
X64240729Y-65093096D01*
X30254000Y-65093096D01*
X30254000Y-64293096D01*
X66765729Y-64293096D01*
X66774421Y-64371825D01*
X66781609Y-64436928D01*
X66783113Y-64450553D01*
X66785723Y-64457684D01*
X66785723Y-64457686D01*
X66823051Y-64559689D01*
X66837553Y-64599319D01*
X66841789Y-64605622D01*
X66841789Y-64605623D01*
X66874194Y-64653846D01*
X66925908Y-64730805D01*
X66931527Y-64735918D01*
X66931528Y-64735919D01*
X66942903Y-64746269D01*
X67043076Y-64837419D01*
X67182293Y-64913008D01*
X67335522Y-64953207D01*
X67419477Y-64954526D01*
X67486319Y-64955576D01*
X67486322Y-64955576D01*
X67493916Y-64955695D01*
X67648332Y-64920329D01*
X67718742Y-64884917D01*
X67783072Y-64852563D01*
X67783075Y-64852561D01*
X67789855Y-64849151D01*
X67795626Y-64844222D01*
X67795629Y-64844220D01*
X67904536Y-64751204D01*
X67904536Y-64751203D01*
X67910314Y-64746269D01*
X68002755Y-64617624D01*
X68061842Y-64470641D01*
X68084162Y-64313807D01*
X68084307Y-64300000D01*
X68065276Y-64142733D01*
X68009280Y-63994546D01*
X67964231Y-63928999D01*
X67923855Y-63870251D01*
X67923854Y-63870249D01*
X67919553Y-63863992D01*
X67801275Y-63758611D01*
X67793889Y-63754700D01*
X67740069Y-63726204D01*
X67661274Y-63684484D01*
X67507633Y-63645892D01*
X67500034Y-63645852D01*
X67500033Y-63645852D01*
X67434181Y-63645507D01*
X67349221Y-63645062D01*
X67341841Y-63646834D01*
X67341839Y-63646834D01*
X67202563Y-63680271D01*
X67202560Y-63680272D01*
X67195184Y-63682043D01*
X67054414Y-63754700D01*
X66935039Y-63858838D01*
X66843950Y-63988444D01*
X66786406Y-64136037D01*
X66765729Y-64293096D01*
X30254000Y-64293096D01*
X30254000Y-63268096D01*
X69315729Y-63268096D01*
X69333113Y-63425553D01*
X69387553Y-63574319D01*
X69391789Y-63580622D01*
X69391789Y-63580623D01*
X69459941Y-63682043D01*
X69475908Y-63705805D01*
X69481527Y-63710918D01*
X69481528Y-63710919D01*
X69587460Y-63807309D01*
X69593076Y-63812419D01*
X69732293Y-63888008D01*
X69885522Y-63928207D01*
X69969477Y-63929526D01*
X70036319Y-63930576D01*
X70036322Y-63930576D01*
X70043916Y-63930695D01*
X70198332Y-63895329D01*
X70280813Y-63853846D01*
X70333072Y-63827563D01*
X70333075Y-63827561D01*
X70339855Y-63824151D01*
X70345626Y-63819222D01*
X70345629Y-63819220D01*
X70454536Y-63726204D01*
X70454536Y-63726203D01*
X70460314Y-63721269D01*
X70552755Y-63592624D01*
X70611842Y-63445641D01*
X70634162Y-63288807D01*
X70634307Y-63275000D01*
X70615276Y-63117733D01*
X70559280Y-62969546D01*
X70469553Y-62838992D01*
X70452500Y-62823798D01*
X70425025Y-62799319D01*
X70351275Y-62733611D01*
X70343889Y-62729700D01*
X70217988Y-62663039D01*
X70217989Y-62663039D01*
X70211274Y-62659484D01*
X70057633Y-62620892D01*
X70050034Y-62620852D01*
X70050033Y-62620852D01*
X69984181Y-62620507D01*
X69899221Y-62620062D01*
X69891841Y-62621834D01*
X69891839Y-62621834D01*
X69752563Y-62655271D01*
X69752560Y-62655272D01*
X69745184Y-62657043D01*
X69604414Y-62729700D01*
X69485039Y-62833838D01*
X69393950Y-62963444D01*
X69336406Y-63111037D01*
X69335414Y-63118570D01*
X69335414Y-63118571D01*
X69330527Y-63155695D01*
X69315729Y-63268096D01*
X30254000Y-63268096D01*
X30254000Y-62493096D01*
X71840729Y-62493096D01*
X71849421Y-62571824D01*
X71855043Y-62622743D01*
X71858113Y-62650553D01*
X71860723Y-62657684D01*
X71860723Y-62657686D01*
X71890357Y-62738664D01*
X71912553Y-62799319D01*
X72000908Y-62930805D01*
X72006527Y-62935918D01*
X72006528Y-62935919D01*
X72036778Y-62963444D01*
X72118076Y-63037419D01*
X72257293Y-63113008D01*
X72410522Y-63153207D01*
X72494477Y-63154526D01*
X72561319Y-63155576D01*
X72561322Y-63155576D01*
X72568916Y-63155695D01*
X72723332Y-63120329D01*
X72793742Y-63084917D01*
X72858072Y-63052563D01*
X72858075Y-63052561D01*
X72864855Y-63049151D01*
X72870626Y-63044222D01*
X72870629Y-63044220D01*
X72979536Y-62951204D01*
X72979536Y-62951203D01*
X72985314Y-62946269D01*
X73077755Y-62817624D01*
X73136842Y-62670641D01*
X73159162Y-62513807D01*
X73159307Y-62500000D01*
X73158472Y-62493096D01*
X87540729Y-62493096D01*
X87549421Y-62571825D01*
X87555043Y-62622743D01*
X87558113Y-62650553D01*
X87560723Y-62657684D01*
X87560723Y-62657686D01*
X87590357Y-62738664D01*
X87612553Y-62799319D01*
X87700908Y-62930805D01*
X87706527Y-62935918D01*
X87706528Y-62935919D01*
X87736778Y-62963444D01*
X87818076Y-63037419D01*
X87957293Y-63113008D01*
X88110522Y-63153207D01*
X88194477Y-63154526D01*
X88261319Y-63155576D01*
X88261322Y-63155576D01*
X88268916Y-63155695D01*
X88423332Y-63120329D01*
X88493742Y-63084917D01*
X88558072Y-63052563D01*
X88558075Y-63052561D01*
X88564855Y-63049151D01*
X88570626Y-63044222D01*
X88570629Y-63044220D01*
X88679536Y-62951204D01*
X88679536Y-62951203D01*
X88685314Y-62946269D01*
X88777755Y-62817624D01*
X88836842Y-62670641D01*
X88859162Y-62513807D01*
X88859307Y-62500000D01*
X88858472Y-62493096D01*
X99140729Y-62493096D01*
X99149421Y-62571825D01*
X99155043Y-62622743D01*
X99158113Y-62650553D01*
X99160723Y-62657684D01*
X99160723Y-62657686D01*
X99190357Y-62738664D01*
X99212553Y-62799319D01*
X99300908Y-62930805D01*
X99306527Y-62935918D01*
X99306528Y-62935919D01*
X99336778Y-62963444D01*
X99418076Y-63037419D01*
X99557293Y-63113008D01*
X99710522Y-63153207D01*
X99794477Y-63154526D01*
X99861319Y-63155576D01*
X99861322Y-63155576D01*
X99868916Y-63155695D01*
X100023332Y-63120329D01*
X100093742Y-63084917D01*
X100158072Y-63052563D01*
X100158075Y-63052561D01*
X100164855Y-63049151D01*
X100170626Y-63044222D01*
X100170629Y-63044220D01*
X100279536Y-62951204D01*
X100279536Y-62951203D01*
X100285314Y-62946269D01*
X100377755Y-62817624D01*
X100436842Y-62670641D01*
X100459162Y-62513807D01*
X100459307Y-62500000D01*
X100440276Y-62342733D01*
X100384280Y-62194546D01*
X100294553Y-62063992D01*
X100176275Y-61958611D01*
X100168889Y-61954700D01*
X100042988Y-61888039D01*
X100042989Y-61888039D01*
X100036274Y-61884484D01*
X99882633Y-61845892D01*
X99875034Y-61845852D01*
X99875033Y-61845852D01*
X99809181Y-61845507D01*
X99724221Y-61845062D01*
X99716841Y-61846834D01*
X99716839Y-61846834D01*
X99577563Y-61880271D01*
X99577560Y-61880272D01*
X99570184Y-61882043D01*
X99429414Y-61954700D01*
X99310039Y-62058838D01*
X99218950Y-62188444D01*
X99161406Y-62336037D01*
X99140729Y-62493096D01*
X88858472Y-62493096D01*
X88840276Y-62342733D01*
X88784280Y-62194546D01*
X88694553Y-62063992D01*
X88576275Y-61958611D01*
X88568889Y-61954700D01*
X88442988Y-61888039D01*
X88442989Y-61888039D01*
X88436274Y-61884484D01*
X88282633Y-61845892D01*
X88275034Y-61845852D01*
X88275033Y-61845852D01*
X88209181Y-61845507D01*
X88124221Y-61845062D01*
X88116841Y-61846834D01*
X88116839Y-61846834D01*
X87977563Y-61880271D01*
X87977560Y-61880272D01*
X87970184Y-61882043D01*
X87829414Y-61954700D01*
X87710039Y-62058838D01*
X87618950Y-62188444D01*
X87561406Y-62336037D01*
X87540729Y-62493096D01*
X73158472Y-62493096D01*
X73140276Y-62342733D01*
X73084280Y-62194546D01*
X72994553Y-62063992D01*
X72876275Y-61958611D01*
X72868889Y-61954700D01*
X72742988Y-61888039D01*
X72742989Y-61888039D01*
X72736274Y-61884484D01*
X72582633Y-61845892D01*
X72575034Y-61845852D01*
X72575033Y-61845852D01*
X72509181Y-61845507D01*
X72424221Y-61845062D01*
X72416841Y-61846834D01*
X72416839Y-61846834D01*
X72277563Y-61880271D01*
X72277560Y-61880272D01*
X72270184Y-61882043D01*
X72129414Y-61954700D01*
X72010039Y-62058838D01*
X71918950Y-62188444D01*
X71861406Y-62336037D01*
X71840729Y-62493096D01*
X30254000Y-62493096D01*
X30254000Y-59470977D01*
X95891650Y-59470977D01*
X95893552Y-59500000D01*
X95904920Y-59673444D01*
X95954865Y-59870102D01*
X96039812Y-60054365D01*
X96043145Y-60059081D01*
X96094983Y-60132430D01*
X96156915Y-60220063D01*
X96302254Y-60361645D01*
X96470960Y-60474371D01*
X96476263Y-60476649D01*
X96476266Y-60476651D01*
X96564898Y-60514730D01*
X96657384Y-60554465D01*
X96753606Y-60576238D01*
X96849646Y-60597970D01*
X96849649Y-60597970D01*
X96855282Y-60599245D01*
X96861053Y-60599472D01*
X96861055Y-60599472D01*
X96922093Y-60601870D01*
X97058026Y-60607211D01*
X97176168Y-60590081D01*
X97253106Y-60578926D01*
X97253110Y-60578925D01*
X97258828Y-60578096D01*
X97264300Y-60576238D01*
X97264302Y-60576238D01*
X97445497Y-60514730D01*
X97445499Y-60514729D01*
X97450961Y-60512875D01*
X97627992Y-60413733D01*
X97783991Y-60283991D01*
X97913733Y-60127992D01*
X98012875Y-59950961D01*
X98022898Y-59921436D01*
X98076238Y-59764302D01*
X98076238Y-59764300D01*
X98078096Y-59758828D01*
X98107211Y-59558026D01*
X98108730Y-59500000D01*
X98090164Y-59297950D01*
X98035089Y-59102667D01*
X97945348Y-58920690D01*
X97823947Y-58758115D01*
X97734738Y-58675651D01*
X97679192Y-58624304D01*
X97679189Y-58624302D01*
X97674952Y-58620385D01*
X97503353Y-58512114D01*
X97471177Y-58499277D01*
X97455684Y-58493096D01*
X99140729Y-58493096D01*
X99149421Y-58571824D01*
X99153286Y-58606829D01*
X99158113Y-58650553D01*
X99160723Y-58657684D01*
X99160723Y-58657686D01*
X99199167Y-58762739D01*
X99212553Y-58799319D01*
X99216789Y-58805622D01*
X99216789Y-58805623D01*
X99274567Y-58891605D01*
X99300908Y-58930805D01*
X99306527Y-58935918D01*
X99306528Y-58935919D01*
X99317903Y-58946269D01*
X99418076Y-59037419D01*
X99557293Y-59113008D01*
X99710522Y-59153207D01*
X99794477Y-59154526D01*
X99861319Y-59155576D01*
X99861322Y-59155576D01*
X99868916Y-59155695D01*
X100023332Y-59120329D01*
X100093742Y-59084917D01*
X100158072Y-59052563D01*
X100158075Y-59052561D01*
X100164855Y-59049151D01*
X100170626Y-59044222D01*
X100170629Y-59044220D01*
X100279536Y-58951204D01*
X100279536Y-58951203D01*
X100285314Y-58946269D01*
X100377755Y-58817624D01*
X100436842Y-58670641D01*
X100444433Y-58617303D01*
X100458581Y-58517891D01*
X100458581Y-58517888D01*
X100459162Y-58513807D01*
X100459307Y-58500000D01*
X100440276Y-58342733D01*
X100384280Y-58194546D01*
X100294553Y-58063992D01*
X100176275Y-57958611D01*
X100168889Y-57954700D01*
X100042988Y-57888039D01*
X100042989Y-57888039D01*
X100036274Y-57884484D01*
X99882633Y-57845892D01*
X99875034Y-57845852D01*
X99875033Y-57845852D01*
X99809181Y-57845507D01*
X99724221Y-57845062D01*
X99716841Y-57846834D01*
X99716839Y-57846834D01*
X99577563Y-57880271D01*
X99577560Y-57880272D01*
X99570184Y-57882043D01*
X99429414Y-57954700D01*
X99310039Y-58058838D01*
X99218950Y-58188444D01*
X99161406Y-58336037D01*
X99160414Y-58343570D01*
X99160414Y-58343571D01*
X99147842Y-58439068D01*
X99140729Y-58493096D01*
X97455684Y-58493096D01*
X97320260Y-58439068D01*
X97314896Y-58436928D01*
X97309236Y-58435802D01*
X97309232Y-58435801D01*
X97121561Y-58398471D01*
X97121558Y-58398471D01*
X97115894Y-58397344D01*
X97110119Y-58397268D01*
X97110115Y-58397268D01*
X97008694Y-58395941D01*
X96913010Y-58394688D01*
X96907313Y-58395667D01*
X96907312Y-58395667D01*
X96890994Y-58398471D01*
X96713040Y-58429049D01*
X96522679Y-58499277D01*
X96517718Y-58502229D01*
X96517717Y-58502229D01*
X96353273Y-58600063D01*
X96353270Y-58600065D01*
X96348305Y-58603019D01*
X96195756Y-58736801D01*
X96070141Y-58896142D01*
X96067452Y-58901253D01*
X96067450Y-58901256D01*
X96051904Y-58930805D01*
X95975667Y-59075707D01*
X95973953Y-59081228D01*
X95973951Y-59081232D01*
X95950867Y-59155576D01*
X95915498Y-59269482D01*
X95891650Y-59470977D01*
X30254000Y-59470977D01*
X30254000Y-57393096D01*
X31240729Y-57393096D01*
X31258113Y-57550553D01*
X31260723Y-57557684D01*
X31260723Y-57557686D01*
X31308349Y-57687830D01*
X31312553Y-57699319D01*
X31316789Y-57705622D01*
X31316789Y-57705623D01*
X31386541Y-57809424D01*
X31400908Y-57830805D01*
X31406527Y-57835918D01*
X31406528Y-57835919D01*
X31512460Y-57932309D01*
X31518076Y-57937419D01*
X31657293Y-58013008D01*
X31810522Y-58053207D01*
X31894477Y-58054526D01*
X31961319Y-58055576D01*
X31961322Y-58055576D01*
X31968916Y-58055695D01*
X32123332Y-58020329D01*
X32193742Y-57984917D01*
X32258072Y-57952563D01*
X32258075Y-57952561D01*
X32264855Y-57949151D01*
X32270626Y-57944222D01*
X32270629Y-57944220D01*
X32379536Y-57851204D01*
X32379536Y-57851203D01*
X32385314Y-57846269D01*
X32477755Y-57717624D01*
X32536842Y-57570641D01*
X32542965Y-57527615D01*
X32558581Y-57417891D01*
X32558581Y-57417888D01*
X32559162Y-57413807D01*
X32559307Y-57400000D01*
X32558472Y-57393096D01*
X33840729Y-57393096D01*
X33858113Y-57550553D01*
X33860723Y-57557684D01*
X33860723Y-57557686D01*
X33908349Y-57687830D01*
X33912553Y-57699319D01*
X33916789Y-57705622D01*
X33916789Y-57705623D01*
X33986541Y-57809424D01*
X34000908Y-57830805D01*
X34006527Y-57835918D01*
X34006528Y-57835919D01*
X34112460Y-57932309D01*
X34118076Y-57937419D01*
X34257293Y-58013008D01*
X34410522Y-58053207D01*
X34494477Y-58054526D01*
X34561319Y-58055576D01*
X34561322Y-58055576D01*
X34568916Y-58055695D01*
X34723332Y-58020329D01*
X34793742Y-57984917D01*
X34858072Y-57952563D01*
X34858075Y-57952561D01*
X34864855Y-57949151D01*
X34870626Y-57944222D01*
X34870629Y-57944220D01*
X34979536Y-57851204D01*
X34979536Y-57851203D01*
X34985314Y-57846269D01*
X35077755Y-57717624D01*
X35136842Y-57570641D01*
X35142965Y-57527615D01*
X35158581Y-57417891D01*
X35158581Y-57417888D01*
X35159162Y-57413807D01*
X35159307Y-57400000D01*
X35158472Y-57393096D01*
X38840729Y-57393096D01*
X38858113Y-57550553D01*
X38860723Y-57557684D01*
X38860723Y-57557686D01*
X38908349Y-57687830D01*
X38912553Y-57699319D01*
X38916789Y-57705622D01*
X38916789Y-57705623D01*
X38986541Y-57809424D01*
X39000908Y-57830805D01*
X39006527Y-57835918D01*
X39006528Y-57835919D01*
X39112460Y-57932309D01*
X39118076Y-57937419D01*
X39257293Y-58013008D01*
X39410522Y-58053207D01*
X39494477Y-58054526D01*
X39561319Y-58055576D01*
X39561322Y-58055576D01*
X39568916Y-58055695D01*
X39723332Y-58020329D01*
X39793742Y-57984917D01*
X39858072Y-57952563D01*
X39858075Y-57952561D01*
X39864855Y-57949151D01*
X39870626Y-57944222D01*
X39870629Y-57944220D01*
X39979536Y-57851204D01*
X39979536Y-57851203D01*
X39985314Y-57846269D01*
X40077755Y-57717624D01*
X40136842Y-57570641D01*
X40142965Y-57527615D01*
X40158581Y-57417891D01*
X40158581Y-57417888D01*
X40159162Y-57413807D01*
X40159307Y-57400000D01*
X40158472Y-57393096D01*
X41340729Y-57393096D01*
X41358113Y-57550553D01*
X41360723Y-57557684D01*
X41360723Y-57557686D01*
X41408349Y-57687830D01*
X41412553Y-57699319D01*
X41416789Y-57705622D01*
X41416789Y-57705623D01*
X41486541Y-57809424D01*
X41500908Y-57830805D01*
X41506527Y-57835918D01*
X41506528Y-57835919D01*
X41612460Y-57932309D01*
X41618076Y-57937419D01*
X41757293Y-58013008D01*
X41910522Y-58053207D01*
X41994477Y-58054526D01*
X42061319Y-58055576D01*
X42061322Y-58055576D01*
X42068916Y-58055695D01*
X42223332Y-58020329D01*
X42293742Y-57984917D01*
X42358072Y-57952563D01*
X42358075Y-57952561D01*
X42364855Y-57949151D01*
X42370626Y-57944222D01*
X42370629Y-57944220D01*
X42479536Y-57851204D01*
X42479536Y-57851203D01*
X42485314Y-57846269D01*
X42577755Y-57717624D01*
X42636842Y-57570641D01*
X42642965Y-57527615D01*
X42658581Y-57417891D01*
X42658581Y-57417888D01*
X42659162Y-57413807D01*
X42659307Y-57400000D01*
X42658472Y-57393096D01*
X43940729Y-57393096D01*
X43958113Y-57550553D01*
X43960723Y-57557684D01*
X43960723Y-57557686D01*
X44008349Y-57687830D01*
X44012553Y-57699319D01*
X44016789Y-57705622D01*
X44016789Y-57705623D01*
X44086541Y-57809424D01*
X44100908Y-57830805D01*
X44106527Y-57835918D01*
X44106528Y-57835919D01*
X44212460Y-57932309D01*
X44218076Y-57937419D01*
X44357293Y-58013008D01*
X44510522Y-58053207D01*
X44594477Y-58054526D01*
X44661319Y-58055576D01*
X44661322Y-58055576D01*
X44668916Y-58055695D01*
X44823332Y-58020329D01*
X44893742Y-57984917D01*
X44958072Y-57952563D01*
X44958075Y-57952561D01*
X44964855Y-57949151D01*
X44970626Y-57944222D01*
X44970629Y-57944220D01*
X45079536Y-57851204D01*
X45079536Y-57851203D01*
X45085314Y-57846269D01*
X45177755Y-57717624D01*
X45236842Y-57570641D01*
X45242965Y-57527615D01*
X45258581Y-57417891D01*
X45258581Y-57417888D01*
X45259162Y-57413807D01*
X45259307Y-57400000D01*
X45258472Y-57393096D01*
X46540729Y-57393096D01*
X46558113Y-57550553D01*
X46560723Y-57557684D01*
X46560723Y-57557686D01*
X46608349Y-57687830D01*
X46612553Y-57699319D01*
X46616789Y-57705622D01*
X46616789Y-57705623D01*
X46686541Y-57809424D01*
X46700908Y-57830805D01*
X46706527Y-57835918D01*
X46706528Y-57835919D01*
X46812460Y-57932309D01*
X46818076Y-57937419D01*
X46957293Y-58013008D01*
X47110522Y-58053207D01*
X47194477Y-58054526D01*
X47261319Y-58055576D01*
X47261322Y-58055576D01*
X47268916Y-58055695D01*
X47423332Y-58020329D01*
X47493742Y-57984917D01*
X47558072Y-57952563D01*
X47558075Y-57952561D01*
X47564855Y-57949151D01*
X47570626Y-57944222D01*
X47570629Y-57944220D01*
X47679536Y-57851204D01*
X47679536Y-57851203D01*
X47685314Y-57846269D01*
X47777755Y-57717624D01*
X47836842Y-57570641D01*
X47842965Y-57527615D01*
X47858581Y-57417891D01*
X47858581Y-57417888D01*
X47859162Y-57413807D01*
X47859307Y-57400000D01*
X47858472Y-57393096D01*
X51540729Y-57393096D01*
X51558113Y-57550553D01*
X51560723Y-57557684D01*
X51560723Y-57557686D01*
X51608349Y-57687830D01*
X51612553Y-57699319D01*
X51616789Y-57705622D01*
X51616789Y-57705623D01*
X51686541Y-57809424D01*
X51700908Y-57830805D01*
X51706527Y-57835918D01*
X51706528Y-57835919D01*
X51812460Y-57932309D01*
X51818076Y-57937419D01*
X51957293Y-58013008D01*
X52110522Y-58053207D01*
X52194477Y-58054526D01*
X52261319Y-58055576D01*
X52261322Y-58055576D01*
X52268916Y-58055695D01*
X52423332Y-58020329D01*
X52493742Y-57984917D01*
X52558072Y-57952563D01*
X52558075Y-57952561D01*
X52564855Y-57949151D01*
X52570626Y-57944222D01*
X52570629Y-57944220D01*
X52679536Y-57851204D01*
X52679536Y-57851203D01*
X52685314Y-57846269D01*
X52777755Y-57717624D01*
X52836842Y-57570641D01*
X52842965Y-57527615D01*
X52858581Y-57417891D01*
X52858581Y-57417888D01*
X52859162Y-57413807D01*
X52859307Y-57400000D01*
X52858472Y-57393096D01*
X54140729Y-57393096D01*
X54158113Y-57550553D01*
X54160723Y-57557684D01*
X54160723Y-57557686D01*
X54208349Y-57687830D01*
X54212553Y-57699319D01*
X54216789Y-57705622D01*
X54216789Y-57705623D01*
X54286541Y-57809424D01*
X54300908Y-57830805D01*
X54306527Y-57835918D01*
X54306528Y-57835919D01*
X54412460Y-57932309D01*
X54418076Y-57937419D01*
X54557293Y-58013008D01*
X54710522Y-58053207D01*
X54794477Y-58054526D01*
X54861319Y-58055576D01*
X54861322Y-58055576D01*
X54868916Y-58055695D01*
X55023332Y-58020329D01*
X55093742Y-57984917D01*
X55158072Y-57952563D01*
X55158075Y-57952561D01*
X55164855Y-57949151D01*
X55170626Y-57944222D01*
X55170629Y-57944220D01*
X55279536Y-57851204D01*
X55279536Y-57851203D01*
X55285314Y-57846269D01*
X55377755Y-57717624D01*
X55436842Y-57570641D01*
X55442965Y-57527615D01*
X55458581Y-57417891D01*
X55458581Y-57417888D01*
X55459162Y-57413807D01*
X55459307Y-57400000D01*
X55458472Y-57393096D01*
X56640729Y-57393096D01*
X56658113Y-57550553D01*
X56660723Y-57557684D01*
X56660723Y-57557686D01*
X56708349Y-57687830D01*
X56712553Y-57699319D01*
X56716789Y-57705622D01*
X56716789Y-57705623D01*
X56786541Y-57809424D01*
X56800908Y-57830805D01*
X56806527Y-57835918D01*
X56806528Y-57835919D01*
X56912460Y-57932309D01*
X56918076Y-57937419D01*
X57057293Y-58013008D01*
X57210522Y-58053207D01*
X57294477Y-58054526D01*
X57361319Y-58055576D01*
X57361322Y-58055576D01*
X57368916Y-58055695D01*
X57523332Y-58020329D01*
X57593742Y-57984917D01*
X57658072Y-57952563D01*
X57658075Y-57952561D01*
X57664855Y-57949151D01*
X57670626Y-57944222D01*
X57670629Y-57944220D01*
X57779536Y-57851204D01*
X57779536Y-57851203D01*
X57785314Y-57846269D01*
X57877755Y-57717624D01*
X57936842Y-57570641D01*
X57942965Y-57527615D01*
X57958581Y-57417891D01*
X57958581Y-57417888D01*
X57959162Y-57413807D01*
X57959307Y-57400000D01*
X57958472Y-57393096D01*
X59140729Y-57393096D01*
X59158113Y-57550553D01*
X59160723Y-57557684D01*
X59160723Y-57557686D01*
X59208349Y-57687830D01*
X59212553Y-57699319D01*
X59216789Y-57705622D01*
X59216789Y-57705623D01*
X59286541Y-57809424D01*
X59300908Y-57830805D01*
X59306527Y-57835918D01*
X59306528Y-57835919D01*
X59412460Y-57932309D01*
X59418076Y-57937419D01*
X59557293Y-58013008D01*
X59710522Y-58053207D01*
X59794477Y-58054526D01*
X59861319Y-58055576D01*
X59861322Y-58055576D01*
X59868916Y-58055695D01*
X60023332Y-58020329D01*
X60093742Y-57984917D01*
X60158072Y-57952563D01*
X60158075Y-57952561D01*
X60164855Y-57949151D01*
X60170626Y-57944222D01*
X60170629Y-57944220D01*
X60279536Y-57851204D01*
X60279536Y-57851203D01*
X60285314Y-57846269D01*
X60377755Y-57717624D01*
X60436842Y-57570641D01*
X60442965Y-57527615D01*
X60458581Y-57417891D01*
X60458581Y-57417888D01*
X60459162Y-57413807D01*
X60459307Y-57400000D01*
X60458472Y-57393096D01*
X61740729Y-57393096D01*
X61758113Y-57550553D01*
X61760723Y-57557684D01*
X61760723Y-57557686D01*
X61808349Y-57687830D01*
X61812553Y-57699319D01*
X61816789Y-57705622D01*
X61816789Y-57705623D01*
X61886541Y-57809424D01*
X61900908Y-57830805D01*
X61906527Y-57835918D01*
X61906528Y-57835919D01*
X62012460Y-57932309D01*
X62018076Y-57937419D01*
X62157293Y-58013008D01*
X62310522Y-58053207D01*
X62394477Y-58054526D01*
X62461319Y-58055576D01*
X62461322Y-58055576D01*
X62468916Y-58055695D01*
X62623332Y-58020329D01*
X62693742Y-57984917D01*
X62758072Y-57952563D01*
X62758075Y-57952561D01*
X62764855Y-57949151D01*
X62770626Y-57944222D01*
X62770629Y-57944220D01*
X62879536Y-57851204D01*
X62879536Y-57851203D01*
X62885314Y-57846269D01*
X62977755Y-57717624D01*
X63036842Y-57570641D01*
X63042965Y-57527615D01*
X63058581Y-57417891D01*
X63058581Y-57417888D01*
X63059162Y-57413807D01*
X63059307Y-57400000D01*
X63058472Y-57393096D01*
X64240729Y-57393096D01*
X64258113Y-57550553D01*
X64260723Y-57557684D01*
X64260723Y-57557686D01*
X64308349Y-57687830D01*
X64312553Y-57699319D01*
X64316789Y-57705622D01*
X64316789Y-57705623D01*
X64386541Y-57809424D01*
X64400908Y-57830805D01*
X64406527Y-57835918D01*
X64406528Y-57835919D01*
X64512460Y-57932309D01*
X64518076Y-57937419D01*
X64657293Y-58013008D01*
X64810522Y-58053207D01*
X64894477Y-58054526D01*
X64961319Y-58055576D01*
X64961322Y-58055576D01*
X64968916Y-58055695D01*
X65123332Y-58020329D01*
X65193742Y-57984917D01*
X65258072Y-57952563D01*
X65258075Y-57952561D01*
X65264855Y-57949151D01*
X65270626Y-57944222D01*
X65270629Y-57944220D01*
X65379536Y-57851204D01*
X65379536Y-57851203D01*
X65385314Y-57846269D01*
X65477755Y-57717624D01*
X65536842Y-57570641D01*
X65542965Y-57527615D01*
X65558581Y-57417891D01*
X65558581Y-57417888D01*
X65559162Y-57413807D01*
X65559307Y-57400000D01*
X65558472Y-57393096D01*
X66840729Y-57393096D01*
X66858113Y-57550553D01*
X66860723Y-57557684D01*
X66860723Y-57557686D01*
X66908349Y-57687830D01*
X66912553Y-57699319D01*
X66916789Y-57705622D01*
X66916789Y-57705623D01*
X66986541Y-57809424D01*
X67000908Y-57830805D01*
X67006527Y-57835918D01*
X67006528Y-57835919D01*
X67112460Y-57932309D01*
X67118076Y-57937419D01*
X67257293Y-58013008D01*
X67410522Y-58053207D01*
X67494477Y-58054526D01*
X67561319Y-58055576D01*
X67561322Y-58055576D01*
X67568916Y-58055695D01*
X67723332Y-58020329D01*
X67793742Y-57984917D01*
X67858072Y-57952563D01*
X67858075Y-57952561D01*
X67864855Y-57949151D01*
X67870626Y-57944222D01*
X67870629Y-57944220D01*
X67979536Y-57851204D01*
X67979536Y-57851203D01*
X67985314Y-57846269D01*
X68077755Y-57717624D01*
X68136842Y-57570641D01*
X68142965Y-57527615D01*
X68158581Y-57417891D01*
X68158581Y-57417888D01*
X68159162Y-57413807D01*
X68159307Y-57400000D01*
X68158472Y-57393096D01*
X69340729Y-57393096D01*
X69358113Y-57550553D01*
X69360723Y-57557684D01*
X69360723Y-57557686D01*
X69408349Y-57687830D01*
X69412553Y-57699319D01*
X69416789Y-57705622D01*
X69416789Y-57705623D01*
X69486541Y-57809424D01*
X69500908Y-57830805D01*
X69506527Y-57835918D01*
X69506528Y-57835919D01*
X69612460Y-57932309D01*
X69618076Y-57937419D01*
X69757293Y-58013008D01*
X69910522Y-58053207D01*
X69994477Y-58054526D01*
X70061319Y-58055576D01*
X70061322Y-58055576D01*
X70068916Y-58055695D01*
X70223332Y-58020329D01*
X70293742Y-57984917D01*
X70358072Y-57952563D01*
X70358075Y-57952561D01*
X70364855Y-57949151D01*
X70370626Y-57944222D01*
X70370629Y-57944220D01*
X70479536Y-57851204D01*
X70479536Y-57851203D01*
X70485314Y-57846269D01*
X70577755Y-57717624D01*
X70636842Y-57570641D01*
X70642965Y-57527615D01*
X70658581Y-57417891D01*
X70658581Y-57417888D01*
X70659162Y-57413807D01*
X70659307Y-57400000D01*
X70658472Y-57393096D01*
X71940729Y-57393096D01*
X71958113Y-57550553D01*
X71960723Y-57557684D01*
X71960723Y-57557686D01*
X72008349Y-57687830D01*
X72012553Y-57699319D01*
X72016789Y-57705622D01*
X72016789Y-57705623D01*
X72086541Y-57809424D01*
X72100908Y-57830805D01*
X72106527Y-57835918D01*
X72106528Y-57835919D01*
X72212460Y-57932309D01*
X72218076Y-57937419D01*
X72357293Y-58013008D01*
X72510522Y-58053207D01*
X72594477Y-58054526D01*
X72661319Y-58055576D01*
X72661322Y-58055576D01*
X72668916Y-58055695D01*
X72823332Y-58020329D01*
X72893742Y-57984917D01*
X72958072Y-57952563D01*
X72958075Y-57952561D01*
X72964855Y-57949151D01*
X72970626Y-57944222D01*
X72970629Y-57944220D01*
X73079536Y-57851204D01*
X73079536Y-57851203D01*
X73085314Y-57846269D01*
X73177755Y-57717624D01*
X73236842Y-57570641D01*
X73242965Y-57527615D01*
X73258581Y-57417891D01*
X73258581Y-57417888D01*
X73259162Y-57413807D01*
X73259307Y-57400000D01*
X73258472Y-57393096D01*
X74440729Y-57393096D01*
X74458113Y-57550553D01*
X74460723Y-57557684D01*
X74460723Y-57557686D01*
X74508349Y-57687830D01*
X74512553Y-57699319D01*
X74516789Y-57705622D01*
X74516789Y-57705623D01*
X74586541Y-57809424D01*
X74600908Y-57830805D01*
X74606527Y-57835918D01*
X74606528Y-57835919D01*
X74712460Y-57932309D01*
X74718076Y-57937419D01*
X74857293Y-58013008D01*
X75010522Y-58053207D01*
X75094477Y-58054526D01*
X75161319Y-58055576D01*
X75161322Y-58055576D01*
X75168916Y-58055695D01*
X75323332Y-58020329D01*
X75393742Y-57984917D01*
X75458072Y-57952563D01*
X75458075Y-57952561D01*
X75464855Y-57949151D01*
X75470626Y-57944222D01*
X75470629Y-57944220D01*
X75579536Y-57851204D01*
X75579536Y-57851203D01*
X75585314Y-57846269D01*
X75677755Y-57717624D01*
X75736842Y-57570641D01*
X75742965Y-57527615D01*
X75758581Y-57417891D01*
X75758581Y-57417888D01*
X75759162Y-57413807D01*
X75759307Y-57400000D01*
X75758472Y-57393096D01*
X76940729Y-57393096D01*
X76958113Y-57550553D01*
X76960723Y-57557684D01*
X76960723Y-57557686D01*
X77008349Y-57687830D01*
X77012553Y-57699319D01*
X77016789Y-57705622D01*
X77016789Y-57705623D01*
X77086541Y-57809424D01*
X77100908Y-57830805D01*
X77106527Y-57835918D01*
X77106528Y-57835919D01*
X77212460Y-57932309D01*
X77218076Y-57937419D01*
X77357293Y-58013008D01*
X77510522Y-58053207D01*
X77594477Y-58054526D01*
X77661319Y-58055576D01*
X77661322Y-58055576D01*
X77668916Y-58055695D01*
X77823332Y-58020329D01*
X77893742Y-57984917D01*
X77958072Y-57952563D01*
X77958075Y-57952561D01*
X77964855Y-57949151D01*
X77970626Y-57944222D01*
X77970629Y-57944220D01*
X78079536Y-57851204D01*
X78079536Y-57851203D01*
X78085314Y-57846269D01*
X78177755Y-57717624D01*
X78236842Y-57570641D01*
X78242965Y-57527615D01*
X78258581Y-57417891D01*
X78258581Y-57417888D01*
X78259162Y-57413807D01*
X78259307Y-57400000D01*
X78258472Y-57393096D01*
X79540729Y-57393096D01*
X79558113Y-57550553D01*
X79560723Y-57557684D01*
X79560723Y-57557686D01*
X79608349Y-57687830D01*
X79612553Y-57699319D01*
X79616789Y-57705622D01*
X79616789Y-57705623D01*
X79686541Y-57809424D01*
X79700908Y-57830805D01*
X79706527Y-57835918D01*
X79706528Y-57835919D01*
X79812460Y-57932309D01*
X79818076Y-57937419D01*
X79957293Y-58013008D01*
X80110522Y-58053207D01*
X80194477Y-58054526D01*
X80261319Y-58055576D01*
X80261322Y-58055576D01*
X80268916Y-58055695D01*
X80423332Y-58020329D01*
X80493742Y-57984917D01*
X80558072Y-57952563D01*
X80558075Y-57952561D01*
X80564855Y-57949151D01*
X80570626Y-57944222D01*
X80570629Y-57944220D01*
X80679536Y-57851204D01*
X80679536Y-57851203D01*
X80685314Y-57846269D01*
X80777755Y-57717624D01*
X80836842Y-57570641D01*
X80842965Y-57527615D01*
X80858581Y-57417891D01*
X80858581Y-57417888D01*
X80859162Y-57413807D01*
X80859307Y-57400000D01*
X80858472Y-57393096D01*
X81340729Y-57393096D01*
X81358113Y-57550553D01*
X81360723Y-57557684D01*
X81360723Y-57557686D01*
X81408349Y-57687830D01*
X81412553Y-57699319D01*
X81416789Y-57705622D01*
X81416789Y-57705623D01*
X81486541Y-57809424D01*
X81500908Y-57830805D01*
X81506527Y-57835918D01*
X81506528Y-57835919D01*
X81612460Y-57932309D01*
X81618076Y-57937419D01*
X81757293Y-58013008D01*
X81910522Y-58053207D01*
X81994477Y-58054526D01*
X82061319Y-58055576D01*
X82061322Y-58055576D01*
X82068916Y-58055695D01*
X82223332Y-58020329D01*
X82293742Y-57984917D01*
X82358072Y-57952563D01*
X82358075Y-57952561D01*
X82364855Y-57949151D01*
X82370626Y-57944222D01*
X82370629Y-57944220D01*
X82479536Y-57851204D01*
X82479536Y-57851203D01*
X82485314Y-57846269D01*
X82577755Y-57717624D01*
X82584840Y-57700000D01*
X92041024Y-57700000D01*
X92046000Y-57725017D01*
X92060737Y-57799106D01*
X92067631Y-57809423D01*
X92067631Y-57809424D01*
X92091972Y-57845852D01*
X92116876Y-57883124D01*
X92200894Y-57939263D01*
X92300000Y-57958976D01*
X92312847Y-57956421D01*
X92337425Y-57954000D01*
X95662575Y-57954000D01*
X95687153Y-57956421D01*
X95700000Y-57958976D01*
X95799106Y-57939263D01*
X95883124Y-57883124D01*
X95939263Y-57799106D01*
X95954000Y-57725017D01*
X95958976Y-57700000D01*
X95956421Y-57687153D01*
X95954000Y-57662575D01*
X95954000Y-56237425D01*
X95956421Y-56212844D01*
X95956555Y-56212170D01*
X95958976Y-56200000D01*
X95939263Y-56100894D01*
X95883124Y-56016876D01*
X95799106Y-55960737D01*
X95725017Y-55946000D01*
X95712172Y-55943445D01*
X95700000Y-55941024D01*
X95687153Y-55943579D01*
X95662575Y-55946000D01*
X92337425Y-55946000D01*
X92312847Y-55943579D01*
X92300000Y-55941024D01*
X92287828Y-55943445D01*
X92274983Y-55946000D01*
X92200894Y-55960737D01*
X92116876Y-56016876D01*
X92060737Y-56100894D01*
X92041024Y-56200000D01*
X92043445Y-56212170D01*
X92043579Y-56212844D01*
X92046000Y-56237425D01*
X92046000Y-57662575D01*
X92043579Y-57687153D01*
X92041024Y-57700000D01*
X82584840Y-57700000D01*
X82636842Y-57570641D01*
X82642965Y-57527615D01*
X82658581Y-57417891D01*
X82658581Y-57417888D01*
X82659162Y-57413807D01*
X82659307Y-57400000D01*
X82640276Y-57242733D01*
X82584280Y-57094546D01*
X82494553Y-56963992D01*
X82376275Y-56858611D01*
X82368889Y-56854700D01*
X82242988Y-56788039D01*
X82242989Y-56788039D01*
X82236274Y-56784484D01*
X82082633Y-56745892D01*
X82075034Y-56745852D01*
X82075033Y-56745852D01*
X82009181Y-56745507D01*
X81924221Y-56745062D01*
X81916841Y-56746834D01*
X81916839Y-56746834D01*
X81777563Y-56780271D01*
X81777560Y-56780272D01*
X81770184Y-56782043D01*
X81629414Y-56854700D01*
X81510039Y-56958838D01*
X81418950Y-57088444D01*
X81361406Y-57236037D01*
X81340729Y-57393096D01*
X80858472Y-57393096D01*
X80840276Y-57242733D01*
X80784280Y-57094546D01*
X80694553Y-56963992D01*
X80576275Y-56858611D01*
X80568889Y-56854700D01*
X80442988Y-56788039D01*
X80442989Y-56788039D01*
X80436274Y-56784484D01*
X80282633Y-56745892D01*
X80275034Y-56745852D01*
X80275033Y-56745852D01*
X80209181Y-56745507D01*
X80124221Y-56745062D01*
X80116841Y-56746834D01*
X80116839Y-56746834D01*
X79977563Y-56780271D01*
X79977560Y-56780272D01*
X79970184Y-56782043D01*
X79829414Y-56854700D01*
X79710039Y-56958838D01*
X79618950Y-57088444D01*
X79561406Y-57236037D01*
X79540729Y-57393096D01*
X78258472Y-57393096D01*
X78240276Y-57242733D01*
X78184280Y-57094546D01*
X78094553Y-56963992D01*
X77976275Y-56858611D01*
X77968889Y-56854700D01*
X77842988Y-56788039D01*
X77842989Y-56788039D01*
X77836274Y-56784484D01*
X77682633Y-56745892D01*
X77675034Y-56745852D01*
X77675033Y-56745852D01*
X77609181Y-56745507D01*
X77524221Y-56745062D01*
X77516841Y-56746834D01*
X77516839Y-56746834D01*
X77377563Y-56780271D01*
X77377560Y-56780272D01*
X77370184Y-56782043D01*
X77229414Y-56854700D01*
X77110039Y-56958838D01*
X77018950Y-57088444D01*
X76961406Y-57236037D01*
X76940729Y-57393096D01*
X75758472Y-57393096D01*
X75740276Y-57242733D01*
X75684280Y-57094546D01*
X75594553Y-56963992D01*
X75476275Y-56858611D01*
X75468889Y-56854700D01*
X75342988Y-56788039D01*
X75342989Y-56788039D01*
X75336274Y-56784484D01*
X75182633Y-56745892D01*
X75175034Y-56745852D01*
X75175033Y-56745852D01*
X75109181Y-56745507D01*
X75024221Y-56745062D01*
X75016841Y-56746834D01*
X75016839Y-56746834D01*
X74877563Y-56780271D01*
X74877560Y-56780272D01*
X74870184Y-56782043D01*
X74729414Y-56854700D01*
X74610039Y-56958838D01*
X74518950Y-57088444D01*
X74461406Y-57236037D01*
X74440729Y-57393096D01*
X73258472Y-57393096D01*
X73240276Y-57242733D01*
X73184280Y-57094546D01*
X73094553Y-56963992D01*
X72976275Y-56858611D01*
X72968889Y-56854700D01*
X72842988Y-56788039D01*
X72842989Y-56788039D01*
X72836274Y-56784484D01*
X72682633Y-56745892D01*
X72675034Y-56745852D01*
X72675033Y-56745852D01*
X72609181Y-56745507D01*
X72524221Y-56745062D01*
X72516841Y-56746834D01*
X72516839Y-56746834D01*
X72377563Y-56780271D01*
X72377560Y-56780272D01*
X72370184Y-56782043D01*
X72229414Y-56854700D01*
X72110039Y-56958838D01*
X72018950Y-57088444D01*
X71961406Y-57236037D01*
X71940729Y-57393096D01*
X70658472Y-57393096D01*
X70640276Y-57242733D01*
X70584280Y-57094546D01*
X70494553Y-56963992D01*
X70376275Y-56858611D01*
X70368889Y-56854700D01*
X70242988Y-56788039D01*
X70242989Y-56788039D01*
X70236274Y-56784484D01*
X70082633Y-56745892D01*
X70075034Y-56745852D01*
X70075033Y-56745852D01*
X70009181Y-56745507D01*
X69924221Y-56745062D01*
X69916841Y-56746834D01*
X69916839Y-56746834D01*
X69777563Y-56780271D01*
X69777560Y-56780272D01*
X69770184Y-56782043D01*
X69629414Y-56854700D01*
X69510039Y-56958838D01*
X69418950Y-57088444D01*
X69361406Y-57236037D01*
X69340729Y-57393096D01*
X68158472Y-57393096D01*
X68140276Y-57242733D01*
X68084280Y-57094546D01*
X67994553Y-56963992D01*
X67876275Y-56858611D01*
X67868889Y-56854700D01*
X67742988Y-56788039D01*
X67742989Y-56788039D01*
X67736274Y-56784484D01*
X67582633Y-56745892D01*
X67575034Y-56745852D01*
X67575033Y-56745852D01*
X67509181Y-56745507D01*
X67424221Y-56745062D01*
X67416841Y-56746834D01*
X67416839Y-56746834D01*
X67277563Y-56780271D01*
X67277560Y-56780272D01*
X67270184Y-56782043D01*
X67129414Y-56854700D01*
X67010039Y-56958838D01*
X66918950Y-57088444D01*
X66861406Y-57236037D01*
X66840729Y-57393096D01*
X65558472Y-57393096D01*
X65540276Y-57242733D01*
X65484280Y-57094546D01*
X65394553Y-56963992D01*
X65276275Y-56858611D01*
X65268889Y-56854700D01*
X65142988Y-56788039D01*
X65142989Y-56788039D01*
X65136274Y-56784484D01*
X64982633Y-56745892D01*
X64975034Y-56745852D01*
X64975033Y-56745852D01*
X64909181Y-56745507D01*
X64824221Y-56745062D01*
X64816841Y-56746834D01*
X64816839Y-56746834D01*
X64677563Y-56780271D01*
X64677560Y-56780272D01*
X64670184Y-56782043D01*
X64529414Y-56854700D01*
X64410039Y-56958838D01*
X64318950Y-57088444D01*
X64261406Y-57236037D01*
X64240729Y-57393096D01*
X63058472Y-57393096D01*
X63040276Y-57242733D01*
X62984280Y-57094546D01*
X62894553Y-56963992D01*
X62776275Y-56858611D01*
X62768889Y-56854700D01*
X62642988Y-56788039D01*
X62642989Y-56788039D01*
X62636274Y-56784484D01*
X62482633Y-56745892D01*
X62475034Y-56745852D01*
X62475033Y-56745852D01*
X62409181Y-56745507D01*
X62324221Y-56745062D01*
X62316841Y-56746834D01*
X62316839Y-56746834D01*
X62177563Y-56780271D01*
X62177560Y-56780272D01*
X62170184Y-56782043D01*
X62029414Y-56854700D01*
X61910039Y-56958838D01*
X61818950Y-57088444D01*
X61761406Y-57236037D01*
X61740729Y-57393096D01*
X60458472Y-57393096D01*
X60440276Y-57242733D01*
X60384280Y-57094546D01*
X60294553Y-56963992D01*
X60176275Y-56858611D01*
X60168889Y-56854700D01*
X60042988Y-56788039D01*
X60042989Y-56788039D01*
X60036274Y-56784484D01*
X59882633Y-56745892D01*
X59875034Y-56745852D01*
X59875033Y-56745852D01*
X59809181Y-56745507D01*
X59724221Y-56745062D01*
X59716841Y-56746834D01*
X59716839Y-56746834D01*
X59577563Y-56780271D01*
X59577560Y-56780272D01*
X59570184Y-56782043D01*
X59429414Y-56854700D01*
X59310039Y-56958838D01*
X59218950Y-57088444D01*
X59161406Y-57236037D01*
X59140729Y-57393096D01*
X57958472Y-57393096D01*
X57940276Y-57242733D01*
X57884280Y-57094546D01*
X57794553Y-56963992D01*
X57676275Y-56858611D01*
X57668889Y-56854700D01*
X57542988Y-56788039D01*
X57542989Y-56788039D01*
X57536274Y-56784484D01*
X57382633Y-56745892D01*
X57375034Y-56745852D01*
X57375033Y-56745852D01*
X57309181Y-56745507D01*
X57224221Y-56745062D01*
X57216841Y-56746834D01*
X57216839Y-56746834D01*
X57077563Y-56780271D01*
X57077560Y-56780272D01*
X57070184Y-56782043D01*
X56929414Y-56854700D01*
X56810039Y-56958838D01*
X56718950Y-57088444D01*
X56661406Y-57236037D01*
X56640729Y-57393096D01*
X55458472Y-57393096D01*
X55440276Y-57242733D01*
X55384280Y-57094546D01*
X55294553Y-56963992D01*
X55176275Y-56858611D01*
X55168889Y-56854700D01*
X55042988Y-56788039D01*
X55042989Y-56788039D01*
X55036274Y-56784484D01*
X54882633Y-56745892D01*
X54875034Y-56745852D01*
X54875033Y-56745852D01*
X54809181Y-56745507D01*
X54724221Y-56745062D01*
X54716841Y-56746834D01*
X54716839Y-56746834D01*
X54577563Y-56780271D01*
X54577560Y-56780272D01*
X54570184Y-56782043D01*
X54429414Y-56854700D01*
X54310039Y-56958838D01*
X54218950Y-57088444D01*
X54161406Y-57236037D01*
X54140729Y-57393096D01*
X52858472Y-57393096D01*
X52840276Y-57242733D01*
X52784280Y-57094546D01*
X52694553Y-56963992D01*
X52576275Y-56858611D01*
X52568889Y-56854700D01*
X52442988Y-56788039D01*
X52442989Y-56788039D01*
X52436274Y-56784484D01*
X52282633Y-56745892D01*
X52275034Y-56745852D01*
X52275033Y-56745852D01*
X52209181Y-56745507D01*
X52124221Y-56745062D01*
X52116841Y-56746834D01*
X52116839Y-56746834D01*
X51977563Y-56780271D01*
X51977560Y-56780272D01*
X51970184Y-56782043D01*
X51829414Y-56854700D01*
X51710039Y-56958838D01*
X51618950Y-57088444D01*
X51561406Y-57236037D01*
X51540729Y-57393096D01*
X47858472Y-57393096D01*
X47840276Y-57242733D01*
X47784280Y-57094546D01*
X47694553Y-56963992D01*
X47576275Y-56858611D01*
X47568889Y-56854700D01*
X47442988Y-56788039D01*
X47442989Y-56788039D01*
X47436274Y-56784484D01*
X47282633Y-56745892D01*
X47275034Y-56745852D01*
X47275033Y-56745852D01*
X47209181Y-56745507D01*
X47124221Y-56745062D01*
X47116841Y-56746834D01*
X47116839Y-56746834D01*
X46977563Y-56780271D01*
X46977560Y-56780272D01*
X46970184Y-56782043D01*
X46829414Y-56854700D01*
X46710039Y-56958838D01*
X46618950Y-57088444D01*
X46561406Y-57236037D01*
X46540729Y-57393096D01*
X45258472Y-57393096D01*
X45240276Y-57242733D01*
X45184280Y-57094546D01*
X45094553Y-56963992D01*
X44976275Y-56858611D01*
X44968889Y-56854700D01*
X44842988Y-56788039D01*
X44842989Y-56788039D01*
X44836274Y-56784484D01*
X44682633Y-56745892D01*
X44675034Y-56745852D01*
X44675033Y-56745852D01*
X44609181Y-56745507D01*
X44524221Y-56745062D01*
X44516841Y-56746834D01*
X44516839Y-56746834D01*
X44377563Y-56780271D01*
X44377560Y-56780272D01*
X44370184Y-56782043D01*
X44229414Y-56854700D01*
X44110039Y-56958838D01*
X44018950Y-57088444D01*
X43961406Y-57236037D01*
X43940729Y-57393096D01*
X42658472Y-57393096D01*
X42640276Y-57242733D01*
X42584280Y-57094546D01*
X42494553Y-56963992D01*
X42376275Y-56858611D01*
X42368889Y-56854700D01*
X42242988Y-56788039D01*
X42242989Y-56788039D01*
X42236274Y-56784484D01*
X42082633Y-56745892D01*
X42075034Y-56745852D01*
X42075033Y-56745852D01*
X42009181Y-56745507D01*
X41924221Y-56745062D01*
X41916841Y-56746834D01*
X41916839Y-56746834D01*
X41777563Y-56780271D01*
X41777560Y-56780272D01*
X41770184Y-56782043D01*
X41629414Y-56854700D01*
X41510039Y-56958838D01*
X41418950Y-57088444D01*
X41361406Y-57236037D01*
X41340729Y-57393096D01*
X40158472Y-57393096D01*
X40140276Y-57242733D01*
X40084280Y-57094546D01*
X39994553Y-56963992D01*
X39876275Y-56858611D01*
X39868889Y-56854700D01*
X39742988Y-56788039D01*
X39742989Y-56788039D01*
X39736274Y-56784484D01*
X39582633Y-56745892D01*
X39575034Y-56745852D01*
X39575033Y-56745852D01*
X39509181Y-56745507D01*
X39424221Y-56745062D01*
X39416841Y-56746834D01*
X39416839Y-56746834D01*
X39277563Y-56780271D01*
X39277560Y-56780272D01*
X39270184Y-56782043D01*
X39129414Y-56854700D01*
X39010039Y-56958838D01*
X38918950Y-57088444D01*
X38861406Y-57236037D01*
X38840729Y-57393096D01*
X35158472Y-57393096D01*
X35140276Y-57242733D01*
X35084280Y-57094546D01*
X34994553Y-56963992D01*
X34876275Y-56858611D01*
X34868889Y-56854700D01*
X34742988Y-56788039D01*
X34742989Y-56788039D01*
X34736274Y-56784484D01*
X34582633Y-56745892D01*
X34575034Y-56745852D01*
X34575033Y-56745852D01*
X34509181Y-56745507D01*
X34424221Y-56745062D01*
X34416841Y-56746834D01*
X34416839Y-56746834D01*
X34277563Y-56780271D01*
X34277560Y-56780272D01*
X34270184Y-56782043D01*
X34129414Y-56854700D01*
X34010039Y-56958838D01*
X33918950Y-57088444D01*
X33861406Y-57236037D01*
X33840729Y-57393096D01*
X32558472Y-57393096D01*
X32540276Y-57242733D01*
X32484280Y-57094546D01*
X32394553Y-56963992D01*
X32276275Y-56858611D01*
X32268889Y-56854700D01*
X32142988Y-56788039D01*
X32142989Y-56788039D01*
X32136274Y-56784484D01*
X31982633Y-56745892D01*
X31975034Y-56745852D01*
X31975033Y-56745852D01*
X31909181Y-56745507D01*
X31824221Y-56745062D01*
X31816841Y-56746834D01*
X31816839Y-56746834D01*
X31677563Y-56780271D01*
X31677560Y-56780272D01*
X31670184Y-56782043D01*
X31529414Y-56854700D01*
X31410039Y-56958838D01*
X31318950Y-57088444D01*
X31261406Y-57236037D01*
X31240729Y-57393096D01*
X30254000Y-57393096D01*
X30254000Y-52694649D01*
X30895951Y-52694649D01*
X30896329Y-52700415D01*
X30902934Y-52801182D01*
X30903138Y-52808966D01*
X30903209Y-52809867D01*
X30903133Y-52815654D01*
X30904113Y-52821354D01*
X30904566Y-52827113D01*
X30904519Y-52827117D01*
X30904777Y-52829301D01*
X30909829Y-52906377D01*
X30911252Y-52911979D01*
X30936105Y-53009841D01*
X30937733Y-53017497D01*
X30937963Y-53018357D01*
X30938941Y-53024047D01*
X30940941Y-53029467D01*
X30942435Y-53035044D01*
X30942390Y-53035056D01*
X30943043Y-53037160D01*
X30962058Y-53112031D01*
X30968572Y-53126160D01*
X31006754Y-53208985D01*
X31009741Y-53216194D01*
X31010126Y-53217002D01*
X31012127Y-53222425D01*
X31015082Y-53227392D01*
X31017570Y-53232607D01*
X31017528Y-53232627D01*
X31018551Y-53234572D01*
X31050890Y-53304723D01*
X31106626Y-53383586D01*
X31112505Y-53391905D01*
X31116757Y-53398454D01*
X31117288Y-53399185D01*
X31120238Y-53404144D01*
X31124044Y-53408484D01*
X31127444Y-53413164D01*
X31127406Y-53413191D01*
X31128762Y-53414910D01*
X31170014Y-53473281D01*
X31170019Y-53473287D01*
X31173350Y-53478000D01*
X31177486Y-53482029D01*
X31249826Y-53552500D01*
X31255198Y-53558160D01*
X31255842Y-53558771D01*
X31259655Y-53563119D01*
X31264195Y-53566698D01*
X31268384Y-53570673D01*
X31268352Y-53570707D01*
X31270005Y-53572157D01*
X31325337Y-53626059D01*
X31330133Y-53629264D01*
X31330136Y-53629266D01*
X31414107Y-53685373D01*
X31420415Y-53689956D01*
X31421169Y-53690446D01*
X31425708Y-53694024D01*
X31430820Y-53696713D01*
X31435666Y-53699861D01*
X31435640Y-53699900D01*
X31437528Y-53701023D01*
X31501760Y-53743941D01*
X31507064Y-53746220D01*
X31507070Y-53746223D01*
X31599864Y-53786090D01*
X31606884Y-53789439D01*
X31607721Y-53789786D01*
X31612836Y-53792477D01*
X31618352Y-53794190D01*
X31623695Y-53796403D01*
X31623677Y-53796446D01*
X31625732Y-53797204D01*
X31691404Y-53825419D01*
X31696711Y-53827699D01*
X31797715Y-53850554D01*
X31800844Y-53851262D01*
X31808385Y-53853283D01*
X31809266Y-53853470D01*
X31814773Y-53855180D01*
X31820502Y-53855858D01*
X31826155Y-53857060D01*
X31826145Y-53857105D01*
X31828317Y-53857479D01*
X31898022Y-53873251D01*
X31898024Y-53873251D01*
X31903662Y-53874527D01*
X31909436Y-53874754D01*
X31909437Y-53874754D01*
X31953168Y-53876472D01*
X32115681Y-53882857D01*
X32220674Y-53867634D01*
X32319953Y-53853239D01*
X32319958Y-53853238D01*
X32325667Y-53852410D01*
X32331131Y-53850555D01*
X32331136Y-53850554D01*
X32424240Y-53818949D01*
X32526589Y-53784207D01*
X32531632Y-53781383D01*
X32706670Y-53683357D01*
X32706674Y-53683354D01*
X32711717Y-53680530D01*
X32874852Y-53544852D01*
X33010530Y-53381717D01*
X33013354Y-53376674D01*
X33013357Y-53376670D01*
X33111383Y-53201632D01*
X33111384Y-53201630D01*
X33114207Y-53196589D01*
X33164952Y-53047098D01*
X33180554Y-53001136D01*
X33180555Y-53001131D01*
X33182410Y-52995667D01*
X33187695Y-52959223D01*
X33206849Y-52827117D01*
X33212857Y-52785681D01*
X33214446Y-52725000D01*
X33207378Y-52648080D01*
X33207291Y-52645880D01*
X33207244Y-52645884D01*
X33206791Y-52640127D01*
X33206867Y-52634346D01*
X33205888Y-52628646D01*
X33205817Y-52627749D01*
X33204800Y-52620019D01*
X33195560Y-52519462D01*
X33195559Y-52519459D01*
X33195031Y-52513708D01*
X33186053Y-52481873D01*
X33174064Y-52439366D01*
X33173576Y-52437212D01*
X33173531Y-52437224D01*
X33172037Y-52431647D01*
X33171059Y-52425953D01*
X33169061Y-52420537D01*
X33168829Y-52419671D01*
X33166412Y-52412232D01*
X33166038Y-52410907D01*
X34075738Y-52410907D01*
X34076254Y-52417051D01*
X34080735Y-52470418D01*
X34079981Y-52470481D01*
X34080616Y-52472689D01*
X34080541Y-52474126D01*
X34081494Y-52480430D01*
X34081565Y-52481873D01*
X34082027Y-52485798D01*
X34092222Y-52607209D01*
X34097310Y-52624953D01*
X34110094Y-52669535D01*
X34109414Y-52669730D01*
X34110423Y-52671710D01*
X34110935Y-52675097D01*
X34113137Y-52681084D01*
X34113296Y-52681702D01*
X34115624Y-52688823D01*
X34146521Y-52796570D01*
X34175851Y-52853640D01*
X34177003Y-52855940D01*
X34178914Y-52859858D01*
X34181119Y-52865852D01*
X34184484Y-52871279D01*
X34184561Y-52871437D01*
X34189321Y-52879850D01*
X34225245Y-52949750D01*
X34236566Y-52971779D01*
X34240392Y-52976606D01*
X34279036Y-53025362D01*
X34281010Y-53028172D01*
X34284864Y-53033176D01*
X34288226Y-53038599D01*
X34292615Y-53043240D01*
X34292701Y-53043352D01*
X34299678Y-53051407D01*
X34358927Y-53126160D01*
X34415737Y-53174510D01*
X34420819Y-53179332D01*
X34423493Y-53181640D01*
X34427881Y-53186280D01*
X34433107Y-53189939D01*
X34433570Y-53190339D01*
X34441926Y-53196799D01*
X34504247Y-53249838D01*
X34504255Y-53249844D01*
X34508945Y-53253835D01*
X34514323Y-53256841D01*
X34514325Y-53256842D01*
X34579738Y-53293400D01*
X34587654Y-53298366D01*
X34589153Y-53299204D01*
X34594379Y-53302863D01*
X34600239Y-53305399D01*
X34601732Y-53306233D01*
X34610099Y-53310368D01*
X34675526Y-53346935D01*
X34675532Y-53346937D01*
X34680904Y-53349940D01*
X34735588Y-53367708D01*
X34764607Y-53377137D01*
X34774469Y-53380863D01*
X34775058Y-53381050D01*
X34780919Y-53383586D01*
X34787174Y-53384892D01*
X34790559Y-53385966D01*
X34797311Y-53387762D01*
X34868255Y-53410814D01*
X34874368Y-53411543D01*
X34962981Y-53422110D01*
X34973815Y-53423884D01*
X34979880Y-53425151D01*
X34984712Y-53425404D01*
X34984718Y-53425405D01*
X34984873Y-53425413D01*
X34984885Y-53425413D01*
X34986539Y-53425500D01*
X34987108Y-53425500D01*
X34998105Y-53426298D01*
X35063862Y-53434139D01*
X35069997Y-53433667D01*
X35069999Y-53433667D01*
X35129801Y-53429065D01*
X35260274Y-53419026D01*
X35450009Y-53366050D01*
X35455513Y-53363270D01*
X35620341Y-53280010D01*
X35620343Y-53280009D01*
X35625842Y-53277231D01*
X35781074Y-53155950D01*
X35785100Y-53151286D01*
X35785103Y-53151283D01*
X35885427Y-53035056D01*
X35909793Y-53006828D01*
X35913027Y-53001136D01*
X35936836Y-52959223D01*
X35937511Y-52959606D01*
X35938071Y-52957937D01*
X35937885Y-52957845D01*
X35937990Y-52957632D01*
X35938489Y-52956690D01*
X35938566Y-52956459D01*
X35939601Y-52954357D01*
X36007096Y-52835544D01*
X36025945Y-52778882D01*
X36026663Y-52779121D01*
X36026951Y-52776837D01*
X36027587Y-52775545D01*
X36029196Y-52769368D01*
X36029694Y-52768030D01*
X36030827Y-52764208D01*
X36067331Y-52654473D01*
X36067332Y-52654470D01*
X36069277Y-52648622D01*
X36077402Y-52584303D01*
X36078160Y-52584399D01*
X36077972Y-52582115D01*
X36078822Y-52578852D01*
X36079156Y-52572476D01*
X36079253Y-52571849D01*
X36079921Y-52564362D01*
X36089356Y-52489675D01*
X36093966Y-52453183D01*
X36094360Y-52425000D01*
X36075137Y-52228948D01*
X36059311Y-52176530D01*
X36060050Y-52176307D01*
X36059351Y-52174983D01*
X36059125Y-52175066D01*
X36059050Y-52174863D01*
X36058636Y-52173630D01*
X36058506Y-52173384D01*
X36057699Y-52171190D01*
X36018200Y-52040363D01*
X36008234Y-52021619D01*
X35990164Y-51987636D01*
X35990841Y-51987276D01*
X35989373Y-51985485D01*
X35988881Y-51984148D01*
X35985514Y-51978718D01*
X35984884Y-51977426D01*
X35982908Y-51973989D01*
X35928613Y-51871875D01*
X35928612Y-51871873D01*
X35925717Y-51866429D01*
X35884743Y-51816190D01*
X35885310Y-51815727D01*
X35883568Y-51814294D01*
X35881774Y-51811401D01*
X35877386Y-51806761D01*
X35877007Y-51806268D01*
X35872052Y-51800626D01*
X35805113Y-51718551D01*
X35805104Y-51718541D01*
X35801212Y-51713770D01*
X35796463Y-51709841D01*
X35776222Y-51693096D01*
X46440729Y-51693096D01*
X46448409Y-51762658D01*
X46454016Y-51813441D01*
X46458113Y-51850553D01*
X46460723Y-51857684D01*
X46460723Y-51857686D01*
X46508278Y-51987636D01*
X46512553Y-51999319D01*
X46516789Y-52005622D01*
X46516789Y-52005623D01*
X46551515Y-52057300D01*
X46600908Y-52130805D01*
X46606527Y-52135918D01*
X46606528Y-52135919D01*
X46708766Y-52228948D01*
X46718076Y-52237419D01*
X46857293Y-52313008D01*
X47010522Y-52353207D01*
X47094477Y-52354526D01*
X47161319Y-52355576D01*
X47161322Y-52355576D01*
X47168916Y-52355695D01*
X47323332Y-52320329D01*
X47402790Y-52280366D01*
X47458072Y-52252563D01*
X47458075Y-52252561D01*
X47464855Y-52249151D01*
X47470626Y-52244222D01*
X47470629Y-52244220D01*
X47579536Y-52151204D01*
X47579536Y-52151203D01*
X47585314Y-52146269D01*
X47677755Y-52017624D01*
X47736842Y-51870641D01*
X47744657Y-51815727D01*
X47758581Y-51717891D01*
X47758581Y-51717888D01*
X47759162Y-51713807D01*
X47759307Y-51700000D01*
X47740276Y-51542733D01*
X47684280Y-51394546D01*
X47594553Y-51263992D01*
X47476275Y-51158611D01*
X47468889Y-51154700D01*
X47342988Y-51088039D01*
X47342989Y-51088039D01*
X47336274Y-51084484D01*
X47182633Y-51045892D01*
X47175034Y-51045852D01*
X47175033Y-51045852D01*
X47109181Y-51045507D01*
X47024221Y-51045062D01*
X47016841Y-51046834D01*
X47016839Y-51046834D01*
X46877563Y-51080271D01*
X46877560Y-51080272D01*
X46870184Y-51082043D01*
X46729414Y-51154700D01*
X46610039Y-51258838D01*
X46518950Y-51388444D01*
X46461406Y-51536037D01*
X46460414Y-51543570D01*
X46460414Y-51543571D01*
X46442262Y-51681455D01*
X46440729Y-51693096D01*
X35776222Y-51693096D01*
X35751817Y-51672907D01*
X35749798Y-51671201D01*
X35746504Y-51668357D01*
X35742119Y-51663720D01*
X35736893Y-51660060D01*
X35736764Y-51659949D01*
X35729063Y-51654083D01*
X35719672Y-51646314D01*
X35649427Y-51588203D01*
X35644007Y-51585273D01*
X35644002Y-51585269D01*
X35589274Y-51555678D01*
X35586375Y-51553887D01*
X35580853Y-51550801D01*
X35575621Y-51547137D01*
X35569762Y-51544602D01*
X35569630Y-51544528D01*
X35560037Y-51539870D01*
X35539854Y-51528957D01*
X35476143Y-51494508D01*
X35404890Y-51472452D01*
X35398321Y-51470022D01*
X35394936Y-51468948D01*
X35389081Y-51466414D01*
X35382838Y-51465110D01*
X35382253Y-51464924D01*
X35372043Y-51462284D01*
X35287960Y-51436256D01*
X35281838Y-51435613D01*
X35281835Y-51435612D01*
X35207293Y-51427778D01*
X35195174Y-51425880D01*
X35194857Y-51425839D01*
X35190120Y-51424849D01*
X35185215Y-51424592D01*
X35185129Y-51424587D01*
X35185113Y-51424587D01*
X35183461Y-51424500D01*
X35181802Y-51424500D01*
X35180157Y-51424457D01*
X35180159Y-51424366D01*
X35169543Y-51423810D01*
X35098176Y-51416309D01*
X35098174Y-51416309D01*
X35092047Y-51415665D01*
X35010018Y-51423130D01*
X34902004Y-51432960D01*
X34902001Y-51432961D01*
X34895865Y-51433519D01*
X34889959Y-51435257D01*
X34889955Y-51435258D01*
X34792166Y-51464039D01*
X34706887Y-51489138D01*
X34701427Y-51491992D01*
X34701428Y-51491992D01*
X34537772Y-51577549D01*
X34537768Y-51577552D01*
X34532312Y-51580404D01*
X34527512Y-51584264D01*
X34527511Y-51584264D01*
X34388673Y-51695892D01*
X34378788Y-51703840D01*
X34252163Y-51854745D01*
X34248367Y-51861650D01*
X34166498Y-52010571D01*
X34157262Y-52027371D01*
X34155398Y-52033246D01*
X34155397Y-52033249D01*
X34122828Y-52135919D01*
X34097697Y-52215142D01*
X34091594Y-52269551D01*
X34090821Y-52269464D01*
X34090943Y-52270956D01*
X34091187Y-52270968D01*
X34091175Y-52271203D01*
X34091069Y-52272504D01*
X34091092Y-52272786D01*
X34090970Y-52275110D01*
X34075738Y-52410907D01*
X33166038Y-52410907D01*
X33139004Y-52315051D01*
X33139003Y-52315049D01*
X33137436Y-52309492D01*
X33120345Y-52274833D01*
X33103272Y-52240213D01*
X33102401Y-52238186D01*
X33102359Y-52238206D01*
X33099872Y-52232992D01*
X33097873Y-52227575D01*
X33094919Y-52222609D01*
X33094529Y-52221792D01*
X33090812Y-52214947D01*
X33046144Y-52124370D01*
X33043590Y-52119191D01*
X32997374Y-52057300D01*
X32996151Y-52055470D01*
X32996113Y-52055497D01*
X32992717Y-52050822D01*
X32989762Y-52045856D01*
X32985951Y-52041511D01*
X32985424Y-52040785D01*
X32980515Y-52034723D01*
X32920089Y-51953803D01*
X32920088Y-51953802D01*
X32916636Y-51949179D01*
X32859918Y-51896750D01*
X32858379Y-51895171D01*
X32858347Y-51895205D01*
X32854159Y-51891231D01*
X32850345Y-51886881D01*
X32845801Y-51883299D01*
X32845153Y-51882684D01*
X32839223Y-51877619D01*
X32765067Y-51809070D01*
X32765065Y-51809068D01*
X32760826Y-51805150D01*
X32755942Y-51802069D01*
X32755935Y-51802063D01*
X32695491Y-51763925D01*
X32693697Y-51762658D01*
X32693672Y-51762697D01*
X32688825Y-51759549D01*
X32684292Y-51755976D01*
X32679185Y-51753289D01*
X32678438Y-51752804D01*
X32671667Y-51748895D01*
X32669444Y-51747492D01*
X32581377Y-51691926D01*
X32509627Y-51663301D01*
X32507630Y-51662380D01*
X32507612Y-51662423D01*
X32502275Y-51660212D01*
X32497164Y-51657523D01*
X32491653Y-51655812D01*
X32490816Y-51655465D01*
X32483461Y-51652861D01*
X32389664Y-51615440D01*
X32384300Y-51613300D01*
X32378637Y-51612174D01*
X32378635Y-51612173D01*
X32308540Y-51598231D01*
X32306412Y-51597690D01*
X32306402Y-51597736D01*
X32300747Y-51596534D01*
X32295227Y-51594820D01*
X32289482Y-51594140D01*
X32288610Y-51593955D01*
X32280911Y-51592736D01*
X32176195Y-51571906D01*
X32170421Y-51571830D01*
X32170417Y-51571830D01*
X32061874Y-51570409D01*
X31964031Y-51569128D01*
X31958334Y-51570107D01*
X31958333Y-51570107D01*
X31858805Y-51587209D01*
X31851076Y-51588227D01*
X31850197Y-51588390D01*
X31844440Y-51588919D01*
X31838878Y-51590488D01*
X31833204Y-51591539D01*
X31833195Y-51591492D01*
X31831060Y-51591976D01*
X31754913Y-51605061D01*
X31749487Y-51607063D01*
X31749486Y-51607063D01*
X31654751Y-51642012D01*
X31647327Y-51644425D01*
X31646491Y-51644746D01*
X31640931Y-51646314D01*
X31635749Y-51648869D01*
X31630364Y-51650936D01*
X31630347Y-51650893D01*
X31628329Y-51651760D01*
X31561258Y-51676504D01*
X31561255Y-51676506D01*
X31555846Y-51678501D01*
X31550884Y-51681453D01*
X31550880Y-51681455D01*
X31464095Y-51733086D01*
X31457249Y-51736804D01*
X31456478Y-51737277D01*
X31451290Y-51739835D01*
X31446655Y-51743296D01*
X31441736Y-51746311D01*
X31441711Y-51746270D01*
X31439885Y-51747490D01*
X31373495Y-51786988D01*
X31293222Y-51857386D01*
X31287154Y-51862300D01*
X31286495Y-51862893D01*
X31281867Y-51866349D01*
X31277948Y-51870589D01*
X31273651Y-51874457D01*
X31273620Y-51874423D01*
X31272043Y-51875959D01*
X31218313Y-51923079D01*
X31218310Y-51923082D01*
X31213968Y-51926890D01*
X31166080Y-51987636D01*
X31147874Y-52010730D01*
X31142804Y-52016666D01*
X31142258Y-52017377D01*
X31138337Y-52021619D01*
X31135255Y-52026503D01*
X31131737Y-52031088D01*
X31131700Y-52031060D01*
X31130434Y-52032852D01*
X31082607Y-52093520D01*
X31079917Y-52098633D01*
X31032896Y-52188004D01*
X31028993Y-52194765D01*
X31028588Y-52195560D01*
X31025505Y-52200446D01*
X31023364Y-52205814D01*
X31020742Y-52210959D01*
X31020700Y-52210938D01*
X31019782Y-52212931D01*
X30983812Y-52281299D01*
X30961239Y-52353999D01*
X30952154Y-52383257D01*
X30949553Y-52390599D01*
X30949295Y-52391468D01*
X30947152Y-52396840D01*
X30946023Y-52402514D01*
X30944384Y-52408047D01*
X30944340Y-52408034D01*
X30943799Y-52410161D01*
X30925089Y-52470418D01*
X30920891Y-52483938D01*
X30920212Y-52489675D01*
X30908341Y-52589968D01*
X30907122Y-52597667D01*
X30907028Y-52598560D01*
X30905901Y-52604225D01*
X30905825Y-52610000D01*
X30905221Y-52615745D01*
X30905175Y-52615740D01*
X30905032Y-52617922D01*
X30895951Y-52694649D01*
X30254000Y-52694649D01*
X30254000Y-49293096D01*
X51540729Y-49293096D01*
X51558113Y-49450553D01*
X51612553Y-49599319D01*
X51700908Y-49730805D01*
X51706527Y-49735918D01*
X51706528Y-49735919D01*
X51717903Y-49746269D01*
X51818076Y-49837419D01*
X51957293Y-49913008D01*
X52110522Y-49953207D01*
X52194477Y-49954526D01*
X52261319Y-49955576D01*
X52261322Y-49955576D01*
X52268916Y-49955695D01*
X52423332Y-49920329D01*
X52493742Y-49884917D01*
X52558072Y-49852563D01*
X52558075Y-49852561D01*
X52564855Y-49849151D01*
X52570626Y-49844222D01*
X52570629Y-49844220D01*
X52679536Y-49751204D01*
X52679536Y-49751203D01*
X52685314Y-49746269D01*
X52777755Y-49617624D01*
X52836842Y-49470641D01*
X52859162Y-49313807D01*
X52859307Y-49300000D01*
X52840276Y-49142733D01*
X52784280Y-48994546D01*
X52694553Y-48863992D01*
X52576275Y-48758611D01*
X52568889Y-48754700D01*
X52442988Y-48688039D01*
X52442989Y-48688039D01*
X52436274Y-48684484D01*
X52282633Y-48645892D01*
X52275034Y-48645852D01*
X52275033Y-48645852D01*
X52209181Y-48645507D01*
X52124221Y-48645062D01*
X52116841Y-48646834D01*
X52116839Y-48646834D01*
X51977563Y-48680271D01*
X51977560Y-48680272D01*
X51970184Y-48682043D01*
X51829414Y-48754700D01*
X51710039Y-48858838D01*
X51618950Y-48988444D01*
X51561406Y-49136037D01*
X51540729Y-49293096D01*
X30254000Y-49293096D01*
X30254000Y-47244649D01*
X30895951Y-47244649D01*
X30896329Y-47250415D01*
X30902934Y-47351182D01*
X30903138Y-47358966D01*
X30903209Y-47359867D01*
X30903133Y-47365654D01*
X30904113Y-47371354D01*
X30904566Y-47377113D01*
X30904519Y-47377117D01*
X30904777Y-47379301D01*
X30907780Y-47425110D01*
X30909829Y-47456377D01*
X30911252Y-47461979D01*
X30936105Y-47559841D01*
X30937733Y-47567497D01*
X30937963Y-47568357D01*
X30938941Y-47574047D01*
X30940941Y-47579467D01*
X30942435Y-47585044D01*
X30942390Y-47585056D01*
X30943043Y-47587160D01*
X30962058Y-47662031D01*
X30964477Y-47667278D01*
X31006754Y-47758985D01*
X31009741Y-47766194D01*
X31010126Y-47767002D01*
X31012127Y-47772425D01*
X31015082Y-47777392D01*
X31017570Y-47782607D01*
X31017528Y-47782627D01*
X31018551Y-47784572D01*
X31050890Y-47854723D01*
X31100324Y-47924669D01*
X31112505Y-47941905D01*
X31116757Y-47948454D01*
X31117288Y-47949185D01*
X31120238Y-47954144D01*
X31124044Y-47958484D01*
X31127444Y-47963164D01*
X31127406Y-47963191D01*
X31128762Y-47964910D01*
X31170014Y-48023281D01*
X31170019Y-48023287D01*
X31173350Y-48028000D01*
X31177486Y-48032029D01*
X31249826Y-48102500D01*
X31255198Y-48108160D01*
X31255842Y-48108771D01*
X31259655Y-48113119D01*
X31264195Y-48116698D01*
X31268384Y-48120673D01*
X31268352Y-48120707D01*
X31270005Y-48122157D01*
X31321203Y-48172032D01*
X31325337Y-48176059D01*
X31330133Y-48179264D01*
X31330136Y-48179266D01*
X31414107Y-48235373D01*
X31420415Y-48239956D01*
X31421169Y-48240446D01*
X31425708Y-48244024D01*
X31430820Y-48246713D01*
X31435666Y-48249861D01*
X31435640Y-48249900D01*
X31437528Y-48251023D01*
X31501760Y-48293941D01*
X31507064Y-48296220D01*
X31507070Y-48296223D01*
X31599864Y-48336090D01*
X31606884Y-48339439D01*
X31607721Y-48339786D01*
X31612836Y-48342477D01*
X31618352Y-48344190D01*
X31623695Y-48346403D01*
X31623677Y-48346446D01*
X31625732Y-48347204D01*
X31691404Y-48375419D01*
X31696711Y-48377699D01*
X31794551Y-48399838D01*
X31800844Y-48401262D01*
X31808385Y-48403283D01*
X31809266Y-48403470D01*
X31814773Y-48405180D01*
X31820502Y-48405858D01*
X31826155Y-48407060D01*
X31826145Y-48407105D01*
X31828317Y-48407479D01*
X31898022Y-48423251D01*
X31898024Y-48423251D01*
X31903662Y-48424527D01*
X31909436Y-48424754D01*
X31909437Y-48424754D01*
X31953168Y-48426472D01*
X32115681Y-48432857D01*
X32220674Y-48417633D01*
X32319953Y-48403239D01*
X32319958Y-48403238D01*
X32325667Y-48402410D01*
X32331131Y-48400555D01*
X32331136Y-48400554D01*
X32424240Y-48368949D01*
X32526589Y-48334207D01*
X32536021Y-48328925D01*
X32706670Y-48233357D01*
X32706674Y-48233354D01*
X32711717Y-48230530D01*
X32874852Y-48094852D01*
X33010530Y-47931717D01*
X33013354Y-47926674D01*
X33013357Y-47926670D01*
X33111383Y-47751632D01*
X33111384Y-47751630D01*
X33114207Y-47746589D01*
X33168325Y-47587162D01*
X33177237Y-47560907D01*
X34075738Y-47560907D01*
X34076254Y-47567051D01*
X34080735Y-47620418D01*
X34079981Y-47620481D01*
X34080616Y-47622689D01*
X34080541Y-47624126D01*
X34081494Y-47630430D01*
X34081565Y-47631873D01*
X34082027Y-47635798D01*
X34092222Y-47757209D01*
X34098348Y-47778571D01*
X34110094Y-47819535D01*
X34109414Y-47819730D01*
X34110423Y-47821710D01*
X34110935Y-47825097D01*
X34113137Y-47831084D01*
X34113296Y-47831702D01*
X34115624Y-47838823D01*
X34121538Y-47859446D01*
X34146521Y-47946570D01*
X34175851Y-48003640D01*
X34177003Y-48005940D01*
X34178914Y-48009858D01*
X34181119Y-48015852D01*
X34184484Y-48021279D01*
X34184561Y-48021437D01*
X34189321Y-48029850D01*
X34225245Y-48099750D01*
X34236566Y-48121779D01*
X34276397Y-48172032D01*
X34279036Y-48175362D01*
X34281010Y-48178172D01*
X34284864Y-48183176D01*
X34288226Y-48188599D01*
X34292615Y-48193240D01*
X34292701Y-48193352D01*
X34299678Y-48201407D01*
X34339005Y-48251025D01*
X34358927Y-48276160D01*
X34415737Y-48324510D01*
X34420819Y-48329332D01*
X34423493Y-48331640D01*
X34427881Y-48336280D01*
X34433107Y-48339939D01*
X34433570Y-48340339D01*
X34441926Y-48346799D01*
X34504247Y-48399838D01*
X34504255Y-48399844D01*
X34508945Y-48403835D01*
X34514323Y-48406841D01*
X34514325Y-48406842D01*
X34579738Y-48443400D01*
X34587654Y-48448366D01*
X34589153Y-48449204D01*
X34594379Y-48452863D01*
X34600239Y-48455399D01*
X34601732Y-48456233D01*
X34610099Y-48460368D01*
X34675526Y-48496935D01*
X34675532Y-48496937D01*
X34680904Y-48499940D01*
X34735588Y-48517708D01*
X34764607Y-48527137D01*
X34774469Y-48530863D01*
X34775058Y-48531050D01*
X34780919Y-48533586D01*
X34787174Y-48534892D01*
X34790559Y-48535966D01*
X34797311Y-48537762D01*
X34868255Y-48560814D01*
X34874368Y-48561543D01*
X34962981Y-48572110D01*
X34973815Y-48573884D01*
X34979880Y-48575151D01*
X34984712Y-48575404D01*
X34984718Y-48575405D01*
X34984873Y-48575413D01*
X34984885Y-48575413D01*
X34986539Y-48575500D01*
X34987108Y-48575500D01*
X34998105Y-48576298D01*
X35063862Y-48584139D01*
X35069997Y-48583667D01*
X35069999Y-48583667D01*
X35129801Y-48579065D01*
X35260274Y-48569026D01*
X35450009Y-48516050D01*
X35455513Y-48513270D01*
X35620341Y-48430010D01*
X35620343Y-48430009D01*
X35625842Y-48427231D01*
X35781074Y-48305950D01*
X35785100Y-48301286D01*
X35785103Y-48301283D01*
X35905766Y-48161493D01*
X35909793Y-48156828D01*
X35936836Y-48109223D01*
X35937511Y-48109606D01*
X35938071Y-48107937D01*
X35937885Y-48107845D01*
X35937990Y-48107632D01*
X35938489Y-48106690D01*
X35938566Y-48106459D01*
X35939601Y-48104357D01*
X36007096Y-47985544D01*
X36025945Y-47928882D01*
X36026663Y-47929121D01*
X36026951Y-47926837D01*
X36027587Y-47925545D01*
X36029196Y-47919368D01*
X36029694Y-47918030D01*
X36030827Y-47914208D01*
X36067331Y-47804473D01*
X36067332Y-47804470D01*
X36069277Y-47798622D01*
X36077402Y-47734303D01*
X36078160Y-47734399D01*
X36077972Y-47732115D01*
X36078822Y-47728852D01*
X36079156Y-47722476D01*
X36079253Y-47721849D01*
X36079921Y-47714362D01*
X36087239Y-47656431D01*
X36093966Y-47603183D01*
X36094220Y-47585044D01*
X36094311Y-47578522D01*
X36094311Y-47578518D01*
X36094360Y-47575000D01*
X36075137Y-47378948D01*
X36059311Y-47326530D01*
X36060050Y-47326307D01*
X36059351Y-47324983D01*
X36059125Y-47325066D01*
X36059050Y-47324863D01*
X36058636Y-47323630D01*
X36058506Y-47323384D01*
X36057699Y-47321190D01*
X36018200Y-47190363D01*
X36005108Y-47165740D01*
X35990164Y-47137636D01*
X35990841Y-47137276D01*
X35989373Y-47135485D01*
X35988881Y-47134148D01*
X35985514Y-47128718D01*
X35984884Y-47127426D01*
X35982908Y-47123989D01*
X35928613Y-47021875D01*
X35928612Y-47021873D01*
X35925717Y-47016429D01*
X35884743Y-46966190D01*
X35885310Y-46965727D01*
X35883568Y-46964294D01*
X35881774Y-46961401D01*
X35877386Y-46956761D01*
X35877007Y-46956268D01*
X35872052Y-46950626D01*
X35805113Y-46868551D01*
X35805104Y-46868541D01*
X35801212Y-46863770D01*
X35794924Y-46858568D01*
X35751817Y-46822907D01*
X35749798Y-46821201D01*
X35746504Y-46818357D01*
X35742119Y-46813720D01*
X35736893Y-46810060D01*
X35736764Y-46809949D01*
X35729063Y-46804083D01*
X35709871Y-46788206D01*
X35649427Y-46738203D01*
X35644007Y-46735273D01*
X35644002Y-46735269D01*
X35589274Y-46705678D01*
X35586375Y-46703887D01*
X35580853Y-46700801D01*
X35575621Y-46697137D01*
X35569762Y-46694602D01*
X35569630Y-46694528D01*
X35560037Y-46689870D01*
X35547575Y-46683132D01*
X35476143Y-46644508D01*
X35404890Y-46622452D01*
X35398321Y-46620022D01*
X35394936Y-46618948D01*
X35389081Y-46616414D01*
X35382838Y-46615110D01*
X35382253Y-46614924D01*
X35372043Y-46612284D01*
X35287960Y-46586256D01*
X35281838Y-46585613D01*
X35281835Y-46585612D01*
X35207293Y-46577778D01*
X35195174Y-46575880D01*
X35194857Y-46575839D01*
X35190120Y-46574849D01*
X35185215Y-46574592D01*
X35185129Y-46574587D01*
X35185113Y-46574587D01*
X35183461Y-46574500D01*
X35181802Y-46574500D01*
X35180157Y-46574457D01*
X35180159Y-46574366D01*
X35169543Y-46573810D01*
X35098176Y-46566309D01*
X35098174Y-46566309D01*
X35092047Y-46565665D01*
X35026624Y-46571619D01*
X34902004Y-46582960D01*
X34902001Y-46582961D01*
X34895865Y-46583519D01*
X34889959Y-46585257D01*
X34889955Y-46585258D01*
X34792166Y-46614039D01*
X34706887Y-46639138D01*
X34701427Y-46641992D01*
X34701428Y-46641992D01*
X34537772Y-46727549D01*
X34537768Y-46727552D01*
X34532312Y-46730404D01*
X34527512Y-46734264D01*
X34527511Y-46734264D01*
X34428687Y-46813720D01*
X34378788Y-46853840D01*
X34252163Y-47004745D01*
X34249195Y-47010144D01*
X34161304Y-47170019D01*
X34157262Y-47177371D01*
X34155398Y-47183246D01*
X34155397Y-47183249D01*
X34137739Y-47238914D01*
X34097697Y-47365142D01*
X34091594Y-47419551D01*
X34090821Y-47419464D01*
X34090943Y-47420956D01*
X34091187Y-47420968D01*
X34091175Y-47421203D01*
X34091069Y-47422504D01*
X34091092Y-47422786D01*
X34090970Y-47425110D01*
X34075738Y-47560907D01*
X33177237Y-47560907D01*
X33180554Y-47551136D01*
X33180555Y-47551131D01*
X33182410Y-47545667D01*
X33194545Y-47461979D01*
X33206849Y-47377117D01*
X33212857Y-47335681D01*
X33214446Y-47275000D01*
X33207378Y-47198080D01*
X33207291Y-47195880D01*
X33207244Y-47195884D01*
X33206791Y-47190127D01*
X33206867Y-47184346D01*
X33205888Y-47178646D01*
X33205817Y-47177749D01*
X33204800Y-47170019D01*
X33195560Y-47069462D01*
X33195559Y-47069459D01*
X33195031Y-47063708D01*
X33174064Y-46989366D01*
X33173576Y-46987212D01*
X33173531Y-46987224D01*
X33172037Y-46981647D01*
X33171059Y-46975953D01*
X33169061Y-46970537D01*
X33168829Y-46969671D01*
X33166412Y-46962232D01*
X33139004Y-46865051D01*
X33139003Y-46865049D01*
X33137436Y-46859492D01*
X33118554Y-46821201D01*
X33103272Y-46790213D01*
X33102401Y-46788186D01*
X33102359Y-46788206D01*
X33099872Y-46782992D01*
X33097873Y-46777575D01*
X33094919Y-46772609D01*
X33094529Y-46771792D01*
X33090812Y-46764947D01*
X33046144Y-46674370D01*
X33043590Y-46669191D01*
X33006874Y-46620022D01*
X32997374Y-46607300D01*
X32996151Y-46605470D01*
X32996113Y-46605497D01*
X32992717Y-46600822D01*
X32989762Y-46595856D01*
X32985951Y-46591511D01*
X32985424Y-46590785D01*
X32980515Y-46584723D01*
X32920089Y-46503803D01*
X32920088Y-46503802D01*
X32916636Y-46499179D01*
X32859918Y-46446750D01*
X32858379Y-46445171D01*
X32858347Y-46445205D01*
X32854159Y-46441231D01*
X32850345Y-46436881D01*
X32845801Y-46433299D01*
X32845153Y-46432684D01*
X32839223Y-46427619D01*
X32765067Y-46359070D01*
X32765065Y-46359068D01*
X32760826Y-46355150D01*
X32755942Y-46352069D01*
X32755935Y-46352063D01*
X32695491Y-46313925D01*
X32693697Y-46312658D01*
X32693672Y-46312697D01*
X32688825Y-46309549D01*
X32684292Y-46305976D01*
X32679185Y-46303289D01*
X32678438Y-46302804D01*
X32671667Y-46298895D01*
X32669444Y-46297492D01*
X32581377Y-46241926D01*
X32509627Y-46213301D01*
X32507630Y-46212380D01*
X32507612Y-46212423D01*
X32502275Y-46210212D01*
X32497164Y-46207523D01*
X32491653Y-46205812D01*
X32490816Y-46205465D01*
X32483461Y-46202861D01*
X32389664Y-46165440D01*
X32384300Y-46163300D01*
X32378637Y-46162174D01*
X32378635Y-46162173D01*
X32308540Y-46148231D01*
X32306412Y-46147690D01*
X32306402Y-46147736D01*
X32300747Y-46146534D01*
X32295227Y-46144820D01*
X32289482Y-46144140D01*
X32288610Y-46143955D01*
X32280911Y-46142736D01*
X32176195Y-46121906D01*
X32170421Y-46121830D01*
X32170417Y-46121830D01*
X32061874Y-46120409D01*
X31964031Y-46119128D01*
X31958334Y-46120107D01*
X31958333Y-46120107D01*
X31858805Y-46137209D01*
X31851076Y-46138227D01*
X31850197Y-46138390D01*
X31844440Y-46138919D01*
X31838878Y-46140488D01*
X31833204Y-46141539D01*
X31833195Y-46141492D01*
X31831060Y-46141976D01*
X31754913Y-46155061D01*
X31749487Y-46157063D01*
X31749486Y-46157063D01*
X31654751Y-46192012D01*
X31647327Y-46194425D01*
X31646491Y-46194746D01*
X31640931Y-46196314D01*
X31635749Y-46198869D01*
X31630364Y-46200936D01*
X31630347Y-46200893D01*
X31628329Y-46201760D01*
X31561258Y-46226504D01*
X31561255Y-46226506D01*
X31555846Y-46228501D01*
X31550884Y-46231453D01*
X31550880Y-46231455D01*
X31464095Y-46283086D01*
X31457249Y-46286804D01*
X31456478Y-46287277D01*
X31451290Y-46289835D01*
X31446655Y-46293296D01*
X31441736Y-46296311D01*
X31441711Y-46296270D01*
X31439885Y-46297490D01*
X31373495Y-46336988D01*
X31293222Y-46407386D01*
X31287154Y-46412300D01*
X31286495Y-46412893D01*
X31281867Y-46416349D01*
X31277948Y-46420589D01*
X31273651Y-46424457D01*
X31273620Y-46424423D01*
X31272043Y-46425959D01*
X31218313Y-46473079D01*
X31218310Y-46473082D01*
X31213968Y-46476890D01*
X31186073Y-46512275D01*
X31147874Y-46560730D01*
X31142804Y-46566666D01*
X31142258Y-46567377D01*
X31138337Y-46571619D01*
X31135255Y-46576503D01*
X31131737Y-46581088D01*
X31131700Y-46581060D01*
X31130434Y-46582852D01*
X31082607Y-46643520D01*
X31079917Y-46648633D01*
X31032896Y-46738004D01*
X31028993Y-46744765D01*
X31028588Y-46745560D01*
X31025505Y-46750446D01*
X31023364Y-46755814D01*
X31020742Y-46760959D01*
X31020700Y-46760938D01*
X31019782Y-46762931D01*
X30983812Y-46831299D01*
X30982098Y-46836819D01*
X30952154Y-46933257D01*
X30949553Y-46940599D01*
X30949295Y-46941468D01*
X30947152Y-46946840D01*
X30946023Y-46952514D01*
X30944384Y-46958047D01*
X30944340Y-46958034D01*
X30943799Y-46960161D01*
X30926328Y-47016429D01*
X30920891Y-47033938D01*
X30920212Y-47039675D01*
X30908341Y-47139968D01*
X30907122Y-47147667D01*
X30907028Y-47148560D01*
X30905901Y-47154225D01*
X30905825Y-47160000D01*
X30905221Y-47165745D01*
X30905175Y-47165740D01*
X30905032Y-47167922D01*
X30895951Y-47244649D01*
X30254000Y-47244649D01*
X30254000Y-45000000D01*
X90240708Y-45000000D01*
X90259839Y-45218674D01*
X90316653Y-45430703D01*
X90318978Y-45435688D01*
X90407095Y-45624659D01*
X90407098Y-45624664D01*
X90409421Y-45629646D01*
X90412577Y-45634153D01*
X90412578Y-45634155D01*
X90491714Y-45747172D01*
X90535326Y-45809457D01*
X90690543Y-45964674D01*
X90695051Y-45967831D01*
X90695054Y-45967833D01*
X90865845Y-46087422D01*
X90870354Y-46090579D01*
X90875336Y-46092902D01*
X90875341Y-46092905D01*
X90933677Y-46120107D01*
X91069297Y-46183347D01*
X91281326Y-46240161D01*
X91500000Y-46259292D01*
X91718674Y-46240161D01*
X91746630Y-46232670D01*
X93132160Y-46232670D01*
X93137887Y-46240320D01*
X93309042Y-46345205D01*
X93317837Y-46349687D01*
X93527988Y-46436734D01*
X93537373Y-46439783D01*
X93758554Y-46492885D01*
X93768301Y-46494428D01*
X93995070Y-46512275D01*
X94004930Y-46512275D01*
X94231699Y-46494428D01*
X94241446Y-46492885D01*
X94462627Y-46439783D01*
X94472012Y-46436734D01*
X94682163Y-46349687D01*
X94690958Y-46345205D01*
X94858445Y-46242568D01*
X94867907Y-46232110D01*
X94864124Y-46223334D01*
X94012812Y-45372022D01*
X93998868Y-45364408D01*
X93997035Y-45364539D01*
X93990420Y-45368790D01*
X93138920Y-46220290D01*
X93132160Y-46232670D01*
X91746630Y-46232670D01*
X91930703Y-46183347D01*
X92066323Y-46120107D01*
X92124659Y-46092905D01*
X92124664Y-46092902D01*
X92129646Y-46090579D01*
X92134155Y-46087422D01*
X92304946Y-45967833D01*
X92304949Y-45967831D01*
X92309457Y-45964674D01*
X92464674Y-45809457D01*
X92494558Y-45766779D01*
X92550013Y-45722451D01*
X92620632Y-45715142D01*
X92683993Y-45747172D01*
X92705202Y-45773214D01*
X92757433Y-45858446D01*
X92767890Y-45867907D01*
X92776666Y-45864124D01*
X93627978Y-45012812D01*
X93634356Y-45001132D01*
X94364408Y-45001132D01*
X94364539Y-45002965D01*
X94368790Y-45009580D01*
X95220290Y-45861080D01*
X95232670Y-45867840D01*
X95240319Y-45862114D01*
X95294798Y-45773214D01*
X95347446Y-45725583D01*
X95417487Y-45713977D01*
X95482685Y-45742081D01*
X95505441Y-45766777D01*
X95535326Y-45809457D01*
X95690543Y-45964674D01*
X95695051Y-45967831D01*
X95695054Y-45967833D01*
X95865845Y-46087422D01*
X95870354Y-46090579D01*
X95875336Y-46092902D01*
X95875341Y-46092905D01*
X95933677Y-46120107D01*
X96069297Y-46183347D01*
X96281326Y-46240161D01*
X96500000Y-46259292D01*
X96718674Y-46240161D01*
X96930703Y-46183347D01*
X97066323Y-46120107D01*
X97124659Y-46092905D01*
X97124664Y-46092902D01*
X97129646Y-46090579D01*
X97134155Y-46087422D01*
X97304946Y-45967833D01*
X97304949Y-45967831D01*
X97309457Y-45964674D01*
X97464674Y-45809457D01*
X97508287Y-45747172D01*
X97587422Y-45634155D01*
X97587423Y-45634153D01*
X97590579Y-45629646D01*
X97592902Y-45624664D01*
X97592905Y-45624659D01*
X97681022Y-45435688D01*
X97683347Y-45430703D01*
X97740161Y-45218674D01*
X97759292Y-45000000D01*
X97740161Y-44781326D01*
X97683347Y-44569297D01*
X97639896Y-44476116D01*
X97592905Y-44375341D01*
X97592902Y-44375336D01*
X97590579Y-44370354D01*
X97530714Y-44284858D01*
X97467833Y-44195054D01*
X97467831Y-44195051D01*
X97464674Y-44190543D01*
X97309457Y-44035326D01*
X97304949Y-44032169D01*
X97304946Y-44032167D01*
X97134155Y-43912578D01*
X97134153Y-43912577D01*
X97129646Y-43909421D01*
X97124664Y-43907098D01*
X97124659Y-43907095D01*
X97023884Y-43860104D01*
X96930703Y-43816653D01*
X96718674Y-43759839D01*
X96500000Y-43740708D01*
X96281326Y-43759839D01*
X96069297Y-43816653D01*
X95976116Y-43860104D01*
X95875341Y-43907095D01*
X95875336Y-43907098D01*
X95870354Y-43909421D01*
X95865847Y-43912577D01*
X95865845Y-43912578D01*
X95695054Y-44032167D01*
X95695051Y-44032169D01*
X95690543Y-44035326D01*
X95535326Y-44190543D01*
X95505442Y-44233221D01*
X95449987Y-44277549D01*
X95379368Y-44284858D01*
X95316007Y-44252828D01*
X95294798Y-44226786D01*
X95242567Y-44141554D01*
X95232110Y-44132093D01*
X95223334Y-44135876D01*
X94372022Y-44987188D01*
X94364408Y-45001132D01*
X93634356Y-45001132D01*
X93635592Y-44998868D01*
X93635461Y-44997035D01*
X93631210Y-44990420D01*
X92779710Y-44138920D01*
X92767330Y-44132160D01*
X92759681Y-44137886D01*
X92705202Y-44226786D01*
X92652554Y-44274417D01*
X92582513Y-44286023D01*
X92517315Y-44257919D01*
X92494559Y-44233223D01*
X92464674Y-44190543D01*
X92309457Y-44035326D01*
X92304949Y-44032169D01*
X92304946Y-44032167D01*
X92134155Y-43912578D01*
X92134153Y-43912577D01*
X92129646Y-43909421D01*
X92124664Y-43907098D01*
X92124659Y-43907095D01*
X92023884Y-43860104D01*
X91930703Y-43816653D01*
X91748720Y-43767890D01*
X93132093Y-43767890D01*
X93135876Y-43776666D01*
X93987188Y-44627978D01*
X94001132Y-44635592D01*
X94002965Y-44635461D01*
X94009580Y-44631210D01*
X94861080Y-43779710D01*
X94867840Y-43767330D01*
X94862113Y-43759680D01*
X94690958Y-43654795D01*
X94682163Y-43650313D01*
X94472012Y-43563266D01*
X94462627Y-43560217D01*
X94241446Y-43507115D01*
X94231699Y-43505572D01*
X94004930Y-43487725D01*
X93995070Y-43487725D01*
X93768301Y-43505572D01*
X93758554Y-43507115D01*
X93537373Y-43560217D01*
X93527988Y-43563266D01*
X93317837Y-43650313D01*
X93309042Y-43654795D01*
X93141555Y-43757432D01*
X93132093Y-43767890D01*
X91748720Y-43767890D01*
X91718674Y-43759839D01*
X91500000Y-43740708D01*
X91281326Y-43759839D01*
X91069297Y-43816653D01*
X90976116Y-43860104D01*
X90875341Y-43907095D01*
X90875336Y-43907098D01*
X90870354Y-43909421D01*
X90865847Y-43912577D01*
X90865845Y-43912578D01*
X90695054Y-44032167D01*
X90695051Y-44032169D01*
X90690543Y-44035326D01*
X90535326Y-44190543D01*
X90532169Y-44195051D01*
X90532167Y-44195054D01*
X90469286Y-44284858D01*
X90409421Y-44370354D01*
X90407098Y-44375336D01*
X90407095Y-44375341D01*
X90360104Y-44476116D01*
X90316653Y-44569297D01*
X90259839Y-44781326D01*
X90240708Y-45000000D01*
X30254000Y-45000000D01*
X30254000Y-42993096D01*
X41440729Y-42993096D01*
X41458113Y-43150553D01*
X41512553Y-43299319D01*
X41600908Y-43430805D01*
X41606527Y-43435918D01*
X41606528Y-43435919D01*
X41683076Y-43505572D01*
X41718076Y-43537419D01*
X41857293Y-43613008D01*
X42010522Y-43653207D01*
X42094477Y-43654526D01*
X42161319Y-43655576D01*
X42161322Y-43655576D01*
X42168916Y-43655695D01*
X42323332Y-43620329D01*
X42393742Y-43584917D01*
X42458072Y-43552563D01*
X42458075Y-43552561D01*
X42464855Y-43549151D01*
X42470626Y-43544222D01*
X42470629Y-43544220D01*
X42579536Y-43451204D01*
X42579536Y-43451203D01*
X42585314Y-43446269D01*
X42677755Y-43317624D01*
X42736842Y-43170641D01*
X42759162Y-43013807D01*
X42759307Y-43000000D01*
X42740276Y-42842733D01*
X42684280Y-42694546D01*
X42594553Y-42563992D01*
X42476275Y-42458611D01*
X42468889Y-42454700D01*
X42342988Y-42388039D01*
X42342989Y-42388039D01*
X42336274Y-42384484D01*
X42182633Y-42345892D01*
X42175034Y-42345852D01*
X42175033Y-42345852D01*
X42109181Y-42345507D01*
X42024221Y-42345062D01*
X42016841Y-42346834D01*
X42016839Y-42346834D01*
X41877563Y-42380271D01*
X41877560Y-42380272D01*
X41870184Y-42382043D01*
X41729414Y-42454700D01*
X41610039Y-42558838D01*
X41518950Y-42688444D01*
X41461406Y-42836037D01*
X41440729Y-42993096D01*
X30254000Y-42993096D01*
X30254000Y-41103096D01*
X71850729Y-41103096D01*
X71868113Y-41260553D01*
X71922553Y-41409319D01*
X72010908Y-41540805D01*
X72016527Y-41545918D01*
X72016528Y-41545919D01*
X72027903Y-41556269D01*
X72128076Y-41647419D01*
X72267293Y-41723008D01*
X72420522Y-41763207D01*
X72504477Y-41764526D01*
X72571319Y-41765576D01*
X72571322Y-41765576D01*
X72578916Y-41765695D01*
X72733332Y-41730329D01*
X72803742Y-41694917D01*
X72868072Y-41662563D01*
X72868075Y-41662561D01*
X72874855Y-41659151D01*
X72880626Y-41654222D01*
X72880629Y-41654220D01*
X72989536Y-41561204D01*
X72989536Y-41561203D01*
X72995314Y-41556269D01*
X73087755Y-41427624D01*
X73146842Y-41280641D01*
X73169162Y-41123807D01*
X73169307Y-41110000D01*
X73168472Y-41103096D01*
X76930729Y-41103096D01*
X76948113Y-41260553D01*
X77002553Y-41409319D01*
X77090908Y-41540805D01*
X77096527Y-41545918D01*
X77096528Y-41545919D01*
X77107903Y-41556269D01*
X77208076Y-41647419D01*
X77347293Y-41723008D01*
X77500522Y-41763207D01*
X77584477Y-41764526D01*
X77651319Y-41765576D01*
X77651322Y-41765576D01*
X77658916Y-41765695D01*
X77813332Y-41730329D01*
X77883742Y-41694917D01*
X77948072Y-41662563D01*
X77948075Y-41662561D01*
X77954855Y-41659151D01*
X77960626Y-41654222D01*
X77960629Y-41654220D01*
X78069536Y-41561204D01*
X78069536Y-41561203D01*
X78075314Y-41556269D01*
X78167755Y-41427624D01*
X78226842Y-41280641D01*
X78249162Y-41123807D01*
X78249307Y-41110000D01*
X78248472Y-41103096D01*
X79470729Y-41103096D01*
X79488113Y-41260553D01*
X79542553Y-41409319D01*
X79630908Y-41540805D01*
X79636527Y-41545918D01*
X79636528Y-41545919D01*
X79647903Y-41556269D01*
X79748076Y-41647419D01*
X79887293Y-41723008D01*
X80040522Y-41763207D01*
X80124477Y-41764526D01*
X80191319Y-41765576D01*
X80191322Y-41765576D01*
X80198916Y-41765695D01*
X80353332Y-41730329D01*
X80423742Y-41694917D01*
X80488072Y-41662563D01*
X80488075Y-41662561D01*
X80494855Y-41659151D01*
X80500626Y-41654222D01*
X80500629Y-41654220D01*
X80609536Y-41561204D01*
X80609536Y-41561203D01*
X80615314Y-41556269D01*
X80707755Y-41427624D01*
X80766842Y-41280641D01*
X80789162Y-41123807D01*
X80789307Y-41110000D01*
X80770276Y-40952733D01*
X80714280Y-40804546D01*
X80624553Y-40673992D01*
X80506275Y-40568611D01*
X80498889Y-40564700D01*
X80372988Y-40498039D01*
X80372989Y-40498039D01*
X80366274Y-40494484D01*
X80212633Y-40455892D01*
X80205034Y-40455852D01*
X80205033Y-40455852D01*
X80139181Y-40455507D01*
X80054221Y-40455062D01*
X80046841Y-40456834D01*
X80046839Y-40456834D01*
X79907563Y-40490271D01*
X79907560Y-40490272D01*
X79900184Y-40492043D01*
X79759414Y-40564700D01*
X79640039Y-40668838D01*
X79548950Y-40798444D01*
X79491406Y-40946037D01*
X79470729Y-41103096D01*
X78248472Y-41103096D01*
X78230276Y-40952733D01*
X78174280Y-40804546D01*
X78084553Y-40673992D01*
X77966275Y-40568611D01*
X77958889Y-40564700D01*
X77832988Y-40498039D01*
X77832989Y-40498039D01*
X77826274Y-40494484D01*
X77672633Y-40455892D01*
X77665034Y-40455852D01*
X77665033Y-40455852D01*
X77599181Y-40455507D01*
X77514221Y-40455062D01*
X77506841Y-40456834D01*
X77506839Y-40456834D01*
X77367563Y-40490271D01*
X77367560Y-40490272D01*
X77360184Y-40492043D01*
X77219414Y-40564700D01*
X77100039Y-40668838D01*
X77008950Y-40798444D01*
X76951406Y-40946037D01*
X76930729Y-41103096D01*
X73168472Y-41103096D01*
X73150276Y-40952733D01*
X73094280Y-40804546D01*
X73004553Y-40673992D01*
X72886275Y-40568611D01*
X72878889Y-40564700D01*
X72752988Y-40498039D01*
X72752989Y-40498039D01*
X72746274Y-40494484D01*
X72592633Y-40455892D01*
X72585034Y-40455852D01*
X72585033Y-40455852D01*
X72519181Y-40455507D01*
X72434221Y-40455062D01*
X72426841Y-40456834D01*
X72426839Y-40456834D01*
X72287563Y-40490271D01*
X72287560Y-40490272D01*
X72280184Y-40492043D01*
X72139414Y-40564700D01*
X72020039Y-40668838D01*
X71928950Y-40798444D01*
X71871406Y-40946037D01*
X71850729Y-41103096D01*
X30254000Y-41103096D01*
X30254000Y-38800000D01*
X87141024Y-38800000D01*
X87146000Y-38825017D01*
X87160737Y-38899106D01*
X87216876Y-38983124D01*
X87300894Y-39039263D01*
X87400000Y-39058976D01*
X87412847Y-39056421D01*
X87437425Y-39054000D01*
X89362575Y-39054000D01*
X89387153Y-39056421D01*
X89400000Y-39058976D01*
X89499106Y-39039263D01*
X89583124Y-38983124D01*
X89639263Y-38899106D01*
X89654000Y-38825017D01*
X89658976Y-38800000D01*
X98341024Y-38800000D01*
X98346000Y-38825017D01*
X98360737Y-38899106D01*
X98416876Y-38983124D01*
X98500894Y-39039263D01*
X98600000Y-39058976D01*
X98612847Y-39056421D01*
X98637425Y-39054000D01*
X100562575Y-39054000D01*
X100587153Y-39056421D01*
X100600000Y-39058976D01*
X100699106Y-39039263D01*
X100783124Y-38983124D01*
X100839263Y-38899106D01*
X100854000Y-38825017D01*
X100858976Y-38800000D01*
X100856421Y-38787153D01*
X100854000Y-38762575D01*
X100854000Y-36237425D01*
X100856421Y-36212844D01*
X100856555Y-36212170D01*
X100858976Y-36200000D01*
X100839263Y-36100894D01*
X100783124Y-36016876D01*
X100699106Y-35960737D01*
X100625017Y-35946000D01*
X100612172Y-35943445D01*
X100600000Y-35941024D01*
X100587153Y-35943579D01*
X100562575Y-35946000D01*
X98637425Y-35946000D01*
X98612847Y-35943579D01*
X98600000Y-35941024D01*
X98587828Y-35943445D01*
X98574983Y-35946000D01*
X98500894Y-35960737D01*
X98416876Y-36016876D01*
X98360737Y-36100894D01*
X98341024Y-36200000D01*
X98343445Y-36212170D01*
X98343579Y-36212844D01*
X98346000Y-36237425D01*
X98346000Y-38762575D01*
X98343579Y-38787153D01*
X98341024Y-38800000D01*
X89658976Y-38800000D01*
X89656421Y-38787153D01*
X89654000Y-38762575D01*
X89654000Y-36237425D01*
X89656421Y-36212844D01*
X89656555Y-36212170D01*
X89658976Y-36200000D01*
X89639263Y-36100894D01*
X89583124Y-36016876D01*
X89499106Y-35960737D01*
X89425017Y-35946000D01*
X89412172Y-35943445D01*
X89400000Y-35941024D01*
X89387153Y-35943579D01*
X89362575Y-35946000D01*
X87437425Y-35946000D01*
X87412847Y-35943579D01*
X87400000Y-35941024D01*
X87387828Y-35943445D01*
X87374983Y-35946000D01*
X87300894Y-35960737D01*
X87216876Y-36016876D01*
X87160737Y-36100894D01*
X87141024Y-36200000D01*
X87143445Y-36212170D01*
X87143579Y-36212844D01*
X87146000Y-36237425D01*
X87146000Y-38762575D01*
X87143579Y-38787153D01*
X87141024Y-38800000D01*
X30254000Y-38800000D01*
X30254000Y-37793096D01*
X31240729Y-37793096D01*
X31258113Y-37950553D01*
X31312553Y-38099319D01*
X31400908Y-38230805D01*
X31406527Y-38235918D01*
X31406528Y-38235919D01*
X31417903Y-38246269D01*
X31518076Y-38337419D01*
X31657293Y-38413008D01*
X31810522Y-38453207D01*
X31894477Y-38454526D01*
X31961319Y-38455576D01*
X31961322Y-38455576D01*
X31968916Y-38455695D01*
X32123332Y-38420329D01*
X32193742Y-38384917D01*
X32258072Y-38352563D01*
X32258075Y-38352561D01*
X32264855Y-38349151D01*
X32270626Y-38344222D01*
X32270629Y-38344220D01*
X32379536Y-38251204D01*
X32379536Y-38251203D01*
X32385314Y-38246269D01*
X32477755Y-38117624D01*
X32536842Y-37970641D01*
X32559162Y-37813807D01*
X32559307Y-37800000D01*
X32558472Y-37793096D01*
X33840729Y-37793096D01*
X33858113Y-37950553D01*
X33912553Y-38099319D01*
X34000908Y-38230805D01*
X34006527Y-38235918D01*
X34006528Y-38235919D01*
X34017903Y-38246269D01*
X34118076Y-38337419D01*
X34257293Y-38413008D01*
X34410522Y-38453207D01*
X34494477Y-38454526D01*
X34561319Y-38455576D01*
X34561322Y-38455576D01*
X34568916Y-38455695D01*
X34723332Y-38420329D01*
X34793742Y-38384917D01*
X34858072Y-38352563D01*
X34858075Y-38352561D01*
X34864855Y-38349151D01*
X34870626Y-38344222D01*
X34870629Y-38344220D01*
X34979536Y-38251204D01*
X34979536Y-38251203D01*
X34985314Y-38246269D01*
X35077755Y-38117624D01*
X35136842Y-37970641D01*
X35159162Y-37813807D01*
X35159307Y-37800000D01*
X35158472Y-37793096D01*
X38840729Y-37793096D01*
X38858113Y-37950553D01*
X38912553Y-38099319D01*
X39000908Y-38230805D01*
X39006527Y-38235918D01*
X39006528Y-38235919D01*
X39017903Y-38246269D01*
X39118076Y-38337419D01*
X39257293Y-38413008D01*
X39410522Y-38453207D01*
X39494477Y-38454526D01*
X39561319Y-38455576D01*
X39561322Y-38455576D01*
X39568916Y-38455695D01*
X39723332Y-38420329D01*
X39793742Y-38384917D01*
X39858072Y-38352563D01*
X39858075Y-38352561D01*
X39864855Y-38349151D01*
X39870626Y-38344222D01*
X39870629Y-38344220D01*
X39979536Y-38251204D01*
X39979536Y-38251203D01*
X39985314Y-38246269D01*
X40077755Y-38117624D01*
X40136842Y-37970641D01*
X40159162Y-37813807D01*
X40159307Y-37800000D01*
X40158472Y-37793096D01*
X41440729Y-37793096D01*
X41458113Y-37950553D01*
X41512553Y-38099319D01*
X41600908Y-38230805D01*
X41606527Y-38235918D01*
X41606528Y-38235919D01*
X41617903Y-38246269D01*
X41718076Y-38337419D01*
X41857293Y-38413008D01*
X42010522Y-38453207D01*
X42094477Y-38454526D01*
X42161319Y-38455576D01*
X42161322Y-38455576D01*
X42168916Y-38455695D01*
X42323332Y-38420329D01*
X42393742Y-38384917D01*
X42458072Y-38352563D01*
X42458075Y-38352561D01*
X42464855Y-38349151D01*
X42470626Y-38344222D01*
X42470629Y-38344220D01*
X42579536Y-38251204D01*
X42579536Y-38251203D01*
X42585314Y-38246269D01*
X42677755Y-38117624D01*
X42736842Y-37970641D01*
X42759162Y-37813807D01*
X42759307Y-37800000D01*
X42758472Y-37793096D01*
X43940729Y-37793096D01*
X43958113Y-37950553D01*
X44012553Y-38099319D01*
X44100908Y-38230805D01*
X44106527Y-38235918D01*
X44106528Y-38235919D01*
X44117903Y-38246269D01*
X44218076Y-38337419D01*
X44357293Y-38413008D01*
X44510522Y-38453207D01*
X44594477Y-38454526D01*
X44661319Y-38455576D01*
X44661322Y-38455576D01*
X44668916Y-38455695D01*
X44823332Y-38420329D01*
X44893742Y-38384917D01*
X44958072Y-38352563D01*
X44958075Y-38352561D01*
X44964855Y-38349151D01*
X44970626Y-38344222D01*
X44970629Y-38344220D01*
X45079536Y-38251204D01*
X45079536Y-38251203D01*
X45085314Y-38246269D01*
X45177755Y-38117624D01*
X45236842Y-37970641D01*
X45259162Y-37813807D01*
X45259307Y-37800000D01*
X45258472Y-37793096D01*
X46540729Y-37793096D01*
X46558113Y-37950553D01*
X46612553Y-38099319D01*
X46700908Y-38230805D01*
X46706527Y-38235918D01*
X46706528Y-38235919D01*
X46717903Y-38246269D01*
X46818076Y-38337419D01*
X46957293Y-38413008D01*
X47110522Y-38453207D01*
X47194477Y-38454526D01*
X47261319Y-38455576D01*
X47261322Y-38455576D01*
X47268916Y-38455695D01*
X47423332Y-38420329D01*
X47493742Y-38384917D01*
X47558072Y-38352563D01*
X47558075Y-38352561D01*
X47564855Y-38349151D01*
X47570626Y-38344222D01*
X47570629Y-38344220D01*
X47679536Y-38251204D01*
X47679536Y-38251203D01*
X47685314Y-38246269D01*
X47777755Y-38117624D01*
X47836842Y-37970641D01*
X47859162Y-37813807D01*
X47859307Y-37800000D01*
X47858472Y-37793096D01*
X51540729Y-37793096D01*
X51558113Y-37950553D01*
X51612553Y-38099319D01*
X51700908Y-38230805D01*
X51706527Y-38235918D01*
X51706528Y-38235919D01*
X51717903Y-38246269D01*
X51818076Y-38337419D01*
X51957293Y-38413008D01*
X52110522Y-38453207D01*
X52194477Y-38454526D01*
X52261319Y-38455576D01*
X52261322Y-38455576D01*
X52268916Y-38455695D01*
X52423332Y-38420329D01*
X52493742Y-38384917D01*
X52558072Y-38352563D01*
X52558075Y-38352561D01*
X52564855Y-38349151D01*
X52570626Y-38344222D01*
X52570629Y-38344220D01*
X52679536Y-38251204D01*
X52679536Y-38251203D01*
X52685314Y-38246269D01*
X52777755Y-38117624D01*
X52836842Y-37970641D01*
X52859162Y-37813807D01*
X52859307Y-37800000D01*
X52858472Y-37793096D01*
X54140729Y-37793096D01*
X54158113Y-37950553D01*
X54212553Y-38099319D01*
X54300908Y-38230805D01*
X54306527Y-38235918D01*
X54306528Y-38235919D01*
X54317903Y-38246269D01*
X54418076Y-38337419D01*
X54557293Y-38413008D01*
X54710522Y-38453207D01*
X54794477Y-38454526D01*
X54861319Y-38455576D01*
X54861322Y-38455576D01*
X54868916Y-38455695D01*
X55023332Y-38420329D01*
X55093742Y-38384917D01*
X55158072Y-38352563D01*
X55158075Y-38352561D01*
X55164855Y-38349151D01*
X55170626Y-38344222D01*
X55170629Y-38344220D01*
X55279536Y-38251204D01*
X55279536Y-38251203D01*
X55285314Y-38246269D01*
X55377755Y-38117624D01*
X55436842Y-37970641D01*
X55459162Y-37813807D01*
X55459307Y-37800000D01*
X55458472Y-37793096D01*
X56640729Y-37793096D01*
X56658113Y-37950553D01*
X56712553Y-38099319D01*
X56800908Y-38230805D01*
X56806527Y-38235918D01*
X56806528Y-38235919D01*
X56817903Y-38246269D01*
X56918076Y-38337419D01*
X57057293Y-38413008D01*
X57210522Y-38453207D01*
X57294477Y-38454526D01*
X57361319Y-38455576D01*
X57361322Y-38455576D01*
X57368916Y-38455695D01*
X57523332Y-38420329D01*
X57593742Y-38384917D01*
X57658072Y-38352563D01*
X57658075Y-38352561D01*
X57664855Y-38349151D01*
X57670626Y-38344222D01*
X57670629Y-38344220D01*
X57779536Y-38251204D01*
X57779536Y-38251203D01*
X57785314Y-38246269D01*
X57877755Y-38117624D01*
X57936842Y-37970641D01*
X57959162Y-37813807D01*
X57959307Y-37800000D01*
X57958472Y-37793096D01*
X59140729Y-37793096D01*
X59158113Y-37950553D01*
X59212553Y-38099319D01*
X59300908Y-38230805D01*
X59306527Y-38235918D01*
X59306528Y-38235919D01*
X59317903Y-38246269D01*
X59418076Y-38337419D01*
X59557293Y-38413008D01*
X59710522Y-38453207D01*
X59794477Y-38454526D01*
X59861319Y-38455576D01*
X59861322Y-38455576D01*
X59868916Y-38455695D01*
X60023332Y-38420329D01*
X60093742Y-38384917D01*
X60158072Y-38352563D01*
X60158075Y-38352561D01*
X60164855Y-38349151D01*
X60170626Y-38344222D01*
X60170629Y-38344220D01*
X60279536Y-38251204D01*
X60279536Y-38251203D01*
X60285314Y-38246269D01*
X60377755Y-38117624D01*
X60436842Y-37970641D01*
X60459162Y-37813807D01*
X60459307Y-37800000D01*
X60458472Y-37793096D01*
X61740729Y-37793096D01*
X61758113Y-37950553D01*
X61812553Y-38099319D01*
X61900908Y-38230805D01*
X61906527Y-38235918D01*
X61906528Y-38235919D01*
X61917903Y-38246269D01*
X62018076Y-38337419D01*
X62157293Y-38413008D01*
X62310522Y-38453207D01*
X62394477Y-38454526D01*
X62461319Y-38455576D01*
X62461322Y-38455576D01*
X62468916Y-38455695D01*
X62623332Y-38420329D01*
X62693742Y-38384917D01*
X62758072Y-38352563D01*
X62758075Y-38352561D01*
X62764855Y-38349151D01*
X62770626Y-38344222D01*
X62770629Y-38344220D01*
X62879536Y-38251204D01*
X62879536Y-38251203D01*
X62885314Y-38246269D01*
X62977755Y-38117624D01*
X63036842Y-37970641D01*
X63059162Y-37813807D01*
X63059307Y-37800000D01*
X63058472Y-37793096D01*
X64240729Y-37793096D01*
X64258113Y-37950553D01*
X64312553Y-38099319D01*
X64400908Y-38230805D01*
X64406527Y-38235918D01*
X64406528Y-38235919D01*
X64417903Y-38246269D01*
X64518076Y-38337419D01*
X64657293Y-38413008D01*
X64810522Y-38453207D01*
X64894477Y-38454526D01*
X64961319Y-38455576D01*
X64961322Y-38455576D01*
X64968916Y-38455695D01*
X65123332Y-38420329D01*
X65193742Y-38384917D01*
X65258072Y-38352563D01*
X65258075Y-38352561D01*
X65264855Y-38349151D01*
X65270626Y-38344222D01*
X65270629Y-38344220D01*
X65379536Y-38251204D01*
X65379536Y-38251203D01*
X65385314Y-38246269D01*
X65477755Y-38117624D01*
X65536842Y-37970641D01*
X65559162Y-37813807D01*
X65559307Y-37800000D01*
X65558472Y-37793096D01*
X66840729Y-37793096D01*
X66858113Y-37950553D01*
X66912553Y-38099319D01*
X67000908Y-38230805D01*
X67006527Y-38235918D01*
X67006528Y-38235919D01*
X67017903Y-38246269D01*
X67118076Y-38337419D01*
X67257293Y-38413008D01*
X67410522Y-38453207D01*
X67494477Y-38454526D01*
X67561319Y-38455576D01*
X67561322Y-38455576D01*
X67568916Y-38455695D01*
X67723332Y-38420329D01*
X67793742Y-38384917D01*
X67858072Y-38352563D01*
X67858075Y-38352561D01*
X67864855Y-38349151D01*
X67870626Y-38344222D01*
X67870629Y-38344220D01*
X67979536Y-38251204D01*
X67979536Y-38251203D01*
X67985314Y-38246269D01*
X68077755Y-38117624D01*
X68136842Y-37970641D01*
X68159162Y-37813807D01*
X68159307Y-37800000D01*
X68158472Y-37793096D01*
X69340729Y-37793096D01*
X69358113Y-37950553D01*
X69412553Y-38099319D01*
X69500908Y-38230805D01*
X69506527Y-38235918D01*
X69506528Y-38235919D01*
X69517903Y-38246269D01*
X69618076Y-38337419D01*
X69757293Y-38413008D01*
X69910522Y-38453207D01*
X69994477Y-38454526D01*
X70061319Y-38455576D01*
X70061322Y-38455576D01*
X70068916Y-38455695D01*
X70223332Y-38420329D01*
X70293742Y-38384917D01*
X70358072Y-38352563D01*
X70358075Y-38352561D01*
X70364855Y-38349151D01*
X70370626Y-38344222D01*
X70370629Y-38344220D01*
X70479536Y-38251204D01*
X70479536Y-38251203D01*
X70485314Y-38246269D01*
X70577755Y-38117624D01*
X70636842Y-37970641D01*
X70659162Y-37813807D01*
X70659307Y-37800000D01*
X70658472Y-37793096D01*
X71840729Y-37793096D01*
X71858113Y-37950553D01*
X71912553Y-38099319D01*
X72000908Y-38230805D01*
X72006527Y-38235918D01*
X72006528Y-38235919D01*
X72017903Y-38246269D01*
X72118076Y-38337419D01*
X72257293Y-38413008D01*
X72410522Y-38453207D01*
X72494477Y-38454526D01*
X72561319Y-38455576D01*
X72561322Y-38455576D01*
X72568916Y-38455695D01*
X72723332Y-38420329D01*
X72793742Y-38384917D01*
X72858072Y-38352563D01*
X72858075Y-38352561D01*
X72864855Y-38349151D01*
X72870626Y-38344222D01*
X72870629Y-38344220D01*
X72979536Y-38251204D01*
X72979536Y-38251203D01*
X72985314Y-38246269D01*
X73077755Y-38117624D01*
X73136842Y-37970641D01*
X73159162Y-37813807D01*
X73159307Y-37800000D01*
X73158472Y-37793096D01*
X74440729Y-37793096D01*
X74458113Y-37950553D01*
X74512553Y-38099319D01*
X74600908Y-38230805D01*
X74606527Y-38235918D01*
X74606528Y-38235919D01*
X74617903Y-38246269D01*
X74718076Y-38337419D01*
X74857293Y-38413008D01*
X75010522Y-38453207D01*
X75094477Y-38454526D01*
X75161319Y-38455576D01*
X75161322Y-38455576D01*
X75168916Y-38455695D01*
X75323332Y-38420329D01*
X75393742Y-38384917D01*
X75458072Y-38352563D01*
X75458075Y-38352561D01*
X75464855Y-38349151D01*
X75470626Y-38344222D01*
X75470629Y-38344220D01*
X75579536Y-38251204D01*
X75579536Y-38251203D01*
X75585314Y-38246269D01*
X75677755Y-38117624D01*
X75736842Y-37970641D01*
X75759162Y-37813807D01*
X75759307Y-37800000D01*
X75758472Y-37793096D01*
X76940729Y-37793096D01*
X76958113Y-37950553D01*
X77012553Y-38099319D01*
X77100908Y-38230805D01*
X77106527Y-38235918D01*
X77106528Y-38235919D01*
X77117903Y-38246269D01*
X77218076Y-38337419D01*
X77357293Y-38413008D01*
X77510522Y-38453207D01*
X77594477Y-38454526D01*
X77661319Y-38455576D01*
X77661322Y-38455576D01*
X77668916Y-38455695D01*
X77823332Y-38420329D01*
X77893742Y-38384917D01*
X77958072Y-38352563D01*
X77958075Y-38352561D01*
X77964855Y-38349151D01*
X77970626Y-38344222D01*
X77970629Y-38344220D01*
X78079536Y-38251204D01*
X78079536Y-38251203D01*
X78085314Y-38246269D01*
X78177755Y-38117624D01*
X78236842Y-37970641D01*
X78259162Y-37813807D01*
X78259307Y-37800000D01*
X78258472Y-37793096D01*
X79440729Y-37793096D01*
X79458113Y-37950553D01*
X79512553Y-38099319D01*
X79600908Y-38230805D01*
X79606527Y-38235918D01*
X79606528Y-38235919D01*
X79617903Y-38246269D01*
X79718076Y-38337419D01*
X79857293Y-38413008D01*
X80010522Y-38453207D01*
X80094477Y-38454526D01*
X80161319Y-38455576D01*
X80161322Y-38455576D01*
X80168916Y-38455695D01*
X80323332Y-38420329D01*
X80393742Y-38384917D01*
X80458072Y-38352563D01*
X80458075Y-38352561D01*
X80464855Y-38349151D01*
X80470626Y-38344222D01*
X80470629Y-38344220D01*
X80579536Y-38251204D01*
X80579536Y-38251203D01*
X80585314Y-38246269D01*
X80677755Y-38117624D01*
X80736842Y-37970641D01*
X80759162Y-37813807D01*
X80759307Y-37800000D01*
X80740276Y-37642733D01*
X80684280Y-37494546D01*
X80594553Y-37363992D01*
X80476275Y-37258611D01*
X80468889Y-37254700D01*
X80342988Y-37188039D01*
X80342989Y-37188039D01*
X80336274Y-37184484D01*
X80182633Y-37145892D01*
X80175034Y-37145852D01*
X80175033Y-37145852D01*
X80109181Y-37145507D01*
X80024221Y-37145062D01*
X80016841Y-37146834D01*
X80016839Y-37146834D01*
X79877563Y-37180271D01*
X79877560Y-37180272D01*
X79870184Y-37182043D01*
X79729414Y-37254700D01*
X79610039Y-37358838D01*
X79518950Y-37488444D01*
X79461406Y-37636037D01*
X79440729Y-37793096D01*
X78258472Y-37793096D01*
X78240276Y-37642733D01*
X78184280Y-37494546D01*
X78094553Y-37363992D01*
X77976275Y-37258611D01*
X77968889Y-37254700D01*
X77842988Y-37188039D01*
X77842989Y-37188039D01*
X77836274Y-37184484D01*
X77682633Y-37145892D01*
X77675034Y-37145852D01*
X77675033Y-37145852D01*
X77609181Y-37145507D01*
X77524221Y-37145062D01*
X77516841Y-37146834D01*
X77516839Y-37146834D01*
X77377563Y-37180271D01*
X77377560Y-37180272D01*
X77370184Y-37182043D01*
X77229414Y-37254700D01*
X77110039Y-37358838D01*
X77018950Y-37488444D01*
X76961406Y-37636037D01*
X76940729Y-37793096D01*
X75758472Y-37793096D01*
X75740276Y-37642733D01*
X75684280Y-37494546D01*
X75594553Y-37363992D01*
X75476275Y-37258611D01*
X75468889Y-37254700D01*
X75342988Y-37188039D01*
X75342989Y-37188039D01*
X75336274Y-37184484D01*
X75182633Y-37145892D01*
X75175034Y-37145852D01*
X75175033Y-37145852D01*
X75109181Y-37145507D01*
X75024221Y-37145062D01*
X75016841Y-37146834D01*
X75016839Y-37146834D01*
X74877563Y-37180271D01*
X74877560Y-37180272D01*
X74870184Y-37182043D01*
X74729414Y-37254700D01*
X74610039Y-37358838D01*
X74518950Y-37488444D01*
X74461406Y-37636037D01*
X74440729Y-37793096D01*
X73158472Y-37793096D01*
X73140276Y-37642733D01*
X73084280Y-37494546D01*
X72994553Y-37363992D01*
X72876275Y-37258611D01*
X72868889Y-37254700D01*
X72742988Y-37188039D01*
X72742989Y-37188039D01*
X72736274Y-37184484D01*
X72582633Y-37145892D01*
X72575034Y-37145852D01*
X72575033Y-37145852D01*
X72509181Y-37145507D01*
X72424221Y-37145062D01*
X72416841Y-37146834D01*
X72416839Y-37146834D01*
X72277563Y-37180271D01*
X72277560Y-37180272D01*
X72270184Y-37182043D01*
X72129414Y-37254700D01*
X72010039Y-37358838D01*
X71918950Y-37488444D01*
X71861406Y-37636037D01*
X71840729Y-37793096D01*
X70658472Y-37793096D01*
X70640276Y-37642733D01*
X70584280Y-37494546D01*
X70494553Y-37363992D01*
X70376275Y-37258611D01*
X70368889Y-37254700D01*
X70242988Y-37188039D01*
X70242989Y-37188039D01*
X70236274Y-37184484D01*
X70082633Y-37145892D01*
X70075034Y-37145852D01*
X70075033Y-37145852D01*
X70009181Y-37145507D01*
X69924221Y-37145062D01*
X69916841Y-37146834D01*
X69916839Y-37146834D01*
X69777563Y-37180271D01*
X69777560Y-37180272D01*
X69770184Y-37182043D01*
X69629414Y-37254700D01*
X69510039Y-37358838D01*
X69418950Y-37488444D01*
X69361406Y-37636037D01*
X69340729Y-37793096D01*
X68158472Y-37793096D01*
X68140276Y-37642733D01*
X68084280Y-37494546D01*
X67994553Y-37363992D01*
X67876275Y-37258611D01*
X67868889Y-37254700D01*
X67742988Y-37188039D01*
X67742989Y-37188039D01*
X67736274Y-37184484D01*
X67582633Y-37145892D01*
X67575034Y-37145852D01*
X67575033Y-37145852D01*
X67509181Y-37145507D01*
X67424221Y-37145062D01*
X67416841Y-37146834D01*
X67416839Y-37146834D01*
X67277563Y-37180271D01*
X67277560Y-37180272D01*
X67270184Y-37182043D01*
X67129414Y-37254700D01*
X67010039Y-37358838D01*
X66918950Y-37488444D01*
X66861406Y-37636037D01*
X66840729Y-37793096D01*
X65558472Y-37793096D01*
X65540276Y-37642733D01*
X65484280Y-37494546D01*
X65394553Y-37363992D01*
X65276275Y-37258611D01*
X65268889Y-37254700D01*
X65142988Y-37188039D01*
X65142989Y-37188039D01*
X65136274Y-37184484D01*
X64982633Y-37145892D01*
X64975034Y-37145852D01*
X64975033Y-37145852D01*
X64909181Y-37145507D01*
X64824221Y-37145062D01*
X64816841Y-37146834D01*
X64816839Y-37146834D01*
X64677563Y-37180271D01*
X64677560Y-37180272D01*
X64670184Y-37182043D01*
X64529414Y-37254700D01*
X64410039Y-37358838D01*
X64318950Y-37488444D01*
X64261406Y-37636037D01*
X64240729Y-37793096D01*
X63058472Y-37793096D01*
X63040276Y-37642733D01*
X62984280Y-37494546D01*
X62894553Y-37363992D01*
X62776275Y-37258611D01*
X62768889Y-37254700D01*
X62642988Y-37188039D01*
X62642989Y-37188039D01*
X62636274Y-37184484D01*
X62482633Y-37145892D01*
X62475034Y-37145852D01*
X62475033Y-37145852D01*
X62409181Y-37145507D01*
X62324221Y-37145062D01*
X62316841Y-37146834D01*
X62316839Y-37146834D01*
X62177563Y-37180271D01*
X62177560Y-37180272D01*
X62170184Y-37182043D01*
X62029414Y-37254700D01*
X61910039Y-37358838D01*
X61818950Y-37488444D01*
X61761406Y-37636037D01*
X61740729Y-37793096D01*
X60458472Y-37793096D01*
X60440276Y-37642733D01*
X60384280Y-37494546D01*
X60294553Y-37363992D01*
X60176275Y-37258611D01*
X60168889Y-37254700D01*
X60042988Y-37188039D01*
X60042989Y-37188039D01*
X60036274Y-37184484D01*
X59882633Y-37145892D01*
X59875034Y-37145852D01*
X59875033Y-37145852D01*
X59809181Y-37145507D01*
X59724221Y-37145062D01*
X59716841Y-37146834D01*
X59716839Y-37146834D01*
X59577563Y-37180271D01*
X59577560Y-37180272D01*
X59570184Y-37182043D01*
X59429414Y-37254700D01*
X59310039Y-37358838D01*
X59218950Y-37488444D01*
X59161406Y-37636037D01*
X59140729Y-37793096D01*
X57958472Y-37793096D01*
X57940276Y-37642733D01*
X57884280Y-37494546D01*
X57794553Y-37363992D01*
X57676275Y-37258611D01*
X57668889Y-37254700D01*
X57542988Y-37188039D01*
X57542989Y-37188039D01*
X57536274Y-37184484D01*
X57382633Y-37145892D01*
X57375034Y-37145852D01*
X57375033Y-37145852D01*
X57309181Y-37145507D01*
X57224221Y-37145062D01*
X57216841Y-37146834D01*
X57216839Y-37146834D01*
X57077563Y-37180271D01*
X57077560Y-37180272D01*
X57070184Y-37182043D01*
X56929414Y-37254700D01*
X56810039Y-37358838D01*
X56718950Y-37488444D01*
X56661406Y-37636037D01*
X56640729Y-37793096D01*
X55458472Y-37793096D01*
X55440276Y-37642733D01*
X55384280Y-37494546D01*
X55294553Y-37363992D01*
X55176275Y-37258611D01*
X55168889Y-37254700D01*
X55042988Y-37188039D01*
X55042989Y-37188039D01*
X55036274Y-37184484D01*
X54882633Y-37145892D01*
X54875034Y-37145852D01*
X54875033Y-37145852D01*
X54809181Y-37145507D01*
X54724221Y-37145062D01*
X54716841Y-37146834D01*
X54716839Y-37146834D01*
X54577563Y-37180271D01*
X54577560Y-37180272D01*
X54570184Y-37182043D01*
X54429414Y-37254700D01*
X54310039Y-37358838D01*
X54218950Y-37488444D01*
X54161406Y-37636037D01*
X54140729Y-37793096D01*
X52858472Y-37793096D01*
X52840276Y-37642733D01*
X52784280Y-37494546D01*
X52694553Y-37363992D01*
X52576275Y-37258611D01*
X52568889Y-37254700D01*
X52442988Y-37188039D01*
X52442989Y-37188039D01*
X52436274Y-37184484D01*
X52282633Y-37145892D01*
X52275034Y-37145852D01*
X52275033Y-37145852D01*
X52209181Y-37145507D01*
X52124221Y-37145062D01*
X52116841Y-37146834D01*
X52116839Y-37146834D01*
X51977563Y-37180271D01*
X51977560Y-37180272D01*
X51970184Y-37182043D01*
X51829414Y-37254700D01*
X51710039Y-37358838D01*
X51618950Y-37488444D01*
X51561406Y-37636037D01*
X51540729Y-37793096D01*
X47858472Y-37793096D01*
X47840276Y-37642733D01*
X47784280Y-37494546D01*
X47694553Y-37363992D01*
X47576275Y-37258611D01*
X47568889Y-37254700D01*
X47442988Y-37188039D01*
X47442989Y-37188039D01*
X47436274Y-37184484D01*
X47282633Y-37145892D01*
X47275034Y-37145852D01*
X47275033Y-37145852D01*
X47209181Y-37145507D01*
X47124221Y-37145062D01*
X47116841Y-37146834D01*
X47116839Y-37146834D01*
X46977563Y-37180271D01*
X46977560Y-37180272D01*
X46970184Y-37182043D01*
X46829414Y-37254700D01*
X46710039Y-37358838D01*
X46618950Y-37488444D01*
X46561406Y-37636037D01*
X46540729Y-37793096D01*
X45258472Y-37793096D01*
X45240276Y-37642733D01*
X45184280Y-37494546D01*
X45094553Y-37363992D01*
X44976275Y-37258611D01*
X44968889Y-37254700D01*
X44842988Y-37188039D01*
X44842989Y-37188039D01*
X44836274Y-37184484D01*
X44682633Y-37145892D01*
X44675034Y-37145852D01*
X44675033Y-37145852D01*
X44609181Y-37145507D01*
X44524221Y-37145062D01*
X44516841Y-37146834D01*
X44516839Y-37146834D01*
X44377563Y-37180271D01*
X44377560Y-37180272D01*
X44370184Y-37182043D01*
X44229414Y-37254700D01*
X44110039Y-37358838D01*
X44018950Y-37488444D01*
X43961406Y-37636037D01*
X43940729Y-37793096D01*
X42758472Y-37793096D01*
X42740276Y-37642733D01*
X42684280Y-37494546D01*
X42594553Y-37363992D01*
X42476275Y-37258611D01*
X42468889Y-37254700D01*
X42342988Y-37188039D01*
X42342989Y-37188039D01*
X42336274Y-37184484D01*
X42182633Y-37145892D01*
X42175034Y-37145852D01*
X42175033Y-37145852D01*
X42109181Y-37145507D01*
X42024221Y-37145062D01*
X42016841Y-37146834D01*
X42016839Y-37146834D01*
X41877563Y-37180271D01*
X41877560Y-37180272D01*
X41870184Y-37182043D01*
X41729414Y-37254700D01*
X41610039Y-37358838D01*
X41518950Y-37488444D01*
X41461406Y-37636037D01*
X41440729Y-37793096D01*
X40158472Y-37793096D01*
X40140276Y-37642733D01*
X40084280Y-37494546D01*
X39994553Y-37363992D01*
X39876275Y-37258611D01*
X39868889Y-37254700D01*
X39742988Y-37188039D01*
X39742989Y-37188039D01*
X39736274Y-37184484D01*
X39582633Y-37145892D01*
X39575034Y-37145852D01*
X39575033Y-37145852D01*
X39509181Y-37145507D01*
X39424221Y-37145062D01*
X39416841Y-37146834D01*
X39416839Y-37146834D01*
X39277563Y-37180271D01*
X39277560Y-37180272D01*
X39270184Y-37182043D01*
X39129414Y-37254700D01*
X39010039Y-37358838D01*
X38918950Y-37488444D01*
X38861406Y-37636037D01*
X38840729Y-37793096D01*
X35158472Y-37793096D01*
X35140276Y-37642733D01*
X35084280Y-37494546D01*
X34994553Y-37363992D01*
X34876275Y-37258611D01*
X34868889Y-37254700D01*
X34742988Y-37188039D01*
X34742989Y-37188039D01*
X34736274Y-37184484D01*
X34582633Y-37145892D01*
X34575034Y-37145852D01*
X34575033Y-37145852D01*
X34509181Y-37145507D01*
X34424221Y-37145062D01*
X34416841Y-37146834D01*
X34416839Y-37146834D01*
X34277563Y-37180271D01*
X34277560Y-37180272D01*
X34270184Y-37182043D01*
X34129414Y-37254700D01*
X34010039Y-37358838D01*
X33918950Y-37488444D01*
X33861406Y-37636037D01*
X33840729Y-37793096D01*
X32558472Y-37793096D01*
X32540276Y-37642733D01*
X32484280Y-37494546D01*
X32394553Y-37363992D01*
X32276275Y-37258611D01*
X32268889Y-37254700D01*
X32142988Y-37188039D01*
X32142989Y-37188039D01*
X32136274Y-37184484D01*
X31982633Y-37145892D01*
X31975034Y-37145852D01*
X31975033Y-37145852D01*
X31909181Y-37145507D01*
X31824221Y-37145062D01*
X31816841Y-37146834D01*
X31816839Y-37146834D01*
X31677563Y-37180271D01*
X31677560Y-37180272D01*
X31670184Y-37182043D01*
X31529414Y-37254700D01*
X31410039Y-37358838D01*
X31318950Y-37488444D01*
X31261406Y-37636037D01*
X31240729Y-37793096D01*
X30254000Y-37793096D01*
X30254000Y-31492408D01*
X39240041Y-31492408D01*
X39248733Y-31571137D01*
X39250880Y-31590579D01*
X39257425Y-31649865D01*
X39260035Y-31656996D01*
X39260035Y-31656998D01*
X39290644Y-31740640D01*
X39311865Y-31798631D01*
X39316101Y-31804934D01*
X39316101Y-31804935D01*
X39328777Y-31823798D01*
X39400220Y-31930117D01*
X39405839Y-31935230D01*
X39405840Y-31935231D01*
X39470897Y-31994428D01*
X39517388Y-32036731D01*
X39656605Y-32112320D01*
X39809834Y-32152519D01*
X39893789Y-32153838D01*
X39960631Y-32154888D01*
X39960634Y-32154888D01*
X39968228Y-32155007D01*
X40122644Y-32119641D01*
X40193054Y-32084229D01*
X40257384Y-32051875D01*
X40257387Y-32051873D01*
X40264167Y-32048463D01*
X40269938Y-32043534D01*
X40269941Y-32043532D01*
X40378848Y-31950516D01*
X40378848Y-31950515D01*
X40384626Y-31945581D01*
X40477067Y-31816936D01*
X40536154Y-31669953D01*
X40547450Y-31590579D01*
X40557893Y-31517203D01*
X40557893Y-31517200D01*
X40558474Y-31513119D01*
X40558543Y-31506577D01*
X40558576Y-31503446D01*
X40558576Y-31503440D01*
X40558619Y-31499312D01*
X40557867Y-31493096D01*
X41740729Y-31493096D01*
X41749421Y-31571824D01*
X41751492Y-31590579D01*
X41758113Y-31650553D01*
X41760723Y-31657684D01*
X41760723Y-31657686D01*
X41809691Y-31791497D01*
X41812553Y-31799319D01*
X41900908Y-31930805D01*
X41906527Y-31935918D01*
X41906528Y-31935919D01*
X41917903Y-31946269D01*
X42018076Y-32037419D01*
X42157293Y-32113008D01*
X42310522Y-32153207D01*
X42394477Y-32154526D01*
X42461319Y-32155576D01*
X42461322Y-32155576D01*
X42468916Y-32155695D01*
X42623332Y-32120329D01*
X42693742Y-32084917D01*
X42758072Y-32052563D01*
X42758075Y-32052561D01*
X42764855Y-32049151D01*
X42770626Y-32044222D01*
X42770629Y-32044220D01*
X42879536Y-31951204D01*
X42879536Y-31951203D01*
X42885314Y-31946269D01*
X42977755Y-31817624D01*
X43036842Y-31670641D01*
X43059162Y-31513807D01*
X43059307Y-31500000D01*
X43058472Y-31493096D01*
X46840729Y-31493096D01*
X46849421Y-31571824D01*
X46851492Y-31590579D01*
X46858113Y-31650553D01*
X46860723Y-31657684D01*
X46860723Y-31657686D01*
X46909691Y-31791497D01*
X46912553Y-31799319D01*
X47000908Y-31930805D01*
X47006527Y-31935918D01*
X47006528Y-31935919D01*
X47017903Y-31946269D01*
X47118076Y-32037419D01*
X47257293Y-32113008D01*
X47410522Y-32153207D01*
X47494477Y-32154526D01*
X47561319Y-32155576D01*
X47561322Y-32155576D01*
X47568916Y-32155695D01*
X47723332Y-32120329D01*
X47793742Y-32084917D01*
X47858072Y-32052563D01*
X47858075Y-32052561D01*
X47864855Y-32049151D01*
X47870626Y-32044222D01*
X47870629Y-32044220D01*
X47979536Y-31951204D01*
X47979536Y-31951203D01*
X47985314Y-31946269D01*
X48077755Y-31817624D01*
X48136842Y-31670641D01*
X48159162Y-31513807D01*
X48159307Y-31500000D01*
X48158472Y-31493096D01*
X49340729Y-31493096D01*
X49349421Y-31571824D01*
X49351492Y-31590579D01*
X49358113Y-31650553D01*
X49360723Y-31657684D01*
X49360723Y-31657686D01*
X49409691Y-31791497D01*
X49412553Y-31799319D01*
X49500908Y-31930805D01*
X49506527Y-31935918D01*
X49506528Y-31935919D01*
X49517903Y-31946269D01*
X49618076Y-32037419D01*
X49757293Y-32113008D01*
X49910522Y-32153207D01*
X49994477Y-32154526D01*
X50061319Y-32155576D01*
X50061322Y-32155576D01*
X50068916Y-32155695D01*
X50223332Y-32120329D01*
X50293742Y-32084917D01*
X50358072Y-32052563D01*
X50358075Y-32052561D01*
X50364855Y-32049151D01*
X50370626Y-32044222D01*
X50370629Y-32044220D01*
X50479536Y-31951204D01*
X50479536Y-31951203D01*
X50485314Y-31946269D01*
X50577755Y-31817624D01*
X50636842Y-31670641D01*
X50659162Y-31513807D01*
X50659307Y-31500000D01*
X50658472Y-31493096D01*
X51940729Y-31493096D01*
X51949421Y-31571824D01*
X51951492Y-31590579D01*
X51958113Y-31650553D01*
X51960723Y-31657684D01*
X51960723Y-31657686D01*
X52009691Y-31791497D01*
X52012553Y-31799319D01*
X52100908Y-31930805D01*
X52106527Y-31935918D01*
X52106528Y-31935919D01*
X52117903Y-31946269D01*
X52218076Y-32037419D01*
X52357293Y-32113008D01*
X52510522Y-32153207D01*
X52594477Y-32154526D01*
X52661319Y-32155576D01*
X52661322Y-32155576D01*
X52668916Y-32155695D01*
X52823332Y-32120329D01*
X52893742Y-32084917D01*
X52958072Y-32052563D01*
X52958075Y-32052561D01*
X52964855Y-32049151D01*
X52970626Y-32044222D01*
X52970629Y-32044220D01*
X53079536Y-31951204D01*
X53079536Y-31951203D01*
X53085314Y-31946269D01*
X53177755Y-31817624D01*
X53236842Y-31670641D01*
X53259162Y-31513807D01*
X53259307Y-31500000D01*
X53258472Y-31493096D01*
X54440729Y-31493096D01*
X54449421Y-31571824D01*
X54451492Y-31590579D01*
X54458113Y-31650553D01*
X54460723Y-31657684D01*
X54460723Y-31657686D01*
X54509691Y-31791497D01*
X54512553Y-31799319D01*
X54600908Y-31930805D01*
X54606527Y-31935918D01*
X54606528Y-31935919D01*
X54617903Y-31946269D01*
X54718076Y-32037419D01*
X54857293Y-32113008D01*
X55010522Y-32153207D01*
X55094477Y-32154526D01*
X55161319Y-32155576D01*
X55161322Y-32155576D01*
X55168916Y-32155695D01*
X55323332Y-32120329D01*
X55393742Y-32084917D01*
X55458072Y-32052563D01*
X55458075Y-32052561D01*
X55464855Y-32049151D01*
X55470626Y-32044222D01*
X55470629Y-32044220D01*
X55579536Y-31951204D01*
X55579536Y-31951203D01*
X55585314Y-31946269D01*
X55677755Y-31817624D01*
X55736842Y-31670641D01*
X55759162Y-31513807D01*
X55759307Y-31500000D01*
X55758472Y-31493096D01*
X59540729Y-31493096D01*
X59549421Y-31571824D01*
X59551492Y-31590579D01*
X59558113Y-31650553D01*
X59560723Y-31657684D01*
X59560723Y-31657686D01*
X59609691Y-31791497D01*
X59612553Y-31799319D01*
X59700908Y-31930805D01*
X59706527Y-31935918D01*
X59706528Y-31935919D01*
X59717903Y-31946269D01*
X59818076Y-32037419D01*
X59957293Y-32113008D01*
X60110522Y-32153207D01*
X60194477Y-32154526D01*
X60261319Y-32155576D01*
X60261322Y-32155576D01*
X60268916Y-32155695D01*
X60423332Y-32120329D01*
X60493742Y-32084917D01*
X60558072Y-32052563D01*
X60558075Y-32052561D01*
X60564855Y-32049151D01*
X60570626Y-32044222D01*
X60570629Y-32044220D01*
X60679536Y-31951204D01*
X60679536Y-31951203D01*
X60685314Y-31946269D01*
X60777755Y-31817624D01*
X60836842Y-31670641D01*
X60859162Y-31513807D01*
X60859307Y-31500000D01*
X60858472Y-31493096D01*
X62040729Y-31493096D01*
X62049421Y-31571824D01*
X62051492Y-31590579D01*
X62058113Y-31650553D01*
X62060723Y-31657684D01*
X62060723Y-31657686D01*
X62109691Y-31791497D01*
X62112553Y-31799319D01*
X62200908Y-31930805D01*
X62206527Y-31935918D01*
X62206528Y-31935919D01*
X62217903Y-31946269D01*
X62318076Y-32037419D01*
X62457293Y-32113008D01*
X62610522Y-32153207D01*
X62694477Y-32154526D01*
X62761319Y-32155576D01*
X62761322Y-32155576D01*
X62768916Y-32155695D01*
X62923332Y-32120329D01*
X62993742Y-32084917D01*
X63058072Y-32052563D01*
X63058075Y-32052561D01*
X63064855Y-32049151D01*
X63070626Y-32044222D01*
X63070629Y-32044220D01*
X63179536Y-31951204D01*
X63179536Y-31951203D01*
X63185314Y-31946269D01*
X63277755Y-31817624D01*
X63336842Y-31670641D01*
X63359162Y-31513807D01*
X63359307Y-31500000D01*
X63358472Y-31493096D01*
X64640729Y-31493096D01*
X64649421Y-31571824D01*
X64651492Y-31590579D01*
X64658113Y-31650553D01*
X64660723Y-31657684D01*
X64660723Y-31657686D01*
X64709691Y-31791497D01*
X64712553Y-31799319D01*
X64800908Y-31930805D01*
X64806527Y-31935918D01*
X64806528Y-31935919D01*
X64817903Y-31946269D01*
X64918076Y-32037419D01*
X65057293Y-32113008D01*
X65210522Y-32153207D01*
X65294477Y-32154526D01*
X65361319Y-32155576D01*
X65361322Y-32155576D01*
X65368916Y-32155695D01*
X65523332Y-32120329D01*
X65593742Y-32084917D01*
X65658072Y-32052563D01*
X65658075Y-32052561D01*
X65664855Y-32049151D01*
X65670626Y-32044222D01*
X65670629Y-32044220D01*
X65779536Y-31951204D01*
X65779536Y-31951203D01*
X65785314Y-31946269D01*
X65877755Y-31817624D01*
X65936842Y-31670641D01*
X65959162Y-31513807D01*
X65959307Y-31500000D01*
X65958472Y-31493096D01*
X67140729Y-31493096D01*
X67149421Y-31571824D01*
X67151492Y-31590579D01*
X67158113Y-31650553D01*
X67160723Y-31657684D01*
X67160723Y-31657686D01*
X67209691Y-31791497D01*
X67212553Y-31799319D01*
X67300908Y-31930805D01*
X67306527Y-31935918D01*
X67306528Y-31935919D01*
X67317903Y-31946269D01*
X67418076Y-32037419D01*
X67557293Y-32113008D01*
X67710522Y-32153207D01*
X67794477Y-32154526D01*
X67861319Y-32155576D01*
X67861322Y-32155576D01*
X67868916Y-32155695D01*
X68023332Y-32120329D01*
X68093742Y-32084917D01*
X68158072Y-32052563D01*
X68158075Y-32052561D01*
X68164855Y-32049151D01*
X68170626Y-32044222D01*
X68170629Y-32044220D01*
X68279536Y-31951204D01*
X68279536Y-31951203D01*
X68285314Y-31946269D01*
X68377755Y-31817624D01*
X68436842Y-31670641D01*
X68459162Y-31513807D01*
X68459307Y-31500000D01*
X68458472Y-31493096D01*
X69640729Y-31493096D01*
X69649421Y-31571824D01*
X69651492Y-31590579D01*
X69658113Y-31650553D01*
X69660723Y-31657684D01*
X69660723Y-31657686D01*
X69709691Y-31791497D01*
X69712553Y-31799319D01*
X69800908Y-31930805D01*
X69806527Y-31935918D01*
X69806528Y-31935919D01*
X69817903Y-31946269D01*
X69918076Y-32037419D01*
X70057293Y-32113008D01*
X70210522Y-32153207D01*
X70294477Y-32154526D01*
X70361319Y-32155576D01*
X70361322Y-32155576D01*
X70368916Y-32155695D01*
X70523332Y-32120329D01*
X70593742Y-32084917D01*
X70658072Y-32052563D01*
X70658075Y-32052561D01*
X70664855Y-32049151D01*
X70670626Y-32044222D01*
X70670629Y-32044220D01*
X70779536Y-31951204D01*
X70779536Y-31951203D01*
X70785314Y-31946269D01*
X70877755Y-31817624D01*
X70936842Y-31670641D01*
X70959162Y-31513807D01*
X70959307Y-31500000D01*
X70958472Y-31493096D01*
X72240729Y-31493096D01*
X72249421Y-31571824D01*
X72251492Y-31590579D01*
X72258113Y-31650553D01*
X72260723Y-31657684D01*
X72260723Y-31657686D01*
X72309691Y-31791497D01*
X72312553Y-31799319D01*
X72400908Y-31930805D01*
X72406527Y-31935918D01*
X72406528Y-31935919D01*
X72417903Y-31946269D01*
X72518076Y-32037419D01*
X72657293Y-32113008D01*
X72810522Y-32153207D01*
X72894477Y-32154526D01*
X72961319Y-32155576D01*
X72961322Y-32155576D01*
X72968916Y-32155695D01*
X73123332Y-32120329D01*
X73193742Y-32084917D01*
X73258072Y-32052563D01*
X73258075Y-32052561D01*
X73264855Y-32049151D01*
X73270626Y-32044222D01*
X73270629Y-32044220D01*
X73379536Y-31951204D01*
X73379536Y-31951203D01*
X73385314Y-31946269D01*
X73477755Y-31817624D01*
X73536842Y-31670641D01*
X73559162Y-31513807D01*
X73559307Y-31500000D01*
X73558472Y-31493096D01*
X74740729Y-31493096D01*
X74749421Y-31571824D01*
X74751492Y-31590579D01*
X74758113Y-31650553D01*
X74760723Y-31657684D01*
X74760723Y-31657686D01*
X74809691Y-31791497D01*
X74812553Y-31799319D01*
X74900908Y-31930805D01*
X74906527Y-31935918D01*
X74906528Y-31935919D01*
X74917903Y-31946269D01*
X75018076Y-32037419D01*
X75157293Y-32113008D01*
X75310522Y-32153207D01*
X75394477Y-32154526D01*
X75461319Y-32155576D01*
X75461322Y-32155576D01*
X75468916Y-32155695D01*
X75623332Y-32120329D01*
X75693742Y-32084917D01*
X75758072Y-32052563D01*
X75758075Y-32052561D01*
X75764855Y-32049151D01*
X75770626Y-32044222D01*
X75770629Y-32044220D01*
X75879536Y-31951204D01*
X75879536Y-31951203D01*
X75885314Y-31946269D01*
X75977755Y-31817624D01*
X76036842Y-31670641D01*
X76059162Y-31513807D01*
X76059307Y-31500000D01*
X76058472Y-31493096D01*
X77240729Y-31493096D01*
X77249421Y-31571824D01*
X77251492Y-31590579D01*
X77258113Y-31650553D01*
X77260723Y-31657684D01*
X77260723Y-31657686D01*
X77309691Y-31791497D01*
X77312553Y-31799319D01*
X77400908Y-31930805D01*
X77406527Y-31935918D01*
X77406528Y-31935919D01*
X77417903Y-31946269D01*
X77518076Y-32037419D01*
X77657293Y-32113008D01*
X77810522Y-32153207D01*
X77894477Y-32154526D01*
X77961319Y-32155576D01*
X77961322Y-32155576D01*
X77968916Y-32155695D01*
X78123332Y-32120329D01*
X78193742Y-32084917D01*
X78258072Y-32052563D01*
X78258075Y-32052561D01*
X78264855Y-32049151D01*
X78270626Y-32044222D01*
X78270629Y-32044220D01*
X78379536Y-31951204D01*
X78379536Y-31951203D01*
X78385314Y-31946269D01*
X78477755Y-31817624D01*
X78536842Y-31670641D01*
X78559162Y-31513807D01*
X78559307Y-31500000D01*
X78558472Y-31493096D01*
X79840729Y-31493096D01*
X79849421Y-31571824D01*
X79851492Y-31590579D01*
X79858113Y-31650553D01*
X79860723Y-31657684D01*
X79860723Y-31657686D01*
X79909691Y-31791497D01*
X79912553Y-31799319D01*
X80000908Y-31930805D01*
X80006527Y-31935918D01*
X80006528Y-31935919D01*
X80017903Y-31946269D01*
X80118076Y-32037419D01*
X80257293Y-32113008D01*
X80410522Y-32153207D01*
X80494477Y-32154526D01*
X80561319Y-32155576D01*
X80561322Y-32155576D01*
X80568916Y-32155695D01*
X80723332Y-32120329D01*
X80793742Y-32084917D01*
X80858072Y-32052563D01*
X80858075Y-32052561D01*
X80864855Y-32049151D01*
X80870626Y-32044222D01*
X80870629Y-32044220D01*
X80979536Y-31951204D01*
X80979536Y-31951203D01*
X80985314Y-31946269D01*
X81077755Y-31817624D01*
X81136842Y-31670641D01*
X81159162Y-31513807D01*
X81159307Y-31500000D01*
X81158472Y-31493096D01*
X82340729Y-31493096D01*
X82349421Y-31571824D01*
X82351492Y-31590579D01*
X82358113Y-31650553D01*
X82360723Y-31657684D01*
X82360723Y-31657686D01*
X82409691Y-31791497D01*
X82412553Y-31799319D01*
X82500908Y-31930805D01*
X82506527Y-31935918D01*
X82506528Y-31935919D01*
X82517903Y-31946269D01*
X82618076Y-32037419D01*
X82757293Y-32113008D01*
X82910522Y-32153207D01*
X82994477Y-32154526D01*
X83061319Y-32155576D01*
X83061322Y-32155576D01*
X83068916Y-32155695D01*
X83223332Y-32120329D01*
X83293742Y-32084917D01*
X83358072Y-32052563D01*
X83358075Y-32052561D01*
X83364855Y-32049151D01*
X83370626Y-32044222D01*
X83370629Y-32044220D01*
X83479536Y-31951204D01*
X83479536Y-31951203D01*
X83485314Y-31946269D01*
X83577755Y-31817624D01*
X83636842Y-31670641D01*
X83659162Y-31513807D01*
X83659307Y-31500000D01*
X83658472Y-31493096D01*
X84940729Y-31493096D01*
X84949421Y-31571824D01*
X84951492Y-31590579D01*
X84958113Y-31650553D01*
X84960723Y-31657684D01*
X84960723Y-31657686D01*
X85009691Y-31791497D01*
X85012553Y-31799319D01*
X85100908Y-31930805D01*
X85106527Y-31935918D01*
X85106528Y-31935919D01*
X85117903Y-31946269D01*
X85218076Y-32037419D01*
X85357293Y-32113008D01*
X85510522Y-32153207D01*
X85594477Y-32154526D01*
X85661319Y-32155576D01*
X85661322Y-32155576D01*
X85668916Y-32155695D01*
X85823332Y-32120329D01*
X85893742Y-32084917D01*
X85958072Y-32052563D01*
X85958075Y-32052561D01*
X85964855Y-32049151D01*
X85970626Y-32044222D01*
X85970629Y-32044220D01*
X86079536Y-31951204D01*
X86079536Y-31951203D01*
X86085314Y-31946269D01*
X86177755Y-31817624D01*
X86236842Y-31670641D01*
X86259162Y-31513807D01*
X86259307Y-31500000D01*
X86258472Y-31493096D01*
X87440729Y-31493096D01*
X87449421Y-31571824D01*
X87451492Y-31590579D01*
X87458113Y-31650553D01*
X87460723Y-31657684D01*
X87460723Y-31657686D01*
X87509691Y-31791497D01*
X87512553Y-31799319D01*
X87600908Y-31930805D01*
X87606527Y-31935918D01*
X87606528Y-31935919D01*
X87617903Y-31946269D01*
X87718076Y-32037419D01*
X87857293Y-32113008D01*
X88010522Y-32153207D01*
X88094477Y-32154526D01*
X88161319Y-32155576D01*
X88161322Y-32155576D01*
X88168916Y-32155695D01*
X88323332Y-32120329D01*
X88393742Y-32084917D01*
X88458072Y-32052563D01*
X88458075Y-32052561D01*
X88464855Y-32049151D01*
X88470626Y-32044222D01*
X88470629Y-32044220D01*
X88579536Y-31951204D01*
X88579536Y-31951203D01*
X88585314Y-31946269D01*
X88677755Y-31817624D01*
X88736842Y-31670641D01*
X88759162Y-31513807D01*
X88759307Y-31500000D01*
X88740276Y-31342733D01*
X88684280Y-31194546D01*
X88599013Y-31070481D01*
X88576913Y-31003013D01*
X88594798Y-30934306D01*
X88600531Y-30925589D01*
X88677755Y-30818121D01*
X88736842Y-30671138D01*
X88756877Y-30530359D01*
X88758581Y-30518388D01*
X88758581Y-30518385D01*
X88759162Y-30514304D01*
X88759255Y-30505475D01*
X88759264Y-30504631D01*
X88759264Y-30504625D01*
X88759307Y-30500497D01*
X88759247Y-30500000D01*
X90240708Y-30500000D01*
X90259839Y-30718674D01*
X90316653Y-30930703D01*
X90353795Y-31010355D01*
X90407095Y-31124659D01*
X90407098Y-31124664D01*
X90409421Y-31129646D01*
X90412577Y-31134153D01*
X90412578Y-31134155D01*
X90455068Y-31194836D01*
X90535326Y-31309457D01*
X90690543Y-31464674D01*
X90695051Y-31467831D01*
X90695054Y-31467833D01*
X90865845Y-31587422D01*
X90870354Y-31590579D01*
X90875336Y-31592902D01*
X90875341Y-31592905D01*
X90976116Y-31639896D01*
X91069297Y-31683347D01*
X91281326Y-31740161D01*
X91500000Y-31759292D01*
X91718674Y-31740161D01*
X91746630Y-31732670D01*
X95632160Y-31732670D01*
X95637887Y-31740320D01*
X95809042Y-31845205D01*
X95817837Y-31849687D01*
X96027988Y-31936734D01*
X96037373Y-31939783D01*
X96258554Y-31992885D01*
X96268301Y-31994428D01*
X96495070Y-32012275D01*
X96504930Y-32012275D01*
X96731699Y-31994428D01*
X96741446Y-31992885D01*
X96962627Y-31939783D01*
X96972012Y-31936734D01*
X97182163Y-31849687D01*
X97190958Y-31845205D01*
X97358445Y-31742568D01*
X97367907Y-31732110D01*
X97364124Y-31723334D01*
X96512812Y-30872022D01*
X96498868Y-30864408D01*
X96497035Y-30864539D01*
X96490420Y-30868790D01*
X95638920Y-31720290D01*
X95632160Y-31732670D01*
X91746630Y-31732670D01*
X91930703Y-31683347D01*
X92023884Y-31639896D01*
X92124659Y-31592905D01*
X92124664Y-31592902D01*
X92129646Y-31590579D01*
X92134155Y-31587422D01*
X92304946Y-31467833D01*
X92304949Y-31467831D01*
X92309457Y-31464674D01*
X92464674Y-31309457D01*
X92544933Y-31194836D01*
X92587422Y-31134155D01*
X92587423Y-31134153D01*
X92590579Y-31129646D01*
X92592902Y-31124664D01*
X92592905Y-31124659D01*
X92646205Y-31010355D01*
X92683347Y-30930703D01*
X92740161Y-30718674D01*
X92758861Y-30504930D01*
X94987725Y-30504930D01*
X95005572Y-30731699D01*
X95007115Y-30741446D01*
X95060217Y-30962627D01*
X95063266Y-30972012D01*
X95150313Y-31182163D01*
X95154795Y-31190958D01*
X95257432Y-31358445D01*
X95267890Y-31367907D01*
X95276666Y-31364124D01*
X96127978Y-30512812D01*
X96134356Y-30501132D01*
X96864408Y-30501132D01*
X96864539Y-30502965D01*
X96868790Y-30509580D01*
X97720290Y-31361080D01*
X97732670Y-31367840D01*
X97740320Y-31362113D01*
X97845205Y-31190958D01*
X97849687Y-31182163D01*
X97936734Y-30972012D01*
X97939783Y-30962627D01*
X97992885Y-30741446D01*
X97994428Y-30731699D01*
X98012275Y-30504930D01*
X98012275Y-30495070D01*
X97994428Y-30268301D01*
X97992885Y-30258554D01*
X97939783Y-30037373D01*
X97936734Y-30027988D01*
X97849687Y-29817837D01*
X97845205Y-29809042D01*
X97742568Y-29641555D01*
X97732110Y-29632093D01*
X97723334Y-29635876D01*
X96872022Y-30487188D01*
X96864408Y-30501132D01*
X96134356Y-30501132D01*
X96135592Y-30498868D01*
X96135461Y-30497035D01*
X96131210Y-30490420D01*
X95279710Y-29638920D01*
X95267330Y-29632160D01*
X95259680Y-29637887D01*
X95154795Y-29809042D01*
X95150313Y-29817837D01*
X95063266Y-30027988D01*
X95060217Y-30037373D01*
X95007115Y-30258554D01*
X95005572Y-30268301D01*
X94987725Y-30495070D01*
X94987725Y-30504930D01*
X92758861Y-30504930D01*
X92759292Y-30500000D01*
X92740161Y-30281326D01*
X92683347Y-30069297D01*
X92630142Y-29955197D01*
X92592905Y-29875341D01*
X92592902Y-29875336D01*
X92590579Y-29870354D01*
X92587422Y-29865845D01*
X92467833Y-29695054D01*
X92467831Y-29695051D01*
X92464674Y-29690543D01*
X92309457Y-29535326D01*
X92304949Y-29532169D01*
X92304946Y-29532167D01*
X92134155Y-29412578D01*
X92134153Y-29412577D01*
X92129646Y-29409421D01*
X92124664Y-29407098D01*
X92124659Y-29407095D01*
X92023884Y-29360104D01*
X91930703Y-29316653D01*
X91748720Y-29267890D01*
X95632093Y-29267890D01*
X95635876Y-29276666D01*
X96487188Y-30127978D01*
X96501132Y-30135592D01*
X96502965Y-30135461D01*
X96509580Y-30131210D01*
X97361080Y-29279710D01*
X97367840Y-29267330D01*
X97362113Y-29259680D01*
X97190958Y-29154795D01*
X97182163Y-29150313D01*
X96972012Y-29063266D01*
X96962627Y-29060217D01*
X96741446Y-29007115D01*
X96731699Y-29005572D01*
X96504930Y-28987725D01*
X96495070Y-28987725D01*
X96268301Y-29005572D01*
X96258554Y-29007115D01*
X96037373Y-29060217D01*
X96027988Y-29063266D01*
X95817837Y-29150313D01*
X95809042Y-29154795D01*
X95641555Y-29257432D01*
X95632093Y-29267890D01*
X91748720Y-29267890D01*
X91718674Y-29259839D01*
X91500000Y-29240708D01*
X91281326Y-29259839D01*
X91069297Y-29316653D01*
X90976116Y-29360104D01*
X90875341Y-29407095D01*
X90875336Y-29407098D01*
X90870354Y-29409421D01*
X90865847Y-29412577D01*
X90865845Y-29412578D01*
X90695054Y-29532167D01*
X90695051Y-29532169D01*
X90690543Y-29535326D01*
X90535326Y-29690543D01*
X90532169Y-29695051D01*
X90532167Y-29695054D01*
X90412578Y-29865845D01*
X90409421Y-29870354D01*
X90407098Y-29875336D01*
X90407095Y-29875341D01*
X90369858Y-29955197D01*
X90316653Y-30069297D01*
X90259839Y-30281326D01*
X90240708Y-30500000D01*
X88759247Y-30500000D01*
X88758389Y-30492906D01*
X88741188Y-30350770D01*
X88740276Y-30343230D01*
X88684280Y-30195043D01*
X88594553Y-30064489D01*
X88588211Y-30058838D01*
X88481946Y-29964161D01*
X88476275Y-29959108D01*
X88468889Y-29955197D01*
X88342988Y-29888536D01*
X88342989Y-29888536D01*
X88336274Y-29884981D01*
X88182633Y-29846389D01*
X88175034Y-29846349D01*
X88175033Y-29846349D01*
X88109181Y-29846004D01*
X88024221Y-29845559D01*
X88016841Y-29847331D01*
X88016839Y-29847331D01*
X87877563Y-29880768D01*
X87877560Y-29880769D01*
X87870184Y-29882540D01*
X87729414Y-29955197D01*
X87610039Y-30059335D01*
X87518950Y-30188941D01*
X87513802Y-30202146D01*
X87464269Y-30329192D01*
X87461406Y-30336534D01*
X87460414Y-30344067D01*
X87460414Y-30344068D01*
X87441786Y-30485565D01*
X87440729Y-30493593D01*
X87444448Y-30527279D01*
X87457225Y-30643003D01*
X87458113Y-30651050D01*
X87460723Y-30658181D01*
X87460723Y-30658183D01*
X87484803Y-30723984D01*
X87512553Y-30799816D01*
X87516789Y-30806119D01*
X87516789Y-30806120D01*
X87600883Y-30931265D01*
X87622275Y-30998962D01*
X87603671Y-31067478D01*
X87599388Y-31073992D01*
X87523319Y-31182227D01*
X87523318Y-31182229D01*
X87518950Y-31188444D01*
X87516190Y-31195524D01*
X87464435Y-31328269D01*
X87461406Y-31336037D01*
X87460414Y-31343570D01*
X87460414Y-31343571D01*
X87444055Y-31467833D01*
X87440729Y-31493096D01*
X86258472Y-31493096D01*
X86240276Y-31342733D01*
X86184280Y-31194546D01*
X86099013Y-31070481D01*
X86076913Y-31003013D01*
X86094798Y-30934306D01*
X86100531Y-30925589D01*
X86177755Y-30818121D01*
X86236842Y-30671138D01*
X86256877Y-30530359D01*
X86258581Y-30518388D01*
X86258581Y-30518385D01*
X86259162Y-30514304D01*
X86259255Y-30505475D01*
X86259264Y-30504631D01*
X86259264Y-30504625D01*
X86259307Y-30500497D01*
X86258389Y-30492906D01*
X86241188Y-30350770D01*
X86240276Y-30343230D01*
X86184280Y-30195043D01*
X86094553Y-30064489D01*
X86088211Y-30058838D01*
X85981946Y-29964161D01*
X85976275Y-29959108D01*
X85968889Y-29955197D01*
X85842988Y-29888536D01*
X85842989Y-29888536D01*
X85836274Y-29884981D01*
X85682633Y-29846389D01*
X85675034Y-29846349D01*
X85675033Y-29846349D01*
X85609181Y-29846004D01*
X85524221Y-29845559D01*
X85516841Y-29847331D01*
X85516839Y-29847331D01*
X85377563Y-29880768D01*
X85377560Y-29880769D01*
X85370184Y-29882540D01*
X85229414Y-29955197D01*
X85110039Y-30059335D01*
X85018950Y-30188941D01*
X85013802Y-30202146D01*
X84964269Y-30329192D01*
X84961406Y-30336534D01*
X84960414Y-30344067D01*
X84960414Y-30344068D01*
X84941786Y-30485565D01*
X84940729Y-30493593D01*
X84944448Y-30527279D01*
X84957225Y-30643003D01*
X84958113Y-30651050D01*
X84960723Y-30658181D01*
X84960723Y-30658183D01*
X84984803Y-30723984D01*
X85012553Y-30799816D01*
X85016789Y-30806119D01*
X85016789Y-30806120D01*
X85100883Y-30931265D01*
X85122275Y-30998962D01*
X85103671Y-31067478D01*
X85099388Y-31073992D01*
X85023319Y-31182227D01*
X85023318Y-31182229D01*
X85018950Y-31188444D01*
X85016190Y-31195524D01*
X84964435Y-31328269D01*
X84961406Y-31336037D01*
X84960414Y-31343570D01*
X84960414Y-31343571D01*
X84944055Y-31467833D01*
X84940729Y-31493096D01*
X83658472Y-31493096D01*
X83640276Y-31342733D01*
X83584280Y-31194546D01*
X83499013Y-31070481D01*
X83476913Y-31003013D01*
X83494798Y-30934306D01*
X83500531Y-30925589D01*
X83577755Y-30818121D01*
X83636842Y-30671138D01*
X83656877Y-30530359D01*
X83658581Y-30518388D01*
X83658581Y-30518385D01*
X83659162Y-30514304D01*
X83659255Y-30505475D01*
X83659264Y-30504631D01*
X83659264Y-30504625D01*
X83659307Y-30500497D01*
X83658389Y-30492906D01*
X83641188Y-30350770D01*
X83640276Y-30343230D01*
X83584280Y-30195043D01*
X83494553Y-30064489D01*
X83488211Y-30058838D01*
X83381946Y-29964161D01*
X83376275Y-29959108D01*
X83368889Y-29955197D01*
X83242988Y-29888536D01*
X83242989Y-29888536D01*
X83236274Y-29884981D01*
X83082633Y-29846389D01*
X83075034Y-29846349D01*
X83075033Y-29846349D01*
X83009181Y-29846004D01*
X82924221Y-29845559D01*
X82916841Y-29847331D01*
X82916839Y-29847331D01*
X82777563Y-29880768D01*
X82777560Y-29880769D01*
X82770184Y-29882540D01*
X82629414Y-29955197D01*
X82510039Y-30059335D01*
X82418950Y-30188941D01*
X82413802Y-30202146D01*
X82364269Y-30329192D01*
X82361406Y-30336534D01*
X82360414Y-30344067D01*
X82360414Y-30344068D01*
X82341786Y-30485565D01*
X82340729Y-30493593D01*
X82344448Y-30527279D01*
X82357225Y-30643003D01*
X82358113Y-30651050D01*
X82360723Y-30658181D01*
X82360723Y-30658183D01*
X82384803Y-30723984D01*
X82412553Y-30799816D01*
X82416789Y-30806119D01*
X82416789Y-30806120D01*
X82500883Y-30931265D01*
X82522275Y-30998962D01*
X82503671Y-31067478D01*
X82499388Y-31073992D01*
X82423319Y-31182227D01*
X82423318Y-31182229D01*
X82418950Y-31188444D01*
X82416190Y-31195524D01*
X82364435Y-31328269D01*
X82361406Y-31336037D01*
X82360414Y-31343570D01*
X82360414Y-31343571D01*
X82344055Y-31467833D01*
X82340729Y-31493096D01*
X81158472Y-31493096D01*
X81140276Y-31342733D01*
X81084280Y-31194546D01*
X81000609Y-31072804D01*
X80998839Y-31070228D01*
X80976739Y-31002759D01*
X80994625Y-30934052D01*
X81000349Y-30925345D01*
X81077755Y-30817624D01*
X81136842Y-30670641D01*
X81156430Y-30533003D01*
X81158581Y-30517891D01*
X81158581Y-30517888D01*
X81159162Y-30513807D01*
X81159250Y-30505475D01*
X81159264Y-30504134D01*
X81159264Y-30504128D01*
X81159307Y-30500000D01*
X81158711Y-30495070D01*
X81155102Y-30465254D01*
X81140276Y-30342733D01*
X81084280Y-30194546D01*
X81001849Y-30074608D01*
X80998855Y-30070251D01*
X80998854Y-30070249D01*
X80994553Y-30063992D01*
X80876275Y-29958611D01*
X80868889Y-29954700D01*
X80742988Y-29888039D01*
X80742989Y-29888039D01*
X80736274Y-29884484D01*
X80582633Y-29845892D01*
X80575034Y-29845852D01*
X80575033Y-29845852D01*
X80509181Y-29845507D01*
X80424221Y-29845062D01*
X80416841Y-29846834D01*
X80416839Y-29846834D01*
X80277563Y-29880271D01*
X80277560Y-29880272D01*
X80270184Y-29882043D01*
X80129414Y-29954700D01*
X80010039Y-30058838D01*
X79918950Y-30188444D01*
X79861406Y-30336037D01*
X79860414Y-30343570D01*
X79860414Y-30343571D01*
X79842038Y-30483154D01*
X79840729Y-30493096D01*
X79858113Y-30650553D01*
X79860723Y-30657684D01*
X79860723Y-30657686D01*
X79909873Y-30791995D01*
X79912553Y-30799319D01*
X79916789Y-30805622D01*
X79916789Y-30805623D01*
X80000908Y-30930805D01*
X79998109Y-30932686D01*
X80021235Y-30983528D01*
X80011026Y-31053787D01*
X79999580Y-31073720D01*
X79918950Y-31188444D01*
X79916190Y-31195524D01*
X79864435Y-31328269D01*
X79861406Y-31336037D01*
X79860414Y-31343570D01*
X79860414Y-31343571D01*
X79844055Y-31467833D01*
X79840729Y-31493096D01*
X78558472Y-31493096D01*
X78540276Y-31342733D01*
X78484280Y-31194546D01*
X78399013Y-31070481D01*
X78376913Y-31003013D01*
X78394798Y-30934306D01*
X78400531Y-30925589D01*
X78477755Y-30818121D01*
X78536842Y-30671138D01*
X78556877Y-30530359D01*
X78558581Y-30518388D01*
X78558581Y-30518385D01*
X78559162Y-30514304D01*
X78559255Y-30505475D01*
X78559264Y-30504631D01*
X78559264Y-30504625D01*
X78559307Y-30500497D01*
X78558389Y-30492906D01*
X78541188Y-30350770D01*
X78540276Y-30343230D01*
X78484280Y-30195043D01*
X78394553Y-30064489D01*
X78388211Y-30058838D01*
X78281946Y-29964161D01*
X78276275Y-29959108D01*
X78268889Y-29955197D01*
X78142988Y-29888536D01*
X78142989Y-29888536D01*
X78136274Y-29884981D01*
X77982633Y-29846389D01*
X77975034Y-29846349D01*
X77975033Y-29846349D01*
X77909181Y-29846004D01*
X77824221Y-29845559D01*
X77816841Y-29847331D01*
X77816839Y-29847331D01*
X77677563Y-29880768D01*
X77677560Y-29880769D01*
X77670184Y-29882540D01*
X77529414Y-29955197D01*
X77410039Y-30059335D01*
X77318950Y-30188941D01*
X77313802Y-30202146D01*
X77264269Y-30329192D01*
X77261406Y-30336534D01*
X77260414Y-30344067D01*
X77260414Y-30344068D01*
X77241786Y-30485565D01*
X77240729Y-30493593D01*
X77244448Y-30527279D01*
X77257225Y-30643003D01*
X77258113Y-30651050D01*
X77260723Y-30658181D01*
X77260723Y-30658183D01*
X77284803Y-30723984D01*
X77312553Y-30799816D01*
X77316789Y-30806119D01*
X77316789Y-30806120D01*
X77400883Y-30931265D01*
X77422275Y-30998962D01*
X77403671Y-31067478D01*
X77399388Y-31073992D01*
X77323319Y-31182227D01*
X77323318Y-31182229D01*
X77318950Y-31188444D01*
X77316190Y-31195524D01*
X77264435Y-31328269D01*
X77261406Y-31336037D01*
X77260414Y-31343570D01*
X77260414Y-31343571D01*
X77244055Y-31467833D01*
X77240729Y-31493096D01*
X76058472Y-31493096D01*
X76040276Y-31342733D01*
X75984280Y-31194546D01*
X75899013Y-31070481D01*
X75876913Y-31003013D01*
X75894798Y-30934306D01*
X75900531Y-30925589D01*
X75977755Y-30818121D01*
X76036842Y-30671138D01*
X76056877Y-30530359D01*
X76058581Y-30518388D01*
X76058581Y-30518385D01*
X76059162Y-30514304D01*
X76059255Y-30505475D01*
X76059264Y-30504631D01*
X76059264Y-30504625D01*
X76059307Y-30500497D01*
X76058389Y-30492906D01*
X76041188Y-30350770D01*
X76040276Y-30343230D01*
X75984280Y-30195043D01*
X75894553Y-30064489D01*
X75888211Y-30058838D01*
X75781946Y-29964161D01*
X75776275Y-29959108D01*
X75768889Y-29955197D01*
X75642988Y-29888536D01*
X75642989Y-29888536D01*
X75636274Y-29884981D01*
X75482633Y-29846389D01*
X75475034Y-29846349D01*
X75475033Y-29846349D01*
X75409181Y-29846004D01*
X75324221Y-29845559D01*
X75316841Y-29847331D01*
X75316839Y-29847331D01*
X75177563Y-29880768D01*
X75177560Y-29880769D01*
X75170184Y-29882540D01*
X75029414Y-29955197D01*
X74910039Y-30059335D01*
X74818950Y-30188941D01*
X74813802Y-30202146D01*
X74764269Y-30329192D01*
X74761406Y-30336534D01*
X74760414Y-30344067D01*
X74760414Y-30344068D01*
X74741786Y-30485565D01*
X74740729Y-30493593D01*
X74744448Y-30527279D01*
X74757225Y-30643003D01*
X74758113Y-30651050D01*
X74760723Y-30658181D01*
X74760723Y-30658183D01*
X74784803Y-30723984D01*
X74812553Y-30799816D01*
X74816789Y-30806119D01*
X74816789Y-30806120D01*
X74900883Y-30931265D01*
X74922275Y-30998962D01*
X74903671Y-31067478D01*
X74899388Y-31073992D01*
X74823319Y-31182227D01*
X74823318Y-31182229D01*
X74818950Y-31188444D01*
X74816190Y-31195524D01*
X74764435Y-31328269D01*
X74761406Y-31336037D01*
X74760414Y-31343570D01*
X74760414Y-31343571D01*
X74744055Y-31467833D01*
X74740729Y-31493096D01*
X73558472Y-31493096D01*
X73540276Y-31342733D01*
X73484280Y-31194546D01*
X73399013Y-31070481D01*
X73376913Y-31003013D01*
X73394798Y-30934306D01*
X73400531Y-30925589D01*
X73477755Y-30818121D01*
X73536842Y-30671138D01*
X73556877Y-30530359D01*
X73558581Y-30518388D01*
X73558581Y-30518385D01*
X73559162Y-30514304D01*
X73559255Y-30505475D01*
X73559264Y-30504631D01*
X73559264Y-30504625D01*
X73559307Y-30500497D01*
X73558389Y-30492906D01*
X73541188Y-30350770D01*
X73540276Y-30343230D01*
X73484280Y-30195043D01*
X73394553Y-30064489D01*
X73388211Y-30058838D01*
X73281946Y-29964161D01*
X73276275Y-29959108D01*
X73268889Y-29955197D01*
X73142988Y-29888536D01*
X73142989Y-29888536D01*
X73136274Y-29884981D01*
X72982633Y-29846389D01*
X72975034Y-29846349D01*
X72975033Y-29846349D01*
X72909181Y-29846004D01*
X72824221Y-29845559D01*
X72816841Y-29847331D01*
X72816839Y-29847331D01*
X72677563Y-29880768D01*
X72677560Y-29880769D01*
X72670184Y-29882540D01*
X72529414Y-29955197D01*
X72410039Y-30059335D01*
X72318950Y-30188941D01*
X72313802Y-30202146D01*
X72264269Y-30329192D01*
X72261406Y-30336534D01*
X72260414Y-30344067D01*
X72260414Y-30344068D01*
X72241786Y-30485565D01*
X72240729Y-30493593D01*
X72244448Y-30527279D01*
X72257225Y-30643003D01*
X72258113Y-30651050D01*
X72260723Y-30658181D01*
X72260723Y-30658183D01*
X72284803Y-30723984D01*
X72312553Y-30799816D01*
X72316789Y-30806119D01*
X72316789Y-30806120D01*
X72400883Y-30931265D01*
X72422275Y-30998962D01*
X72403671Y-31067478D01*
X72399388Y-31073992D01*
X72323319Y-31182227D01*
X72323318Y-31182229D01*
X72318950Y-31188444D01*
X72316190Y-31195524D01*
X72264435Y-31328269D01*
X72261406Y-31336037D01*
X72260414Y-31343570D01*
X72260414Y-31343571D01*
X72244055Y-31467833D01*
X72240729Y-31493096D01*
X70958472Y-31493096D01*
X70940276Y-31342733D01*
X70884280Y-31194546D01*
X70800609Y-31072804D01*
X70798839Y-31070228D01*
X70776739Y-31002759D01*
X70794625Y-30934052D01*
X70800349Y-30925345D01*
X70877755Y-30817624D01*
X70936842Y-30670641D01*
X70956430Y-30533003D01*
X70958581Y-30517891D01*
X70958581Y-30517888D01*
X70959162Y-30513807D01*
X70959250Y-30505475D01*
X70959264Y-30504134D01*
X70959264Y-30504128D01*
X70959307Y-30500000D01*
X70958711Y-30495070D01*
X70955102Y-30465254D01*
X70940276Y-30342733D01*
X70884280Y-30194546D01*
X70801849Y-30074608D01*
X70798855Y-30070251D01*
X70798854Y-30070249D01*
X70794553Y-30063992D01*
X70676275Y-29958611D01*
X70668889Y-29954700D01*
X70542988Y-29888039D01*
X70542989Y-29888039D01*
X70536274Y-29884484D01*
X70382633Y-29845892D01*
X70375034Y-29845852D01*
X70375033Y-29845852D01*
X70309181Y-29845507D01*
X70224221Y-29845062D01*
X70216841Y-29846834D01*
X70216839Y-29846834D01*
X70077563Y-29880271D01*
X70077560Y-29880272D01*
X70070184Y-29882043D01*
X69929414Y-29954700D01*
X69810039Y-30058838D01*
X69718950Y-30188444D01*
X69661406Y-30336037D01*
X69660414Y-30343570D01*
X69660414Y-30343571D01*
X69642038Y-30483154D01*
X69640729Y-30493096D01*
X69658113Y-30650553D01*
X69660723Y-30657684D01*
X69660723Y-30657686D01*
X69709873Y-30791995D01*
X69712553Y-30799319D01*
X69716789Y-30805622D01*
X69716789Y-30805623D01*
X69800908Y-30930805D01*
X69798109Y-30932686D01*
X69821235Y-30983528D01*
X69811026Y-31053787D01*
X69799580Y-31073720D01*
X69718950Y-31188444D01*
X69716190Y-31195524D01*
X69664435Y-31328269D01*
X69661406Y-31336037D01*
X69660414Y-31343570D01*
X69660414Y-31343571D01*
X69644055Y-31467833D01*
X69640729Y-31493096D01*
X68458472Y-31493096D01*
X68440276Y-31342733D01*
X68384280Y-31194546D01*
X68299013Y-31070481D01*
X68276913Y-31003013D01*
X68294798Y-30934306D01*
X68300531Y-30925589D01*
X68377755Y-30818121D01*
X68436842Y-30671138D01*
X68456877Y-30530359D01*
X68458581Y-30518388D01*
X68458581Y-30518385D01*
X68459162Y-30514304D01*
X68459255Y-30505475D01*
X68459264Y-30504631D01*
X68459264Y-30504625D01*
X68459307Y-30500497D01*
X68458389Y-30492906D01*
X68441188Y-30350770D01*
X68440276Y-30343230D01*
X68384280Y-30195043D01*
X68294553Y-30064489D01*
X68288211Y-30058838D01*
X68181946Y-29964161D01*
X68176275Y-29959108D01*
X68168889Y-29955197D01*
X68042988Y-29888536D01*
X68042989Y-29888536D01*
X68036274Y-29884981D01*
X67882633Y-29846389D01*
X67875034Y-29846349D01*
X67875033Y-29846349D01*
X67809181Y-29846004D01*
X67724221Y-29845559D01*
X67716841Y-29847331D01*
X67716839Y-29847331D01*
X67577563Y-29880768D01*
X67577560Y-29880769D01*
X67570184Y-29882540D01*
X67429414Y-29955197D01*
X67310039Y-30059335D01*
X67218950Y-30188941D01*
X67213802Y-30202146D01*
X67164269Y-30329192D01*
X67161406Y-30336534D01*
X67160414Y-30344067D01*
X67160414Y-30344068D01*
X67141786Y-30485565D01*
X67140729Y-30493593D01*
X67144448Y-30527279D01*
X67157225Y-30643003D01*
X67158113Y-30651050D01*
X67160723Y-30658181D01*
X67160723Y-30658183D01*
X67184803Y-30723984D01*
X67212553Y-30799816D01*
X67216789Y-30806119D01*
X67216789Y-30806120D01*
X67300883Y-30931265D01*
X67322275Y-30998962D01*
X67303671Y-31067478D01*
X67299388Y-31073992D01*
X67223319Y-31182227D01*
X67223318Y-31182229D01*
X67218950Y-31188444D01*
X67216190Y-31195524D01*
X67164435Y-31328269D01*
X67161406Y-31336037D01*
X67160414Y-31343570D01*
X67160414Y-31343571D01*
X67144055Y-31467833D01*
X67140729Y-31493096D01*
X65958472Y-31493096D01*
X65940276Y-31342733D01*
X65884280Y-31194546D01*
X65800609Y-31072804D01*
X65798839Y-31070228D01*
X65776739Y-31002759D01*
X65794625Y-30934052D01*
X65800349Y-30925345D01*
X65877755Y-30817624D01*
X65936842Y-30670641D01*
X65956430Y-30533003D01*
X65958581Y-30517891D01*
X65958581Y-30517888D01*
X65959162Y-30513807D01*
X65959250Y-30505475D01*
X65959264Y-30504134D01*
X65959264Y-30504128D01*
X65959307Y-30500000D01*
X65958711Y-30495070D01*
X65955102Y-30465254D01*
X65940276Y-30342733D01*
X65884280Y-30194546D01*
X65801849Y-30074608D01*
X65798855Y-30070251D01*
X65798854Y-30070249D01*
X65794553Y-30063992D01*
X65676275Y-29958611D01*
X65668889Y-29954700D01*
X65542988Y-29888039D01*
X65542989Y-29888039D01*
X65536274Y-29884484D01*
X65382633Y-29845892D01*
X65375034Y-29845852D01*
X65375033Y-29845852D01*
X65309181Y-29845507D01*
X65224221Y-29845062D01*
X65216841Y-29846834D01*
X65216839Y-29846834D01*
X65077563Y-29880271D01*
X65077560Y-29880272D01*
X65070184Y-29882043D01*
X64929414Y-29954700D01*
X64810039Y-30058838D01*
X64718950Y-30188444D01*
X64661406Y-30336037D01*
X64660414Y-30343570D01*
X64660414Y-30343571D01*
X64642038Y-30483154D01*
X64640729Y-30493096D01*
X64658113Y-30650553D01*
X64660723Y-30657684D01*
X64660723Y-30657686D01*
X64709873Y-30791995D01*
X64712553Y-30799319D01*
X64716789Y-30805622D01*
X64716789Y-30805623D01*
X64800908Y-30930805D01*
X64798109Y-30932686D01*
X64821235Y-30983528D01*
X64811026Y-31053787D01*
X64799580Y-31073720D01*
X64718950Y-31188444D01*
X64716190Y-31195524D01*
X64664435Y-31328269D01*
X64661406Y-31336037D01*
X64660414Y-31343570D01*
X64660414Y-31343571D01*
X64644055Y-31467833D01*
X64640729Y-31493096D01*
X63358472Y-31493096D01*
X63340276Y-31342733D01*
X63284280Y-31194546D01*
X63199013Y-31070481D01*
X63176913Y-31003013D01*
X63194798Y-30934306D01*
X63200531Y-30925589D01*
X63277755Y-30818121D01*
X63336842Y-30671138D01*
X63356877Y-30530359D01*
X63358581Y-30518388D01*
X63358581Y-30518385D01*
X63359162Y-30514304D01*
X63359255Y-30505475D01*
X63359264Y-30504631D01*
X63359264Y-30504625D01*
X63359307Y-30500497D01*
X63358389Y-30492906D01*
X63341188Y-30350770D01*
X63340276Y-30343230D01*
X63284280Y-30195043D01*
X63194553Y-30064489D01*
X63188211Y-30058838D01*
X63081946Y-29964161D01*
X63076275Y-29959108D01*
X63068889Y-29955197D01*
X62942988Y-29888536D01*
X62942989Y-29888536D01*
X62936274Y-29884981D01*
X62782633Y-29846389D01*
X62775034Y-29846349D01*
X62775033Y-29846349D01*
X62709181Y-29846004D01*
X62624221Y-29845559D01*
X62616841Y-29847331D01*
X62616839Y-29847331D01*
X62477563Y-29880768D01*
X62477560Y-29880769D01*
X62470184Y-29882540D01*
X62329414Y-29955197D01*
X62210039Y-30059335D01*
X62118950Y-30188941D01*
X62113802Y-30202146D01*
X62064269Y-30329192D01*
X62061406Y-30336534D01*
X62060414Y-30344067D01*
X62060414Y-30344068D01*
X62041786Y-30485565D01*
X62040729Y-30493593D01*
X62044448Y-30527279D01*
X62057225Y-30643003D01*
X62058113Y-30651050D01*
X62060723Y-30658181D01*
X62060723Y-30658183D01*
X62084803Y-30723984D01*
X62112553Y-30799816D01*
X62116789Y-30806119D01*
X62116789Y-30806120D01*
X62200883Y-30931265D01*
X62222275Y-30998962D01*
X62203671Y-31067478D01*
X62199388Y-31073992D01*
X62123319Y-31182227D01*
X62123318Y-31182229D01*
X62118950Y-31188444D01*
X62116190Y-31195524D01*
X62064435Y-31328269D01*
X62061406Y-31336037D01*
X62060414Y-31343570D01*
X62060414Y-31343571D01*
X62044055Y-31467833D01*
X62040729Y-31493096D01*
X60858472Y-31493096D01*
X60840276Y-31342733D01*
X60784280Y-31194546D01*
X60700609Y-31072804D01*
X60698839Y-31070228D01*
X60676739Y-31002759D01*
X60694625Y-30934052D01*
X60700349Y-30925345D01*
X60777755Y-30817624D01*
X60836842Y-30670641D01*
X60856430Y-30533003D01*
X60858581Y-30517891D01*
X60858581Y-30517888D01*
X60859162Y-30513807D01*
X60859250Y-30505475D01*
X60859264Y-30504134D01*
X60859264Y-30504128D01*
X60859307Y-30500000D01*
X60858711Y-30495070D01*
X60855102Y-30465254D01*
X60840276Y-30342733D01*
X60784280Y-30194546D01*
X60701849Y-30074608D01*
X60698855Y-30070251D01*
X60698854Y-30070249D01*
X60694553Y-30063992D01*
X60576275Y-29958611D01*
X60568889Y-29954700D01*
X60442988Y-29888039D01*
X60442989Y-29888039D01*
X60436274Y-29884484D01*
X60282633Y-29845892D01*
X60275034Y-29845852D01*
X60275033Y-29845852D01*
X60209181Y-29845507D01*
X60124221Y-29845062D01*
X60116841Y-29846834D01*
X60116839Y-29846834D01*
X59977563Y-29880271D01*
X59977560Y-29880272D01*
X59970184Y-29882043D01*
X59829414Y-29954700D01*
X59710039Y-30058838D01*
X59618950Y-30188444D01*
X59561406Y-30336037D01*
X59560414Y-30343570D01*
X59560414Y-30343571D01*
X59542038Y-30483154D01*
X59540729Y-30493096D01*
X59558113Y-30650553D01*
X59560723Y-30657684D01*
X59560723Y-30657686D01*
X59609873Y-30791995D01*
X59612553Y-30799319D01*
X59616789Y-30805622D01*
X59616789Y-30805623D01*
X59700908Y-30930805D01*
X59698109Y-30932686D01*
X59721235Y-30983528D01*
X59711026Y-31053787D01*
X59699580Y-31073720D01*
X59618950Y-31188444D01*
X59616190Y-31195524D01*
X59564435Y-31328269D01*
X59561406Y-31336037D01*
X59560414Y-31343570D01*
X59560414Y-31343571D01*
X59544055Y-31467833D01*
X59540729Y-31493096D01*
X55758472Y-31493096D01*
X55740276Y-31342733D01*
X55684280Y-31194546D01*
X55599013Y-31070481D01*
X55576913Y-31003013D01*
X55594798Y-30934306D01*
X55600531Y-30925589D01*
X55677755Y-30818121D01*
X55736842Y-30671138D01*
X55756877Y-30530359D01*
X55758581Y-30518388D01*
X55758581Y-30518385D01*
X55759162Y-30514304D01*
X55759255Y-30505475D01*
X55759264Y-30504631D01*
X55759264Y-30504625D01*
X55759307Y-30500497D01*
X55758389Y-30492906D01*
X55741188Y-30350770D01*
X55740276Y-30343230D01*
X55684280Y-30195043D01*
X55594553Y-30064489D01*
X55588211Y-30058838D01*
X55481946Y-29964161D01*
X55476275Y-29959108D01*
X55468889Y-29955197D01*
X55342988Y-29888536D01*
X55342989Y-29888536D01*
X55336274Y-29884981D01*
X55182633Y-29846389D01*
X55175034Y-29846349D01*
X55175033Y-29846349D01*
X55109181Y-29846004D01*
X55024221Y-29845559D01*
X55016841Y-29847331D01*
X55016839Y-29847331D01*
X54877563Y-29880768D01*
X54877560Y-29880769D01*
X54870184Y-29882540D01*
X54729414Y-29955197D01*
X54610039Y-30059335D01*
X54518950Y-30188941D01*
X54513802Y-30202146D01*
X54464269Y-30329192D01*
X54461406Y-30336534D01*
X54460414Y-30344067D01*
X54460414Y-30344068D01*
X54441786Y-30485565D01*
X54440729Y-30493593D01*
X54444448Y-30527279D01*
X54457225Y-30643003D01*
X54458113Y-30651050D01*
X54460723Y-30658181D01*
X54460723Y-30658183D01*
X54484803Y-30723984D01*
X54512553Y-30799816D01*
X54516789Y-30806119D01*
X54516789Y-30806120D01*
X54600883Y-30931265D01*
X54622275Y-30998962D01*
X54603671Y-31067478D01*
X54599388Y-31073992D01*
X54523319Y-31182227D01*
X54523318Y-31182229D01*
X54518950Y-31188444D01*
X54516190Y-31195524D01*
X54464435Y-31328269D01*
X54461406Y-31336037D01*
X54460414Y-31343570D01*
X54460414Y-31343571D01*
X54444055Y-31467833D01*
X54440729Y-31493096D01*
X53258472Y-31493096D01*
X53240276Y-31342733D01*
X53184280Y-31194546D01*
X53100609Y-31072804D01*
X53098839Y-31070228D01*
X53076739Y-31002759D01*
X53094625Y-30934052D01*
X53100349Y-30925345D01*
X53177755Y-30817624D01*
X53236842Y-30670641D01*
X53256430Y-30533003D01*
X53258581Y-30517891D01*
X53258581Y-30517888D01*
X53259162Y-30513807D01*
X53259250Y-30505475D01*
X53259264Y-30504134D01*
X53259264Y-30504128D01*
X53259307Y-30500000D01*
X53258711Y-30495070D01*
X53255102Y-30465254D01*
X53240276Y-30342733D01*
X53184280Y-30194546D01*
X53101849Y-30074608D01*
X53098855Y-30070251D01*
X53098854Y-30070249D01*
X53094553Y-30063992D01*
X52976275Y-29958611D01*
X52968889Y-29954700D01*
X52842988Y-29888039D01*
X52842989Y-29888039D01*
X52836274Y-29884484D01*
X52682633Y-29845892D01*
X52675034Y-29845852D01*
X52675033Y-29845852D01*
X52609181Y-29845507D01*
X52524221Y-29845062D01*
X52516841Y-29846834D01*
X52516839Y-29846834D01*
X52377563Y-29880271D01*
X52377560Y-29880272D01*
X52370184Y-29882043D01*
X52229414Y-29954700D01*
X52110039Y-30058838D01*
X52018950Y-30188444D01*
X51961406Y-30336037D01*
X51960414Y-30343570D01*
X51960414Y-30343571D01*
X51942038Y-30483154D01*
X51940729Y-30493096D01*
X51958113Y-30650553D01*
X51960723Y-30657684D01*
X51960723Y-30657686D01*
X52009873Y-30791995D01*
X52012553Y-30799319D01*
X52016789Y-30805622D01*
X52016789Y-30805623D01*
X52100908Y-30930805D01*
X52098109Y-30932686D01*
X52121235Y-30983528D01*
X52111026Y-31053787D01*
X52099580Y-31073720D01*
X52018950Y-31188444D01*
X52016190Y-31195524D01*
X51964435Y-31328269D01*
X51961406Y-31336037D01*
X51960414Y-31343570D01*
X51960414Y-31343571D01*
X51944055Y-31467833D01*
X51940729Y-31493096D01*
X50658472Y-31493096D01*
X50640276Y-31342733D01*
X50584280Y-31194546D01*
X50500609Y-31072804D01*
X50498839Y-31070228D01*
X50476739Y-31002759D01*
X50494625Y-30934052D01*
X50500349Y-30925345D01*
X50577755Y-30817624D01*
X50636842Y-30670641D01*
X50656430Y-30533003D01*
X50658581Y-30517891D01*
X50658581Y-30517888D01*
X50659162Y-30513807D01*
X50659250Y-30505475D01*
X50659264Y-30504134D01*
X50659264Y-30504128D01*
X50659307Y-30500000D01*
X50658711Y-30495070D01*
X50655102Y-30465254D01*
X50640276Y-30342733D01*
X50584280Y-30194546D01*
X50501849Y-30074608D01*
X50498855Y-30070251D01*
X50498854Y-30070249D01*
X50494553Y-30063992D01*
X50376275Y-29958611D01*
X50368889Y-29954700D01*
X50242988Y-29888039D01*
X50242989Y-29888039D01*
X50236274Y-29884484D01*
X50082633Y-29845892D01*
X50075034Y-29845852D01*
X50075033Y-29845852D01*
X50009181Y-29845507D01*
X49924221Y-29845062D01*
X49916841Y-29846834D01*
X49916839Y-29846834D01*
X49777563Y-29880271D01*
X49777560Y-29880272D01*
X49770184Y-29882043D01*
X49629414Y-29954700D01*
X49510039Y-30058838D01*
X49418950Y-30188444D01*
X49361406Y-30336037D01*
X49360414Y-30343570D01*
X49360414Y-30343571D01*
X49342038Y-30483154D01*
X49340729Y-30493096D01*
X49358113Y-30650553D01*
X49360723Y-30657684D01*
X49360723Y-30657686D01*
X49409873Y-30791995D01*
X49412553Y-30799319D01*
X49416789Y-30805622D01*
X49416789Y-30805623D01*
X49500908Y-30930805D01*
X49498109Y-30932686D01*
X49521235Y-30983528D01*
X49511026Y-31053787D01*
X49499580Y-31073720D01*
X49418950Y-31188444D01*
X49416190Y-31195524D01*
X49364435Y-31328269D01*
X49361406Y-31336037D01*
X49360414Y-31343570D01*
X49360414Y-31343571D01*
X49344055Y-31467833D01*
X49340729Y-31493096D01*
X48158472Y-31493096D01*
X48140276Y-31342733D01*
X48084280Y-31194546D01*
X48000609Y-31072804D01*
X47998839Y-31070228D01*
X47976739Y-31002759D01*
X47994625Y-30934052D01*
X48000349Y-30925345D01*
X48077755Y-30817624D01*
X48136842Y-30670641D01*
X48156430Y-30533003D01*
X48158581Y-30517891D01*
X48158581Y-30517888D01*
X48159162Y-30513807D01*
X48159250Y-30505475D01*
X48159264Y-30504134D01*
X48159264Y-30504128D01*
X48159307Y-30500000D01*
X48158711Y-30495070D01*
X48155102Y-30465254D01*
X48140276Y-30342733D01*
X48084280Y-30194546D01*
X48001849Y-30074608D01*
X47998855Y-30070251D01*
X47998854Y-30070249D01*
X47994553Y-30063992D01*
X47876275Y-29958611D01*
X47868889Y-29954700D01*
X47742988Y-29888039D01*
X47742989Y-29888039D01*
X47736274Y-29884484D01*
X47582633Y-29845892D01*
X47575034Y-29845852D01*
X47575033Y-29845852D01*
X47509181Y-29845507D01*
X47424221Y-29845062D01*
X47416841Y-29846834D01*
X47416839Y-29846834D01*
X47277563Y-29880271D01*
X47277560Y-29880272D01*
X47270184Y-29882043D01*
X47129414Y-29954700D01*
X47010039Y-30058838D01*
X46918950Y-30188444D01*
X46861406Y-30336037D01*
X46860414Y-30343570D01*
X46860414Y-30343571D01*
X46842038Y-30483154D01*
X46840729Y-30493096D01*
X46858113Y-30650553D01*
X46860723Y-30657684D01*
X46860723Y-30657686D01*
X46909873Y-30791995D01*
X46912553Y-30799319D01*
X46916789Y-30805622D01*
X46916789Y-30805623D01*
X47000908Y-30930805D01*
X46998109Y-30932686D01*
X47021235Y-30983528D01*
X47011026Y-31053787D01*
X46999580Y-31073720D01*
X46918950Y-31188444D01*
X46916190Y-31195524D01*
X46864435Y-31328269D01*
X46861406Y-31336037D01*
X46860414Y-31343570D01*
X46860414Y-31343571D01*
X46844055Y-31467833D01*
X46840729Y-31493096D01*
X43058472Y-31493096D01*
X43040276Y-31342733D01*
X42984280Y-31194546D01*
X42900609Y-31072804D01*
X42898839Y-31070228D01*
X42876739Y-31002759D01*
X42894625Y-30934052D01*
X42900349Y-30925345D01*
X42977755Y-30817624D01*
X43036842Y-30670641D01*
X43056430Y-30533003D01*
X43058581Y-30517891D01*
X43058581Y-30517888D01*
X43059162Y-30513807D01*
X43059250Y-30505475D01*
X43059264Y-30504134D01*
X43059264Y-30504128D01*
X43059307Y-30500000D01*
X43058711Y-30495070D01*
X43055102Y-30465254D01*
X43040276Y-30342733D01*
X42984280Y-30194546D01*
X42901849Y-30074608D01*
X42898855Y-30070251D01*
X42898854Y-30070249D01*
X42894553Y-30063992D01*
X42776275Y-29958611D01*
X42768889Y-29954700D01*
X42642988Y-29888039D01*
X42642989Y-29888039D01*
X42636274Y-29884484D01*
X42482633Y-29845892D01*
X42475034Y-29845852D01*
X42475033Y-29845852D01*
X42409181Y-29845507D01*
X42324221Y-29845062D01*
X42316841Y-29846834D01*
X42316839Y-29846834D01*
X42177563Y-29880271D01*
X42177560Y-29880272D01*
X42170184Y-29882043D01*
X42029414Y-29954700D01*
X41910039Y-30058838D01*
X41818950Y-30188444D01*
X41761406Y-30336037D01*
X41760414Y-30343570D01*
X41760414Y-30343571D01*
X41742038Y-30483154D01*
X41740729Y-30493096D01*
X41758113Y-30650553D01*
X41760723Y-30657684D01*
X41760723Y-30657686D01*
X41809873Y-30791995D01*
X41812553Y-30799319D01*
X41816789Y-30805622D01*
X41816789Y-30805623D01*
X41900908Y-30930805D01*
X41898109Y-30932686D01*
X41921235Y-30983528D01*
X41911026Y-31053787D01*
X41899580Y-31073720D01*
X41818950Y-31188444D01*
X41816190Y-31195524D01*
X41764435Y-31328269D01*
X41761406Y-31336037D01*
X41760414Y-31343570D01*
X41760414Y-31343571D01*
X41744055Y-31467833D01*
X41740729Y-31493096D01*
X40557867Y-31493096D01*
X40556956Y-31485565D01*
X40553956Y-31460777D01*
X40539588Y-31342045D01*
X40483592Y-31193858D01*
X40398662Y-31070283D01*
X40376562Y-31002815D01*
X40394447Y-30934108D01*
X40400170Y-30925405D01*
X40477755Y-30817434D01*
X40536842Y-30670451D01*
X40556403Y-30533003D01*
X40558581Y-30517701D01*
X40558581Y-30517698D01*
X40559162Y-30513617D01*
X40559248Y-30505475D01*
X40559264Y-30503944D01*
X40559264Y-30503938D01*
X40559307Y-30499810D01*
X40558734Y-30495070D01*
X40555102Y-30465064D01*
X40540276Y-30342543D01*
X40484280Y-30194356D01*
X40438660Y-30127978D01*
X40398855Y-30070061D01*
X40398854Y-30070059D01*
X40394553Y-30063802D01*
X40383937Y-30054343D01*
X40282717Y-29964161D01*
X40276275Y-29958421D01*
X40268889Y-29954510D01*
X40142988Y-29887849D01*
X40142989Y-29887849D01*
X40136274Y-29884294D01*
X39982633Y-29845702D01*
X39975034Y-29845662D01*
X39975033Y-29845662D01*
X39909181Y-29845317D01*
X39824221Y-29844872D01*
X39816841Y-29846644D01*
X39816839Y-29846644D01*
X39677563Y-29880081D01*
X39677560Y-29880082D01*
X39670184Y-29881853D01*
X39529414Y-29954510D01*
X39523695Y-29959499D01*
X39519138Y-29963474D01*
X39410039Y-30058648D01*
X39318950Y-30188254D01*
X39261406Y-30335847D01*
X39260414Y-30343380D01*
X39260414Y-30343381D01*
X39242013Y-30483154D01*
X39240729Y-30492906D01*
X39258113Y-30650363D01*
X39260723Y-30657494D01*
X39260723Y-30657496D01*
X39281107Y-30713197D01*
X39312553Y-30799129D01*
X39316788Y-30805432D01*
X39316792Y-30805439D01*
X39400546Y-30930077D01*
X39421939Y-30997774D01*
X39403335Y-31066290D01*
X39399053Y-31072803D01*
X39318262Y-31187756D01*
X39289490Y-31261552D01*
X39272572Y-31304946D01*
X39260718Y-31335349D01*
X39259726Y-31342882D01*
X39259726Y-31342883D01*
X39256441Y-31367840D01*
X39240041Y-31492408D01*
X30254000Y-31492408D01*
X30254000Y-28978435D01*
X31940812Y-28978435D01*
X31956937Y-29258099D01*
X31957762Y-29262306D01*
X31957763Y-29262311D01*
X31970322Y-29326324D01*
X32010868Y-29532986D01*
X32012255Y-29537037D01*
X32064812Y-29690543D01*
X32101606Y-29798011D01*
X32165414Y-29924880D01*
X32180663Y-29955197D01*
X32227473Y-30048269D01*
X32319410Y-30182038D01*
X32371998Y-30258554D01*
X32386139Y-30279130D01*
X32574669Y-30486322D01*
X32789573Y-30666010D01*
X32793199Y-30668285D01*
X32793201Y-30668286D01*
X32848661Y-30703076D01*
X33026876Y-30814869D01*
X33030778Y-30816631D01*
X33030782Y-30816633D01*
X33278273Y-30928380D01*
X33278277Y-30928382D01*
X33282185Y-30930146D01*
X33286305Y-30931366D01*
X33286304Y-30931366D01*
X33546664Y-31008488D01*
X33546668Y-31008489D01*
X33550777Y-31009706D01*
X33555014Y-31010354D01*
X33555017Y-31010355D01*
X33639874Y-31023340D01*
X33827682Y-31052079D01*
X33970295Y-31054319D01*
X34103484Y-31056412D01*
X34103490Y-31056412D01*
X34107775Y-31056479D01*
X34385875Y-31022825D01*
X34656833Y-30951740D01*
X34915638Y-30844540D01*
X34950284Y-30824295D01*
X35153801Y-30705369D01*
X35153802Y-30705369D01*
X35157499Y-30703208D01*
X35199276Y-30670451D01*
X35374569Y-30533003D01*
X35377941Y-30530359D01*
X35572886Y-30329192D01*
X35575419Y-30325744D01*
X35575423Y-30325739D01*
X35736187Y-30106884D01*
X35738725Y-30103429D01*
X35756739Y-30070251D01*
X35870341Y-29861023D01*
X35870342Y-29861021D01*
X35872391Y-29857247D01*
X35971409Y-29595203D01*
X36033948Y-29322146D01*
X36058849Y-29043127D01*
X36059301Y-29000000D01*
X36057831Y-28978435D01*
X123940812Y-28978435D01*
X123956937Y-29258099D01*
X123957762Y-29262306D01*
X123957763Y-29262311D01*
X123970322Y-29326324D01*
X124010868Y-29532986D01*
X124012255Y-29537037D01*
X124064812Y-29690543D01*
X124101606Y-29798011D01*
X124165414Y-29924880D01*
X124180663Y-29955197D01*
X124227473Y-30048269D01*
X124319410Y-30182038D01*
X124371998Y-30258554D01*
X124386139Y-30279130D01*
X124574669Y-30486322D01*
X124789573Y-30666010D01*
X124793199Y-30668285D01*
X124793201Y-30668286D01*
X124848661Y-30703076D01*
X125026876Y-30814869D01*
X125030778Y-30816631D01*
X125030782Y-30816633D01*
X125278273Y-30928380D01*
X125278277Y-30928382D01*
X125282185Y-30930146D01*
X125286305Y-30931366D01*
X125286304Y-30931366D01*
X125546664Y-31008488D01*
X125546668Y-31008489D01*
X125550777Y-31009706D01*
X125555014Y-31010354D01*
X125555017Y-31010355D01*
X125639874Y-31023340D01*
X125827682Y-31052079D01*
X125970295Y-31054319D01*
X126103484Y-31056412D01*
X126103490Y-31056412D01*
X126107775Y-31056479D01*
X126385875Y-31022825D01*
X126656833Y-30951740D01*
X126915638Y-30844540D01*
X126950284Y-30824295D01*
X127153801Y-30705369D01*
X127153802Y-30705369D01*
X127157499Y-30703208D01*
X127199276Y-30670451D01*
X127374569Y-30533003D01*
X127377941Y-30530359D01*
X127572886Y-30329192D01*
X127575419Y-30325744D01*
X127575423Y-30325739D01*
X127736187Y-30106884D01*
X127738725Y-30103429D01*
X127756739Y-30070251D01*
X127870341Y-29861023D01*
X127870342Y-29861021D01*
X127872391Y-29857247D01*
X127971409Y-29595203D01*
X128033948Y-29322146D01*
X128058849Y-29043127D01*
X128059301Y-29000000D01*
X128040248Y-28720521D01*
X127983442Y-28446213D01*
X127889933Y-28182153D01*
X127761452Y-27933226D01*
X127748530Y-27914839D01*
X127602844Y-27707550D01*
X127602843Y-27707549D01*
X127600377Y-27704040D01*
X127409689Y-27498834D01*
X127395550Y-27487261D01*
X127196232Y-27324123D01*
X127192914Y-27321407D01*
X126954066Y-27175040D01*
X126697563Y-27062443D01*
X126678210Y-27056930D01*
X126647881Y-27048291D01*
X126428153Y-26985700D01*
X126423911Y-26985096D01*
X126423905Y-26985095D01*
X126218548Y-26955868D01*
X126150819Y-26946229D01*
X126003708Y-26945459D01*
X125874981Y-26944785D01*
X125874975Y-26944785D01*
X125870695Y-26944763D01*
X125866451Y-26945322D01*
X125866447Y-26945322D01*
X125744326Y-26961400D01*
X125592964Y-26981327D01*
X125588824Y-26982460D01*
X125588822Y-26982460D01*
X125326910Y-27054111D01*
X125322765Y-27055245D01*
X125065097Y-27165149D01*
X124919747Y-27252140D01*
X124828411Y-27306803D01*
X124828407Y-27306806D01*
X124824729Y-27309007D01*
X124821386Y-27311685D01*
X124821382Y-27311688D01*
X124812046Y-27319168D01*
X124606109Y-27484155D01*
X124413281Y-27687352D01*
X124249815Y-27914839D01*
X124118735Y-28162407D01*
X124022466Y-28425473D01*
X123962790Y-28699171D01*
X123940812Y-28978435D01*
X36057831Y-28978435D01*
X36040248Y-28720521D01*
X35983442Y-28446213D01*
X35889933Y-28182153D01*
X35761452Y-27933226D01*
X35748530Y-27914839D01*
X35602844Y-27707550D01*
X35602843Y-27707549D01*
X35600377Y-27704040D01*
X35409689Y-27498834D01*
X35395550Y-27487261D01*
X35196232Y-27324123D01*
X35192914Y-27321407D01*
X34954066Y-27175040D01*
X34697563Y-27062443D01*
X34678210Y-27056930D01*
X34647881Y-27048291D01*
X34428153Y-26985700D01*
X34423911Y-26985096D01*
X34423905Y-26985095D01*
X34218548Y-26955868D01*
X34150819Y-26946229D01*
X34003708Y-26945459D01*
X33874981Y-26944785D01*
X33874975Y-26944785D01*
X33870695Y-26944763D01*
X33866451Y-26945322D01*
X33866447Y-26945322D01*
X33744326Y-26961400D01*
X33592964Y-26981327D01*
X33588824Y-26982460D01*
X33588822Y-26982460D01*
X33326910Y-27054111D01*
X33322765Y-27055245D01*
X33065097Y-27165149D01*
X32919747Y-27252140D01*
X32828411Y-27306803D01*
X32828407Y-27306806D01*
X32824729Y-27309007D01*
X32821386Y-27311685D01*
X32821382Y-27311688D01*
X32812046Y-27319168D01*
X32606109Y-27484155D01*
X32413281Y-27687352D01*
X32249815Y-27914839D01*
X32118735Y-28162407D01*
X32022466Y-28425473D01*
X31962790Y-28699171D01*
X31940812Y-28978435D01*
X30254000Y-28978435D01*
X30254000Y-25380000D01*
X30274002Y-25311879D01*
X30327658Y-25265386D01*
X30380000Y-25254000D01*
X129620000Y-25254000D01*
X129688121Y-25274002D01*
G37*
%TD.AperFunction*%
%TD*%
M02*
