%TF.GenerationSoftware,KiCad,Pcbnew,6.0.2+dfsg-1*%
%TF.CreationDate,2024-02-19T13:24:51+02:00*%
%TF.ProjectId,rpi_pico_si5351,7270695f-7069-4636-9f5f-736935333531,rev?*%
%TF.SameCoordinates,Original*%
%TF.FileFunction,Legend,Top*%
%TF.FilePolarity,Positive*%
%FSLAX46Y46*%
G04 Gerber Fmt 4.6, Leading zero omitted, Abs format (unit mm)*
G04 Created by KiCad (PCBNEW 6.0.2+dfsg-1) date 2024-02-19 13:24:51*
%MOMM*%
%LPD*%
G01*
G04 APERTURE LIST*
%ADD10C,0.150000*%
%ADD11C,0.100000*%
%ADD12C,0.300000*%
%ADD13C,0.120000*%
G04 APERTURE END LIST*
D10*
X124907142Y-51071428D02*
X124954761Y-51119047D01*
X125002380Y-51261904D01*
X125002380Y-51357142D01*
X124954761Y-51500000D01*
X124859523Y-51595238D01*
X124764285Y-51642857D01*
X124573809Y-51690476D01*
X124430952Y-51690476D01*
X124240476Y-51642857D01*
X124145238Y-51595238D01*
X124050000Y-51500000D01*
X124002380Y-51357142D01*
X124002380Y-51261904D01*
X124050000Y-51119047D01*
X124097619Y-51071428D01*
X125002380Y-50166666D02*
X125002380Y-50642857D01*
X124002380Y-50642857D01*
X125002380Y-49833333D02*
X124002380Y-49833333D01*
X125002380Y-49261904D02*
X124430952Y-49690476D01*
X124002380Y-49261904D02*
X124573809Y-49833333D01*
X125002380Y-48309523D02*
X125002380Y-48880952D01*
X125002380Y-48595238D02*
X124002380Y-48595238D01*
X124145238Y-48690476D01*
X124240476Y-48785714D01*
X124288095Y-48880952D01*
X91095238Y-54352380D02*
X91095238Y-55066666D01*
X91047619Y-55209523D01*
X90952380Y-55304761D01*
X90809523Y-55352380D01*
X90714285Y-55352380D01*
X91761904Y-54352380D02*
X91952380Y-54352380D01*
X92047619Y-54400000D01*
X92142857Y-54495238D01*
X92190476Y-54685714D01*
X92190476Y-55019047D01*
X92142857Y-55209523D01*
X92047619Y-55304761D01*
X91952380Y-55352380D01*
X91761904Y-55352380D01*
X91666666Y-55304761D01*
X91571428Y-55209523D01*
X91523809Y-55019047D01*
X91523809Y-54685714D01*
X91571428Y-54495238D01*
X91666666Y-54400000D01*
X91761904Y-54352380D01*
X92809523Y-54876190D02*
X92809523Y-55352380D01*
X92476190Y-54352380D02*
X92809523Y-54876190D01*
X93142857Y-54352380D01*
X93428571Y-55304761D02*
X93571428Y-55352380D01*
X93809523Y-55352380D01*
X93904761Y-55304761D01*
X93952380Y-55257142D01*
X94000000Y-55161904D01*
X94000000Y-55066666D01*
X93952380Y-54971428D01*
X93904761Y-54923809D01*
X93809523Y-54876190D01*
X93619047Y-54828571D01*
X93523809Y-54780952D01*
X93476190Y-54733333D01*
X93428571Y-54638095D01*
X93428571Y-54542857D01*
X93476190Y-54447619D01*
X93523809Y-54400000D01*
X93619047Y-54352380D01*
X93857142Y-54352380D01*
X94000000Y-54400000D01*
X94285714Y-54352380D02*
X94857142Y-54352380D01*
X94571428Y-55352380D02*
X94571428Y-54352380D01*
X95190476Y-55352380D02*
X95190476Y-54352380D01*
X96238095Y-55257142D02*
X96190476Y-55304761D01*
X96047619Y-55352380D01*
X95952380Y-55352380D01*
X95809523Y-55304761D01*
X95714285Y-55209523D01*
X95666666Y-55114285D01*
X95619047Y-54923809D01*
X95619047Y-54780952D01*
X95666666Y-54590476D01*
X95714285Y-54495238D01*
X95809523Y-54400000D01*
X95952380Y-54352380D01*
X96047619Y-54352380D01*
X96190476Y-54400000D01*
X96238095Y-54447619D01*
X96666666Y-55352380D02*
X96666666Y-54352380D01*
X97238095Y-55352380D02*
X96809523Y-54780952D01*
X97238095Y-54352380D02*
X96666666Y-54923809D01*
X90685714Y-47728571D02*
X91019047Y-47728571D01*
X91161904Y-48252380D02*
X90685714Y-48252380D01*
X90685714Y-47252380D01*
X91161904Y-47252380D01*
X91590476Y-48252380D02*
X91590476Y-47252380D01*
X92161904Y-48252380D01*
X92161904Y-47252380D01*
X93209523Y-48157142D02*
X93161904Y-48204761D01*
X93019047Y-48252380D01*
X92923809Y-48252380D01*
X92780952Y-48204761D01*
X92685714Y-48109523D01*
X92638095Y-48014285D01*
X92590476Y-47823809D01*
X92590476Y-47680952D01*
X92638095Y-47490476D01*
X92685714Y-47395238D01*
X92780952Y-47300000D01*
X92923809Y-47252380D01*
X93019047Y-47252380D01*
X93161904Y-47300000D01*
X93209523Y-47347619D01*
X93828571Y-47252380D02*
X94019047Y-47252380D01*
X94114285Y-47300000D01*
X94209523Y-47395238D01*
X94257142Y-47585714D01*
X94257142Y-47919047D01*
X94209523Y-48109523D01*
X94114285Y-48204761D01*
X94019047Y-48252380D01*
X93828571Y-48252380D01*
X93733333Y-48204761D01*
X93638095Y-48109523D01*
X93590476Y-47919047D01*
X93590476Y-47585714D01*
X93638095Y-47395238D01*
X93733333Y-47300000D01*
X93828571Y-47252380D01*
X94685714Y-48252380D02*
X94685714Y-47252380D01*
X94923809Y-47252380D01*
X95066666Y-47300000D01*
X95161904Y-47395238D01*
X95209523Y-47490476D01*
X95257142Y-47680952D01*
X95257142Y-47823809D01*
X95209523Y-48014285D01*
X95161904Y-48109523D01*
X95066666Y-48204761D01*
X94923809Y-48252380D01*
X94685714Y-48252380D01*
X95685714Y-47728571D02*
X96019047Y-47728571D01*
X96161904Y-48252380D02*
X95685714Y-48252380D01*
X95685714Y-47252380D01*
X96161904Y-47252380D01*
X97161904Y-48252380D02*
X96828571Y-47776190D01*
X96590476Y-48252380D02*
X96590476Y-47252380D01*
X96971428Y-47252380D01*
X97066666Y-47300000D01*
X97114285Y-47347619D01*
X97161904Y-47442857D01*
X97161904Y-47585714D01*
X97114285Y-47680952D01*
X97066666Y-47728571D01*
X96971428Y-47776190D01*
X96590476Y-47776190D01*
X103707023Y-45622380D02*
X103373690Y-45146190D01*
X103135595Y-45622380D02*
X103135595Y-44622380D01*
X103516547Y-44622380D01*
X103611785Y-44670000D01*
X103659404Y-44717619D01*
X103707023Y-44812857D01*
X103707023Y-44955714D01*
X103659404Y-45050952D01*
X103611785Y-45098571D01*
X103516547Y-45146190D01*
X103135595Y-45146190D01*
X104135595Y-45622380D02*
X104135595Y-44622380D01*
X104516547Y-44622380D01*
X104611785Y-44670000D01*
X104659404Y-44717619D01*
X104707023Y-44812857D01*
X104707023Y-44955714D01*
X104659404Y-45050952D01*
X104611785Y-45098571D01*
X104516547Y-45146190D01*
X104135595Y-45146190D01*
X105135595Y-45622380D02*
X105135595Y-44622380D01*
X106945119Y-45527142D02*
X106897500Y-45574761D01*
X106754642Y-45622380D01*
X106659404Y-45622380D01*
X106516547Y-45574761D01*
X106421309Y-45479523D01*
X106373690Y-45384285D01*
X106326071Y-45193809D01*
X106326071Y-45050952D01*
X106373690Y-44860476D01*
X106421309Y-44765238D01*
X106516547Y-44670000D01*
X106659404Y-44622380D01*
X106754642Y-44622380D01*
X106897500Y-44670000D01*
X106945119Y-44717619D01*
X107564166Y-44622380D02*
X107754642Y-44622380D01*
X107849880Y-44670000D01*
X107945119Y-44765238D01*
X107992738Y-44955714D01*
X107992738Y-45289047D01*
X107945119Y-45479523D01*
X107849880Y-45574761D01*
X107754642Y-45622380D01*
X107564166Y-45622380D01*
X107468928Y-45574761D01*
X107373690Y-45479523D01*
X107326071Y-45289047D01*
X107326071Y-44955714D01*
X107373690Y-44765238D01*
X107468928Y-44670000D01*
X107564166Y-44622380D01*
X108421309Y-45622380D02*
X108421309Y-44622380D01*
X108992738Y-45622380D01*
X108992738Y-44622380D01*
X109326071Y-44622380D02*
X109897500Y-44622380D01*
X109611785Y-45622380D02*
X109611785Y-44622380D01*
X110802261Y-45622380D02*
X110468928Y-45146190D01*
X110230833Y-45622380D02*
X110230833Y-44622380D01*
X110611785Y-44622380D01*
X110707023Y-44670000D01*
X110754642Y-44717619D01*
X110802261Y-44812857D01*
X110802261Y-44955714D01*
X110754642Y-45050952D01*
X110707023Y-45098571D01*
X110611785Y-45146190D01*
X110230833Y-45146190D01*
X111421309Y-44622380D02*
X111611785Y-44622380D01*
X111707023Y-44670000D01*
X111802261Y-44765238D01*
X111849880Y-44955714D01*
X111849880Y-45289047D01*
X111802261Y-45479523D01*
X111707023Y-45574761D01*
X111611785Y-45622380D01*
X111421309Y-45622380D01*
X111326071Y-45574761D01*
X111230833Y-45479523D01*
X111183214Y-45289047D01*
X111183214Y-44955714D01*
X111230833Y-44765238D01*
X111326071Y-44670000D01*
X111421309Y-44622380D01*
X112754642Y-45622380D02*
X112278452Y-45622380D01*
X112278452Y-44622380D01*
X113849880Y-45622380D02*
X113849880Y-44622380D01*
X114183214Y-45336666D01*
X114516547Y-44622380D01*
X114516547Y-45622380D01*
X115183214Y-44622380D02*
X115373690Y-44622380D01*
X115468928Y-44670000D01*
X115564166Y-44765238D01*
X115611785Y-44955714D01*
X115611785Y-45289047D01*
X115564166Y-45479523D01*
X115468928Y-45574761D01*
X115373690Y-45622380D01*
X115183214Y-45622380D01*
X115087976Y-45574761D01*
X114992738Y-45479523D01*
X114945119Y-45289047D01*
X114945119Y-44955714D01*
X114992738Y-44765238D01*
X115087976Y-44670000D01*
X115183214Y-44622380D01*
X116040357Y-45622380D02*
X116040357Y-44622380D01*
X116278452Y-44622380D01*
X116421309Y-44670000D01*
X116516547Y-44765238D01*
X116564166Y-44860476D01*
X116611785Y-45050952D01*
X116611785Y-45193809D01*
X116564166Y-45384285D01*
X116516547Y-45479523D01*
X116421309Y-45574761D01*
X116278452Y-45622380D01*
X116040357Y-45622380D01*
X117040357Y-44622380D02*
X117040357Y-45431904D01*
X117087976Y-45527142D01*
X117135595Y-45574761D01*
X117230833Y-45622380D01*
X117421309Y-45622380D01*
X117516547Y-45574761D01*
X117564166Y-45527142D01*
X117611785Y-45431904D01*
X117611785Y-44622380D01*
X118564166Y-45622380D02*
X118087976Y-45622380D01*
X118087976Y-44622380D01*
X118897500Y-45098571D02*
X119230833Y-45098571D01*
X119373690Y-45622380D02*
X118897500Y-45622380D01*
X118897500Y-44622380D01*
X119373690Y-44622380D01*
X103659404Y-47232380D02*
X103087976Y-47232380D01*
X103373690Y-47232380D02*
X103373690Y-46232380D01*
X103278452Y-46375238D01*
X103183214Y-46470476D01*
X103087976Y-46518095D01*
X104087976Y-47137142D02*
X104135595Y-47184761D01*
X104087976Y-47232380D01*
X104040357Y-47184761D01*
X104087976Y-47137142D01*
X104087976Y-47232380D01*
X105278452Y-47184761D02*
X105421309Y-47232380D01*
X105659404Y-47232380D01*
X105754642Y-47184761D01*
X105802261Y-47137142D01*
X105849880Y-47041904D01*
X105849880Y-46946666D01*
X105802261Y-46851428D01*
X105754642Y-46803809D01*
X105659404Y-46756190D01*
X105468928Y-46708571D01*
X105373690Y-46660952D01*
X105326071Y-46613333D01*
X105278452Y-46518095D01*
X105278452Y-46422857D01*
X105326071Y-46327619D01*
X105373690Y-46280000D01*
X105468928Y-46232380D01*
X105707023Y-46232380D01*
X105849880Y-46280000D01*
X106135595Y-46565714D02*
X106516547Y-46565714D01*
X106278452Y-46232380D02*
X106278452Y-47089523D01*
X106326071Y-47184761D01*
X106421309Y-47232380D01*
X106516547Y-47232380D01*
X107278452Y-47232380D02*
X107278452Y-46708571D01*
X107230833Y-46613333D01*
X107135595Y-46565714D01*
X106945119Y-46565714D01*
X106849880Y-46613333D01*
X107278452Y-47184761D02*
X107183214Y-47232380D01*
X106945119Y-47232380D01*
X106849880Y-47184761D01*
X106802261Y-47089523D01*
X106802261Y-46994285D01*
X106849880Y-46899047D01*
X106945119Y-46851428D01*
X107183214Y-46851428D01*
X107278452Y-46803809D01*
X107754642Y-46565714D02*
X107754642Y-47232380D01*
X107754642Y-46660952D02*
X107802261Y-46613333D01*
X107897500Y-46565714D01*
X108040357Y-46565714D01*
X108135595Y-46613333D01*
X108183214Y-46708571D01*
X108183214Y-47232380D01*
X109087976Y-47232380D02*
X109087976Y-46232380D01*
X109087976Y-47184761D02*
X108992738Y-47232380D01*
X108802261Y-47232380D01*
X108707023Y-47184761D01*
X108659404Y-47137142D01*
X108611785Y-47041904D01*
X108611785Y-46756190D01*
X108659404Y-46660952D01*
X108707023Y-46613333D01*
X108802261Y-46565714D01*
X108992738Y-46565714D01*
X109087976Y-46613333D01*
X109564166Y-46851428D02*
X110326071Y-46851428D01*
X111230833Y-47232380D02*
X111230833Y-46708571D01*
X111183214Y-46613333D01*
X111087976Y-46565714D01*
X110897500Y-46565714D01*
X110802261Y-46613333D01*
X111230833Y-47184761D02*
X111135595Y-47232380D01*
X110897500Y-47232380D01*
X110802261Y-47184761D01*
X110754642Y-47089523D01*
X110754642Y-46994285D01*
X110802261Y-46899047D01*
X110897500Y-46851428D01*
X111135595Y-46851428D01*
X111230833Y-46803809D01*
X111849880Y-47232380D02*
X111754642Y-47184761D01*
X111707023Y-47089523D01*
X111707023Y-46232380D01*
X112373690Y-47232380D02*
X112278452Y-47184761D01*
X112230833Y-47137142D01*
X112183214Y-47041904D01*
X112183214Y-46756190D01*
X112230833Y-46660952D01*
X112278452Y-46613333D01*
X112373690Y-46565714D01*
X112516547Y-46565714D01*
X112611785Y-46613333D01*
X112659404Y-46660952D01*
X112707023Y-46756190D01*
X112707023Y-47041904D01*
X112659404Y-47137142D01*
X112611785Y-47184761D01*
X112516547Y-47232380D01*
X112373690Y-47232380D01*
X113135595Y-46565714D02*
X113135595Y-47232380D01*
X113135595Y-46660952D02*
X113183214Y-46613333D01*
X113278452Y-46565714D01*
X113421309Y-46565714D01*
X113516547Y-46613333D01*
X113564166Y-46708571D01*
X113564166Y-47232380D01*
X114421309Y-47184761D02*
X114326071Y-47232380D01*
X114135595Y-47232380D01*
X114040357Y-47184761D01*
X113992738Y-47089523D01*
X113992738Y-46708571D01*
X114040357Y-46613333D01*
X114135595Y-46565714D01*
X114326071Y-46565714D01*
X114421309Y-46613333D01*
X114468928Y-46708571D01*
X114468928Y-46803809D01*
X113992738Y-46899047D01*
X115611785Y-47184761D02*
X115707023Y-47232380D01*
X115897500Y-47232380D01*
X115992738Y-47184761D01*
X116040357Y-47089523D01*
X116040357Y-47041904D01*
X115992738Y-46946666D01*
X115897500Y-46899047D01*
X115754642Y-46899047D01*
X115659404Y-46851428D01*
X115611785Y-46756190D01*
X115611785Y-46708571D01*
X115659404Y-46613333D01*
X115754642Y-46565714D01*
X115897500Y-46565714D01*
X115992738Y-46613333D01*
X116468928Y-47232380D02*
X116468928Y-46565714D01*
X116468928Y-46232380D02*
X116421309Y-46280000D01*
X116468928Y-46327619D01*
X116516547Y-46280000D01*
X116468928Y-46232380D01*
X116468928Y-46327619D01*
X117373690Y-46565714D02*
X117373690Y-47375238D01*
X117326071Y-47470476D01*
X117278452Y-47518095D01*
X117183214Y-47565714D01*
X117040357Y-47565714D01*
X116945119Y-47518095D01*
X117373690Y-47184761D02*
X117278452Y-47232380D01*
X117087976Y-47232380D01*
X116992738Y-47184761D01*
X116945119Y-47137142D01*
X116897500Y-47041904D01*
X116897500Y-46756190D01*
X116945119Y-46660952D01*
X116992738Y-46613333D01*
X117087976Y-46565714D01*
X117278452Y-46565714D01*
X117373690Y-46613333D01*
X117849880Y-46565714D02*
X117849880Y-47232380D01*
X117849880Y-46660952D02*
X117897500Y-46613333D01*
X117992738Y-46565714D01*
X118135595Y-46565714D01*
X118230833Y-46613333D01*
X118278452Y-46708571D01*
X118278452Y-47232380D01*
X119183214Y-47232380D02*
X119183214Y-46708571D01*
X119135595Y-46613333D01*
X119040357Y-46565714D01*
X118849880Y-46565714D01*
X118754642Y-46613333D01*
X119183214Y-47184761D02*
X119087976Y-47232380D01*
X118849880Y-47232380D01*
X118754642Y-47184761D01*
X118707023Y-47089523D01*
X118707023Y-46994285D01*
X118754642Y-46899047D01*
X118849880Y-46851428D01*
X119087976Y-46851428D01*
X119183214Y-46803809D01*
X119802261Y-47232380D02*
X119707023Y-47184761D01*
X119659404Y-47089523D01*
X119659404Y-46232380D01*
X104326071Y-48175714D02*
X104326071Y-48985238D01*
X104278452Y-49080476D01*
X104230833Y-49128095D01*
X104135595Y-49175714D01*
X103992738Y-49175714D01*
X103897500Y-49128095D01*
X104326071Y-48794761D02*
X104230833Y-48842380D01*
X104040357Y-48842380D01*
X103945119Y-48794761D01*
X103897500Y-48747142D01*
X103849880Y-48651904D01*
X103849880Y-48366190D01*
X103897500Y-48270952D01*
X103945119Y-48223333D01*
X104040357Y-48175714D01*
X104230833Y-48175714D01*
X104326071Y-48223333D01*
X105183214Y-48794761D02*
X105087976Y-48842380D01*
X104897500Y-48842380D01*
X104802261Y-48794761D01*
X104754642Y-48699523D01*
X104754642Y-48318571D01*
X104802261Y-48223333D01*
X104897500Y-48175714D01*
X105087976Y-48175714D01*
X105183214Y-48223333D01*
X105230833Y-48318571D01*
X105230833Y-48413809D01*
X104754642Y-48509047D01*
X105659404Y-48175714D02*
X105659404Y-48842380D01*
X105659404Y-48270952D02*
X105707023Y-48223333D01*
X105802261Y-48175714D01*
X105945119Y-48175714D01*
X106040357Y-48223333D01*
X106087976Y-48318571D01*
X106087976Y-48842380D01*
X106945119Y-48794761D02*
X106849880Y-48842380D01*
X106659404Y-48842380D01*
X106564166Y-48794761D01*
X106516547Y-48699523D01*
X106516547Y-48318571D01*
X106564166Y-48223333D01*
X106659404Y-48175714D01*
X106849880Y-48175714D01*
X106945119Y-48223333D01*
X106992738Y-48318571D01*
X106992738Y-48413809D01*
X106516547Y-48509047D01*
X107421309Y-48842380D02*
X107421309Y-48175714D01*
X107421309Y-48366190D02*
X107468928Y-48270952D01*
X107516547Y-48223333D01*
X107611785Y-48175714D01*
X107707023Y-48175714D01*
X108468928Y-48842380D02*
X108468928Y-48318571D01*
X108421309Y-48223333D01*
X108326071Y-48175714D01*
X108135595Y-48175714D01*
X108040357Y-48223333D01*
X108468928Y-48794761D02*
X108373690Y-48842380D01*
X108135595Y-48842380D01*
X108040357Y-48794761D01*
X107992738Y-48699523D01*
X107992738Y-48604285D01*
X108040357Y-48509047D01*
X108135595Y-48461428D01*
X108373690Y-48461428D01*
X108468928Y-48413809D01*
X108802261Y-48175714D02*
X109183214Y-48175714D01*
X108945119Y-47842380D02*
X108945119Y-48699523D01*
X108992738Y-48794761D01*
X109087976Y-48842380D01*
X109183214Y-48842380D01*
X109659404Y-48842380D02*
X109564166Y-48794761D01*
X109516547Y-48747142D01*
X109468928Y-48651904D01*
X109468928Y-48366190D01*
X109516547Y-48270952D01*
X109564166Y-48223333D01*
X109659404Y-48175714D01*
X109802261Y-48175714D01*
X109897500Y-48223333D01*
X109945119Y-48270952D01*
X109992738Y-48366190D01*
X109992738Y-48651904D01*
X109945119Y-48747142D01*
X109897500Y-48794761D01*
X109802261Y-48842380D01*
X109659404Y-48842380D01*
X110421309Y-48842380D02*
X110421309Y-48175714D01*
X110421309Y-48366190D02*
X110468928Y-48270952D01*
X110516547Y-48223333D01*
X110611785Y-48175714D01*
X110707023Y-48175714D01*
X111707023Y-48175714D02*
X111897500Y-48842380D01*
X112087976Y-48366190D01*
X112278452Y-48842380D01*
X112468928Y-48175714D01*
X112849880Y-48842380D02*
X112849880Y-48175714D01*
X112849880Y-47842380D02*
X112802261Y-47890000D01*
X112849880Y-47937619D01*
X112897500Y-47890000D01*
X112849880Y-47842380D01*
X112849880Y-47937619D01*
X113183214Y-48175714D02*
X113564166Y-48175714D01*
X113326071Y-47842380D02*
X113326071Y-48699523D01*
X113373690Y-48794761D01*
X113468928Y-48842380D01*
X113564166Y-48842380D01*
X113897500Y-48842380D02*
X113897500Y-47842380D01*
X114326071Y-48842380D02*
X114326071Y-48318571D01*
X114278452Y-48223333D01*
X114183214Y-48175714D01*
X114040357Y-48175714D01*
X113945119Y-48223333D01*
X113897500Y-48270952D01*
X115516547Y-48794761D02*
X115659404Y-48842380D01*
X115897500Y-48842380D01*
X115992738Y-48794761D01*
X116040357Y-48747142D01*
X116087976Y-48651904D01*
X116087976Y-48556666D01*
X116040357Y-48461428D01*
X115992738Y-48413809D01*
X115897500Y-48366190D01*
X115707023Y-48318571D01*
X115611785Y-48270952D01*
X115564166Y-48223333D01*
X115516547Y-48128095D01*
X115516547Y-48032857D01*
X115564166Y-47937619D01*
X115611785Y-47890000D01*
X115707023Y-47842380D01*
X115945119Y-47842380D01*
X116087976Y-47890000D01*
X116516547Y-48842380D02*
X116516547Y-47842380D01*
X117468928Y-47842380D02*
X116992738Y-47842380D01*
X116945119Y-48318571D01*
X116992738Y-48270952D01*
X117087976Y-48223333D01*
X117326071Y-48223333D01*
X117421309Y-48270952D01*
X117468928Y-48318571D01*
X117516547Y-48413809D01*
X117516547Y-48651904D01*
X117468928Y-48747142D01*
X117421309Y-48794761D01*
X117326071Y-48842380D01*
X117087976Y-48842380D01*
X116992738Y-48794761D01*
X116945119Y-48747142D01*
X117849880Y-47842380D02*
X118468928Y-47842380D01*
X118135595Y-48223333D01*
X118278452Y-48223333D01*
X118373690Y-48270952D01*
X118421309Y-48318571D01*
X118468928Y-48413809D01*
X118468928Y-48651904D01*
X118421309Y-48747142D01*
X118373690Y-48794761D01*
X118278452Y-48842380D01*
X117992738Y-48842380D01*
X117897500Y-48794761D01*
X117849880Y-48747142D01*
X119373690Y-47842380D02*
X118897500Y-47842380D01*
X118849880Y-48318571D01*
X118897500Y-48270952D01*
X118992738Y-48223333D01*
X119230833Y-48223333D01*
X119326071Y-48270952D01*
X119373690Y-48318571D01*
X119421309Y-48413809D01*
X119421309Y-48651904D01*
X119373690Y-48747142D01*
X119326071Y-48794761D01*
X119230833Y-48842380D01*
X118992738Y-48842380D01*
X118897500Y-48794761D01*
X118849880Y-48747142D01*
X120373690Y-48842380D02*
X119802261Y-48842380D01*
X120087976Y-48842380D02*
X120087976Y-47842380D01*
X119992738Y-47985238D01*
X119897500Y-48080476D01*
X119802261Y-48128095D01*
X103897500Y-50452380D02*
X103897500Y-49785714D01*
X103897500Y-49452380D02*
X103849880Y-49500000D01*
X103897500Y-49547619D01*
X103945119Y-49500000D01*
X103897500Y-49452380D01*
X103897500Y-49547619D01*
X104373690Y-49785714D02*
X104373690Y-50452380D01*
X104373690Y-49880952D02*
X104421309Y-49833333D01*
X104516547Y-49785714D01*
X104659404Y-49785714D01*
X104754642Y-49833333D01*
X104802261Y-49928571D01*
X104802261Y-50452380D01*
X105230833Y-50404761D02*
X105326071Y-50452380D01*
X105516547Y-50452380D01*
X105611785Y-50404761D01*
X105659404Y-50309523D01*
X105659404Y-50261904D01*
X105611785Y-50166666D01*
X105516547Y-50119047D01*
X105373690Y-50119047D01*
X105278452Y-50071428D01*
X105230833Y-49976190D01*
X105230833Y-49928571D01*
X105278452Y-49833333D01*
X105373690Y-49785714D01*
X105516547Y-49785714D01*
X105611785Y-49833333D01*
X105945119Y-49785714D02*
X106326071Y-49785714D01*
X106087976Y-49452380D02*
X106087976Y-50309523D01*
X106135595Y-50404761D01*
X106230833Y-50452380D01*
X106326071Y-50452380D01*
X107087976Y-50452380D02*
X107087976Y-49928571D01*
X107040357Y-49833333D01*
X106945119Y-49785714D01*
X106754642Y-49785714D01*
X106659404Y-49833333D01*
X107087976Y-50404761D02*
X106992738Y-50452380D01*
X106754642Y-50452380D01*
X106659404Y-50404761D01*
X106611785Y-50309523D01*
X106611785Y-50214285D01*
X106659404Y-50119047D01*
X106754642Y-50071428D01*
X106992738Y-50071428D01*
X107087976Y-50023809D01*
X107707023Y-50452380D02*
X107611785Y-50404761D01*
X107564166Y-50309523D01*
X107564166Y-49452380D01*
X108230833Y-50452380D02*
X108135595Y-50404761D01*
X108087976Y-50309523D01*
X108087976Y-49452380D01*
X108992738Y-50404761D02*
X108897500Y-50452380D01*
X108707023Y-50452380D01*
X108611785Y-50404761D01*
X108564166Y-50309523D01*
X108564166Y-49928571D01*
X108611785Y-49833333D01*
X108707023Y-49785714D01*
X108897500Y-49785714D01*
X108992738Y-49833333D01*
X109040357Y-49928571D01*
X109040357Y-50023809D01*
X108564166Y-50119047D01*
X109897500Y-50452380D02*
X109897500Y-49452380D01*
X109897500Y-50404761D02*
X109802261Y-50452380D01*
X109611785Y-50452380D01*
X109516547Y-50404761D01*
X109468928Y-50357142D01*
X109421309Y-50261904D01*
X109421309Y-49976190D01*
X109468928Y-49880952D01*
X109516547Y-49833333D01*
X109611785Y-49785714D01*
X109802261Y-49785714D01*
X109897500Y-49833333D01*
X103087976Y-51157619D02*
X103135595Y-51110000D01*
X103230833Y-51062380D01*
X103468928Y-51062380D01*
X103564166Y-51110000D01*
X103611785Y-51157619D01*
X103659404Y-51252857D01*
X103659404Y-51348095D01*
X103611785Y-51490952D01*
X103040357Y-52062380D01*
X103659404Y-52062380D01*
X104087976Y-51967142D02*
X104135595Y-52014761D01*
X104087976Y-52062380D01*
X104040357Y-52014761D01*
X104087976Y-51967142D01*
X104087976Y-52062380D01*
X105278452Y-52014761D02*
X105421309Y-52062380D01*
X105659404Y-52062380D01*
X105754642Y-52014761D01*
X105802261Y-51967142D01*
X105849880Y-51871904D01*
X105849880Y-51776666D01*
X105802261Y-51681428D01*
X105754642Y-51633809D01*
X105659404Y-51586190D01*
X105468928Y-51538571D01*
X105373690Y-51490952D01*
X105326071Y-51443333D01*
X105278452Y-51348095D01*
X105278452Y-51252857D01*
X105326071Y-51157619D01*
X105373690Y-51110000D01*
X105468928Y-51062380D01*
X105707023Y-51062380D01*
X105849880Y-51110000D01*
X106183214Y-51395714D02*
X106421309Y-52062380D01*
X106659404Y-51395714D02*
X106421309Y-52062380D01*
X106326071Y-52300476D01*
X106278452Y-52348095D01*
X106183214Y-52395714D01*
X106992738Y-52014761D02*
X107087976Y-52062380D01*
X107278452Y-52062380D01*
X107373690Y-52014761D01*
X107421309Y-51919523D01*
X107421309Y-51871904D01*
X107373690Y-51776666D01*
X107278452Y-51729047D01*
X107135595Y-51729047D01*
X107040357Y-51681428D01*
X106992738Y-51586190D01*
X106992738Y-51538571D01*
X107040357Y-51443333D01*
X107135595Y-51395714D01*
X107278452Y-51395714D01*
X107373690Y-51443333D01*
X107707023Y-51395714D02*
X108087976Y-51395714D01*
X107849880Y-51062380D02*
X107849880Y-51919523D01*
X107897500Y-52014761D01*
X107992738Y-52062380D01*
X108087976Y-52062380D01*
X108802261Y-52014761D02*
X108707023Y-52062380D01*
X108516547Y-52062380D01*
X108421309Y-52014761D01*
X108373690Y-51919523D01*
X108373690Y-51538571D01*
X108421309Y-51443333D01*
X108516547Y-51395714D01*
X108707023Y-51395714D01*
X108802261Y-51443333D01*
X108849880Y-51538571D01*
X108849880Y-51633809D01*
X108373690Y-51729047D01*
X109278452Y-52062380D02*
X109278452Y-51395714D01*
X109278452Y-51490952D02*
X109326071Y-51443333D01*
X109421309Y-51395714D01*
X109564166Y-51395714D01*
X109659404Y-51443333D01*
X109707023Y-51538571D01*
X109707023Y-52062380D01*
X109707023Y-51538571D02*
X109754642Y-51443333D01*
X109849880Y-51395714D01*
X109992738Y-51395714D01*
X110087976Y-51443333D01*
X110135595Y-51538571D01*
X110135595Y-52062380D01*
X111802261Y-52014761D02*
X111707023Y-52062380D01*
X111516547Y-52062380D01*
X111421309Y-52014761D01*
X111373690Y-51967142D01*
X111326071Y-51871904D01*
X111326071Y-51586190D01*
X111373690Y-51490952D01*
X111421309Y-51443333D01*
X111516547Y-51395714D01*
X111707023Y-51395714D01*
X111802261Y-51443333D01*
X112373690Y-52062380D02*
X112278452Y-52014761D01*
X112230833Y-51967142D01*
X112183214Y-51871904D01*
X112183214Y-51586190D01*
X112230833Y-51490952D01*
X112278452Y-51443333D01*
X112373690Y-51395714D01*
X112516547Y-51395714D01*
X112611785Y-51443333D01*
X112659404Y-51490952D01*
X112707023Y-51586190D01*
X112707023Y-51871904D01*
X112659404Y-51967142D01*
X112611785Y-52014761D01*
X112516547Y-52062380D01*
X112373690Y-52062380D01*
X113135595Y-51395714D02*
X113135595Y-52062380D01*
X113135595Y-51490952D02*
X113183214Y-51443333D01*
X113278452Y-51395714D01*
X113421309Y-51395714D01*
X113516547Y-51443333D01*
X113564166Y-51538571D01*
X113564166Y-52062380D01*
X113897500Y-51395714D02*
X114278452Y-51395714D01*
X114040357Y-51062380D02*
X114040357Y-51919523D01*
X114087976Y-52014761D01*
X114183214Y-52062380D01*
X114278452Y-52062380D01*
X114611785Y-52062380D02*
X114611785Y-51395714D01*
X114611785Y-51586190D02*
X114659404Y-51490952D01*
X114707023Y-51443333D01*
X114802261Y-51395714D01*
X114897500Y-51395714D01*
X115373690Y-52062380D02*
X115278452Y-52014761D01*
X115230833Y-51967142D01*
X115183214Y-51871904D01*
X115183214Y-51586190D01*
X115230833Y-51490952D01*
X115278452Y-51443333D01*
X115373690Y-51395714D01*
X115516547Y-51395714D01*
X115611785Y-51443333D01*
X115659404Y-51490952D01*
X115707023Y-51586190D01*
X115707023Y-51871904D01*
X115659404Y-51967142D01*
X115611785Y-52014761D01*
X115516547Y-52062380D01*
X115373690Y-52062380D01*
X116278452Y-52062380D02*
X116183214Y-52014761D01*
X116135595Y-51919523D01*
X116135595Y-51062380D01*
X116802261Y-52062380D02*
X116707023Y-52014761D01*
X116659404Y-51919523D01*
X116659404Y-51062380D01*
X117564166Y-52014761D02*
X117468928Y-52062380D01*
X117278452Y-52062380D01*
X117183214Y-52014761D01*
X117135595Y-51919523D01*
X117135595Y-51538571D01*
X117183214Y-51443333D01*
X117278452Y-51395714D01*
X117468928Y-51395714D01*
X117564166Y-51443333D01*
X117611785Y-51538571D01*
X117611785Y-51633809D01*
X117135595Y-51729047D01*
X118040357Y-52062380D02*
X118040357Y-51395714D01*
X118040357Y-51586190D02*
X118087976Y-51490952D01*
X118135595Y-51443333D01*
X118230833Y-51395714D01*
X118326071Y-51395714D01*
X103897500Y-53672380D02*
X103897500Y-53005714D01*
X103897500Y-53100952D02*
X103945119Y-53053333D01*
X104040357Y-53005714D01*
X104183214Y-53005714D01*
X104278452Y-53053333D01*
X104326071Y-53148571D01*
X104326071Y-53672380D01*
X104326071Y-53148571D02*
X104373690Y-53053333D01*
X104468928Y-53005714D01*
X104611785Y-53005714D01*
X104707023Y-53053333D01*
X104754642Y-53148571D01*
X104754642Y-53672380D01*
X105659404Y-53005714D02*
X105659404Y-53672380D01*
X105230833Y-53005714D02*
X105230833Y-53529523D01*
X105278452Y-53624761D01*
X105373690Y-53672380D01*
X105516547Y-53672380D01*
X105611785Y-53624761D01*
X105659404Y-53577142D01*
X106278452Y-53672380D02*
X106183214Y-53624761D01*
X106135595Y-53529523D01*
X106135595Y-52672380D01*
X106516547Y-53005714D02*
X106897500Y-53005714D01*
X106659404Y-52672380D02*
X106659404Y-53529523D01*
X106707023Y-53624761D01*
X106802261Y-53672380D01*
X106897500Y-53672380D01*
X107230833Y-53672380D02*
X107230833Y-53005714D01*
X107230833Y-52672380D02*
X107183214Y-52720000D01*
X107230833Y-52767619D01*
X107278452Y-52720000D01*
X107230833Y-52672380D01*
X107230833Y-52767619D01*
X107707023Y-53005714D02*
X107707023Y-54005714D01*
X107707023Y-53053333D02*
X107802261Y-53005714D01*
X107992738Y-53005714D01*
X108087976Y-53053333D01*
X108135595Y-53100952D01*
X108183214Y-53196190D01*
X108183214Y-53481904D01*
X108135595Y-53577142D01*
X108087976Y-53624761D01*
X107992738Y-53672380D01*
X107802261Y-53672380D01*
X107707023Y-53624761D01*
X108754642Y-53672380D02*
X108659404Y-53624761D01*
X108611785Y-53529523D01*
X108611785Y-52672380D01*
X109516547Y-53624761D02*
X109421309Y-53672380D01*
X109230833Y-53672380D01*
X109135595Y-53624761D01*
X109087976Y-53529523D01*
X109087976Y-53148571D01*
X109135595Y-53053333D01*
X109230833Y-53005714D01*
X109421309Y-53005714D01*
X109516547Y-53053333D01*
X109564166Y-53148571D01*
X109564166Y-53243809D01*
X109087976Y-53339047D01*
X110754642Y-53672380D02*
X110754642Y-52672380D01*
X110754642Y-53053333D02*
X110849880Y-53005714D01*
X111040357Y-53005714D01*
X111135595Y-53053333D01*
X111183214Y-53100952D01*
X111230833Y-53196190D01*
X111230833Y-53481904D01*
X111183214Y-53577142D01*
X111135595Y-53624761D01*
X111040357Y-53672380D01*
X110849880Y-53672380D01*
X110754642Y-53624761D01*
X111802261Y-53672380D02*
X111707023Y-53624761D01*
X111659404Y-53577142D01*
X111611785Y-53481904D01*
X111611785Y-53196190D01*
X111659404Y-53100952D01*
X111707023Y-53053333D01*
X111802261Y-53005714D01*
X111945119Y-53005714D01*
X112040357Y-53053333D01*
X112087976Y-53100952D01*
X112135595Y-53196190D01*
X112135595Y-53481904D01*
X112087976Y-53577142D01*
X112040357Y-53624761D01*
X111945119Y-53672380D01*
X111802261Y-53672380D01*
X112992738Y-53672380D02*
X112992738Y-53148571D01*
X112945119Y-53053333D01*
X112849880Y-53005714D01*
X112659404Y-53005714D01*
X112564166Y-53053333D01*
X112992738Y-53624761D02*
X112897500Y-53672380D01*
X112659404Y-53672380D01*
X112564166Y-53624761D01*
X112516547Y-53529523D01*
X112516547Y-53434285D01*
X112564166Y-53339047D01*
X112659404Y-53291428D01*
X112897500Y-53291428D01*
X112992738Y-53243809D01*
X113468928Y-53672380D02*
X113468928Y-53005714D01*
X113468928Y-53196190D02*
X113516547Y-53100952D01*
X113564166Y-53053333D01*
X113659404Y-53005714D01*
X113754642Y-53005714D01*
X114516547Y-53672380D02*
X114516547Y-52672380D01*
X114516547Y-53624761D02*
X114421309Y-53672380D01*
X114230833Y-53672380D01*
X114135595Y-53624761D01*
X114087976Y-53577142D01*
X114040357Y-53481904D01*
X114040357Y-53196190D01*
X114087976Y-53100952D01*
X114135595Y-53053333D01*
X114230833Y-53005714D01*
X114421309Y-53005714D01*
X114516547Y-53053333D01*
X114945119Y-53624761D02*
X115040357Y-53672380D01*
X115230833Y-53672380D01*
X115326071Y-53624761D01*
X115373690Y-53529523D01*
X115373690Y-53481904D01*
X115326071Y-53386666D01*
X115230833Y-53339047D01*
X115087976Y-53339047D01*
X114992738Y-53291428D01*
X114945119Y-53196190D01*
X114945119Y-53148571D01*
X114992738Y-53053333D01*
X115087976Y-53005714D01*
X115230833Y-53005714D01*
X115326071Y-53053333D01*
X116516547Y-53624761D02*
X116611785Y-53672380D01*
X116802261Y-53672380D01*
X116897500Y-53624761D01*
X116945119Y-53529523D01*
X116945119Y-53481904D01*
X116897500Y-53386666D01*
X116802261Y-53339047D01*
X116659404Y-53339047D01*
X116564166Y-53291428D01*
X116516547Y-53196190D01*
X116516547Y-53148571D01*
X116564166Y-53053333D01*
X116659404Y-53005714D01*
X116802261Y-53005714D01*
X116897500Y-53053333D01*
X117230833Y-53005714D02*
X117611785Y-53005714D01*
X117373690Y-52672380D02*
X117373690Y-53529523D01*
X117421309Y-53624761D01*
X117516547Y-53672380D01*
X117611785Y-53672380D01*
X118373690Y-53672380D02*
X118373690Y-53148571D01*
X118326071Y-53053333D01*
X118230833Y-53005714D01*
X118040357Y-53005714D01*
X117945119Y-53053333D01*
X118373690Y-53624761D02*
X118278452Y-53672380D01*
X118040357Y-53672380D01*
X117945119Y-53624761D01*
X117897500Y-53529523D01*
X117897500Y-53434285D01*
X117945119Y-53339047D01*
X118040357Y-53291428D01*
X118278452Y-53291428D01*
X118373690Y-53243809D01*
X119278452Y-53624761D02*
X119183214Y-53672380D01*
X118992738Y-53672380D01*
X118897500Y-53624761D01*
X118849880Y-53577142D01*
X118802261Y-53481904D01*
X118802261Y-53196190D01*
X118849880Y-53100952D01*
X118897500Y-53053333D01*
X118992738Y-53005714D01*
X119183214Y-53005714D01*
X119278452Y-53053333D01*
X119707023Y-53672380D02*
X119707023Y-52672380D01*
X119802261Y-53291428D02*
X120087976Y-53672380D01*
X120087976Y-53005714D02*
X119707023Y-53386666D01*
X120897500Y-53624761D02*
X120802261Y-53672380D01*
X120611785Y-53672380D01*
X120516547Y-53624761D01*
X120468928Y-53529523D01*
X120468928Y-53148571D01*
X120516547Y-53053333D01*
X120611785Y-53005714D01*
X120802261Y-53005714D01*
X120897500Y-53053333D01*
X120945119Y-53148571D01*
X120945119Y-53243809D01*
X120468928Y-53339047D01*
X121802261Y-53672380D02*
X121802261Y-52672380D01*
X121802261Y-53624761D02*
X121707023Y-53672380D01*
X121516547Y-53672380D01*
X121421309Y-53624761D01*
X121373690Y-53577142D01*
X121326071Y-53481904D01*
X121326071Y-53196190D01*
X121373690Y-53100952D01*
X121421309Y-53053333D01*
X121516547Y-53005714D01*
X121707023Y-53005714D01*
X121802261Y-53053333D01*
X103802261Y-54615714D02*
X104040357Y-55282380D01*
X104278452Y-54615714D01*
X104659404Y-55282380D02*
X104659404Y-54615714D01*
X104659404Y-54282380D02*
X104611785Y-54330000D01*
X104659404Y-54377619D01*
X104707023Y-54330000D01*
X104659404Y-54282380D01*
X104659404Y-54377619D01*
X105564166Y-55282380D02*
X105564166Y-54758571D01*
X105516547Y-54663333D01*
X105421309Y-54615714D01*
X105230833Y-54615714D01*
X105135595Y-54663333D01*
X105564166Y-55234761D02*
X105468928Y-55282380D01*
X105230833Y-55282380D01*
X105135595Y-55234761D01*
X105087976Y-55139523D01*
X105087976Y-55044285D01*
X105135595Y-54949047D01*
X105230833Y-54901428D01*
X105468928Y-54901428D01*
X105564166Y-54853809D01*
X106659404Y-54615714D02*
X107040357Y-54615714D01*
X106802261Y-54282380D02*
X106802261Y-55139523D01*
X106849880Y-55234761D01*
X106945119Y-55282380D01*
X107040357Y-55282380D01*
X107373690Y-55282380D02*
X107373690Y-54282380D01*
X107802261Y-55282380D02*
X107802261Y-54758571D01*
X107754642Y-54663333D01*
X107659404Y-54615714D01*
X107516547Y-54615714D01*
X107421309Y-54663333D01*
X107373690Y-54710952D01*
X108659404Y-55234761D02*
X108564166Y-55282380D01*
X108373690Y-55282380D01*
X108278452Y-55234761D01*
X108230833Y-55139523D01*
X108230833Y-54758571D01*
X108278452Y-54663333D01*
X108373690Y-54615714D01*
X108564166Y-54615714D01*
X108659404Y-54663333D01*
X108707023Y-54758571D01*
X108707023Y-54853809D01*
X108230833Y-54949047D01*
X110278452Y-55234761D02*
X110183214Y-55282380D01*
X109992738Y-55282380D01*
X109897500Y-55234761D01*
X109849880Y-55139523D01*
X109849880Y-54758571D01*
X109897500Y-54663333D01*
X109992738Y-54615714D01*
X110183214Y-54615714D01*
X110278452Y-54663333D01*
X110326071Y-54758571D01*
X110326071Y-54853809D01*
X109849880Y-54949047D01*
X110659404Y-55282380D02*
X111183214Y-54615714D01*
X110659404Y-54615714D02*
X111183214Y-55282380D01*
X111564166Y-54615714D02*
X111564166Y-55615714D01*
X111564166Y-54663333D02*
X111659404Y-54615714D01*
X111849880Y-54615714D01*
X111945119Y-54663333D01*
X111992738Y-54710952D01*
X112040357Y-54806190D01*
X112040357Y-55091904D01*
X111992738Y-55187142D01*
X111945119Y-55234761D01*
X111849880Y-55282380D01*
X111659404Y-55282380D01*
X111564166Y-55234761D01*
X112326071Y-54615714D02*
X112707023Y-54615714D01*
X112468928Y-54282380D02*
X112468928Y-55139523D01*
X112516547Y-55234761D01*
X112611785Y-55282380D01*
X112707023Y-55282380D01*
X113468928Y-55282380D02*
X113468928Y-54758571D01*
X113421309Y-54663333D01*
X113326071Y-54615714D01*
X113135595Y-54615714D01*
X113040357Y-54663333D01*
X113468928Y-55234761D02*
X113373690Y-55282380D01*
X113135595Y-55282380D01*
X113040357Y-55234761D01*
X112992738Y-55139523D01*
X112992738Y-55044285D01*
X113040357Y-54949047D01*
X113135595Y-54901428D01*
X113373690Y-54901428D01*
X113468928Y-54853809D01*
X113945119Y-54615714D02*
X113945119Y-55282380D01*
X113945119Y-54710952D02*
X113992738Y-54663333D01*
X114087976Y-54615714D01*
X114230833Y-54615714D01*
X114326071Y-54663333D01*
X114373690Y-54758571D01*
X114373690Y-55282380D01*
X114802261Y-55234761D02*
X114897500Y-55282380D01*
X115087976Y-55282380D01*
X115183214Y-55234761D01*
X115230833Y-55139523D01*
X115230833Y-55091904D01*
X115183214Y-54996666D01*
X115087976Y-54949047D01*
X114945119Y-54949047D01*
X114849880Y-54901428D01*
X114802261Y-54806190D01*
X114802261Y-54758571D01*
X114849880Y-54663333D01*
X114945119Y-54615714D01*
X115087976Y-54615714D01*
X115183214Y-54663333D01*
X115659404Y-55282380D02*
X115659404Y-54615714D01*
X115659404Y-54282380D02*
X115611785Y-54330000D01*
X115659404Y-54377619D01*
X115707023Y-54330000D01*
X115659404Y-54282380D01*
X115659404Y-54377619D01*
X116278452Y-55282380D02*
X116183214Y-55234761D01*
X116135595Y-55187142D01*
X116087976Y-55091904D01*
X116087976Y-54806190D01*
X116135595Y-54710952D01*
X116183214Y-54663333D01*
X116278452Y-54615714D01*
X116421309Y-54615714D01*
X116516547Y-54663333D01*
X116564166Y-54710952D01*
X116611785Y-54806190D01*
X116611785Y-55091904D01*
X116564166Y-55187142D01*
X116516547Y-55234761D01*
X116421309Y-55282380D01*
X116278452Y-55282380D01*
X117040357Y-54615714D02*
X117040357Y-55282380D01*
X117040357Y-54710952D02*
X117087976Y-54663333D01*
X117183214Y-54615714D01*
X117326071Y-54615714D01*
X117421309Y-54663333D01*
X117468928Y-54758571D01*
X117468928Y-55282380D01*
X118707023Y-55282380D02*
X118707023Y-54282380D01*
X119135595Y-55282380D02*
X119135595Y-54758571D01*
X119087976Y-54663333D01*
X118992738Y-54615714D01*
X118849880Y-54615714D01*
X118754642Y-54663333D01*
X118707023Y-54710952D01*
X119992738Y-55234761D02*
X119897500Y-55282380D01*
X119707023Y-55282380D01*
X119611785Y-55234761D01*
X119564166Y-55139523D01*
X119564166Y-54758571D01*
X119611785Y-54663333D01*
X119707023Y-54615714D01*
X119897500Y-54615714D01*
X119992738Y-54663333D01*
X120040357Y-54758571D01*
X120040357Y-54853809D01*
X119564166Y-54949047D01*
X120897500Y-55282380D02*
X120897500Y-54758571D01*
X120849880Y-54663333D01*
X120754642Y-54615714D01*
X120564166Y-54615714D01*
X120468928Y-54663333D01*
X120897500Y-55234761D02*
X120802261Y-55282380D01*
X120564166Y-55282380D01*
X120468928Y-55234761D01*
X120421309Y-55139523D01*
X120421309Y-55044285D01*
X120468928Y-54949047D01*
X120564166Y-54901428D01*
X120802261Y-54901428D01*
X120897500Y-54853809D01*
X121802261Y-55282380D02*
X121802261Y-54282380D01*
X121802261Y-55234761D02*
X121707023Y-55282380D01*
X121516547Y-55282380D01*
X121421309Y-55234761D01*
X121373690Y-55187142D01*
X121326071Y-55091904D01*
X121326071Y-54806190D01*
X121373690Y-54710952D01*
X121421309Y-54663333D01*
X121516547Y-54615714D01*
X121707023Y-54615714D01*
X121802261Y-54663333D01*
X122659404Y-55234761D02*
X122564166Y-55282380D01*
X122373690Y-55282380D01*
X122278452Y-55234761D01*
X122230833Y-55139523D01*
X122230833Y-54758571D01*
X122278452Y-54663333D01*
X122373690Y-54615714D01*
X122564166Y-54615714D01*
X122659404Y-54663333D01*
X122707023Y-54758571D01*
X122707023Y-54853809D01*
X122230833Y-54949047D01*
X123135595Y-55282380D02*
X123135595Y-54615714D01*
X123135595Y-54806190D02*
X123183214Y-54710952D01*
X123230833Y-54663333D01*
X123326071Y-54615714D01*
X123421309Y-54615714D01*
X124907142Y-39071428D02*
X124954761Y-39119047D01*
X125002380Y-39261904D01*
X125002380Y-39357142D01*
X124954761Y-39500000D01*
X124859523Y-39595238D01*
X124764285Y-39642857D01*
X124573809Y-39690476D01*
X124430952Y-39690476D01*
X124240476Y-39642857D01*
X124145238Y-39595238D01*
X124050000Y-39500000D01*
X124002380Y-39357142D01*
X124002380Y-39261904D01*
X124050000Y-39119047D01*
X124097619Y-39071428D01*
X125002380Y-38166666D02*
X125002380Y-38642857D01*
X124002380Y-38642857D01*
X125002380Y-37833333D02*
X124002380Y-37833333D01*
X125002380Y-37261904D02*
X124430952Y-37690476D01*
X124002380Y-37261904D02*
X124573809Y-37833333D01*
X124097619Y-36880952D02*
X124050000Y-36833333D01*
X124002380Y-36738095D01*
X124002380Y-36500000D01*
X124050000Y-36404761D01*
X124097619Y-36357142D01*
X124192857Y-36309523D01*
X124288095Y-36309523D01*
X124430952Y-36357142D01*
X125002380Y-36928571D01*
X125002380Y-36309523D01*
X124907142Y-63071428D02*
X124954761Y-63119047D01*
X125002380Y-63261904D01*
X125002380Y-63357142D01*
X124954761Y-63500000D01*
X124859523Y-63595238D01*
X124764285Y-63642857D01*
X124573809Y-63690476D01*
X124430952Y-63690476D01*
X124240476Y-63642857D01*
X124145238Y-63595238D01*
X124050000Y-63500000D01*
X124002380Y-63357142D01*
X124002380Y-63261904D01*
X124050000Y-63119047D01*
X124097619Y-63071428D01*
X125002380Y-62166666D02*
X125002380Y-62642857D01*
X124002380Y-62642857D01*
X125002380Y-61833333D02*
X124002380Y-61833333D01*
X125002380Y-61261904D02*
X124430952Y-61690476D01*
X124002380Y-61261904D02*
X124573809Y-61833333D01*
X124002380Y-60642857D02*
X124002380Y-60547619D01*
X124050000Y-60452380D01*
X124097619Y-60404761D01*
X124192857Y-60357142D01*
X124383333Y-60309523D01*
X124621428Y-60309523D01*
X124811904Y-60357142D01*
X124907142Y-60404761D01*
X124954761Y-60452380D01*
X125002380Y-60547619D01*
X125002380Y-60642857D01*
X124954761Y-60738095D01*
X124907142Y-60785714D01*
X124811904Y-60833333D01*
X124621428Y-60880952D01*
X124383333Y-60880952D01*
X124192857Y-60833333D01*
X124097619Y-60785714D01*
X124050000Y-60738095D01*
X124002380Y-60642857D01*
D11*
%TO.C,U1*%
X61301190Y-43030952D02*
X61705952Y-43030952D01*
X61753571Y-43007142D01*
X61777380Y-42983333D01*
X61801190Y-42935714D01*
X61801190Y-42840476D01*
X61777380Y-42792857D01*
X61753571Y-42769047D01*
X61705952Y-42745238D01*
X61301190Y-42745238D01*
X61801190Y-42245238D02*
X61801190Y-42530952D01*
X61801190Y-42388095D02*
X61301190Y-42388095D01*
X61372619Y-42435714D01*
X61420238Y-42483333D01*
X61444047Y-42530952D01*
D12*
X52595238Y-63666666D02*
X52500000Y-63571428D01*
X52404761Y-63380952D01*
X52404761Y-62904761D01*
X52500000Y-62714285D01*
X52595238Y-62619047D01*
X52785714Y-62523809D01*
X52976190Y-62523809D01*
X53261904Y-62619047D01*
X54404761Y-63761904D01*
X54404761Y-62523809D01*
X53071428Y-60809523D02*
X54404761Y-60809523D01*
X52309523Y-61285714D02*
X53738095Y-61761904D01*
X53738095Y-60523809D01*
X52404761Y-59380952D02*
X52404761Y-59190476D01*
X52500000Y-59000000D01*
X52595238Y-58904761D01*
X52785714Y-58809523D01*
X53166666Y-58714285D01*
X53642857Y-58714285D01*
X54023809Y-58809523D01*
X54214285Y-58904761D01*
X54309523Y-59000000D01*
X54404761Y-59190476D01*
X54404761Y-59380952D01*
X54309523Y-59571428D01*
X54214285Y-59666666D01*
X54023809Y-59761904D01*
X53642857Y-59857142D01*
X53166666Y-59857142D01*
X52785714Y-59761904D01*
X52595238Y-59666666D01*
X52500000Y-59571428D01*
X52404761Y-59380952D01*
X54404761Y-56714285D02*
X53452380Y-57380952D01*
X54404761Y-57857142D02*
X52404761Y-57857142D01*
X52404761Y-57095238D01*
X52500000Y-56904761D01*
X52595238Y-56809523D01*
X52785714Y-56714285D01*
X53071428Y-56714285D01*
X53261904Y-56809523D01*
X53357142Y-56904761D01*
X53452380Y-57095238D01*
X53452380Y-57857142D01*
X52500000Y-54809523D02*
X52404761Y-55000000D01*
X52404761Y-55285714D01*
X52500000Y-55571428D01*
X52690476Y-55761904D01*
X52880952Y-55857142D01*
X53261904Y-55952380D01*
X53547619Y-55952380D01*
X53928571Y-55857142D01*
X54119047Y-55761904D01*
X54309523Y-55571428D01*
X54404761Y-55285714D01*
X54404761Y-55095238D01*
X54309523Y-54809523D01*
X54214285Y-54714285D01*
X53547619Y-54714285D01*
X53547619Y-55095238D01*
X53357142Y-53190476D02*
X53452380Y-52904761D01*
X53547619Y-52809523D01*
X53738095Y-52714285D01*
X54023809Y-52714285D01*
X54214285Y-52809523D01*
X54309523Y-52904761D01*
X54404761Y-53095238D01*
X54404761Y-53857142D01*
X52404761Y-53857142D01*
X52404761Y-53190476D01*
X52500000Y-53000000D01*
X52595238Y-52904761D01*
X52785714Y-52809523D01*
X52976190Y-52809523D01*
X53166666Y-52904761D01*
X53261904Y-53000000D01*
X53357142Y-53190476D01*
X53357142Y-53857142D01*
X54404761Y-52047619D02*
X53071428Y-51000000D01*
X53071428Y-52047619D02*
X54404761Y-51000000D01*
X52404761Y-50428571D02*
X52404761Y-49190476D01*
X53166666Y-49857142D01*
X53166666Y-49571428D01*
X53261904Y-49380952D01*
X53357142Y-49285714D01*
X53547619Y-49190476D01*
X54023809Y-49190476D01*
X54214285Y-49285714D01*
X54309523Y-49380952D01*
X54404761Y-49571428D01*
X54404761Y-50142857D01*
X54309523Y-50333333D01*
X54214285Y-50428571D01*
X52595238Y-48428571D02*
X52500000Y-48333333D01*
X52404761Y-48142857D01*
X52404761Y-47666666D01*
X52500000Y-47476190D01*
X52595238Y-47380952D01*
X52785714Y-47285714D01*
X52976190Y-47285714D01*
X53261904Y-47380952D01*
X54404761Y-48523809D01*
X54404761Y-47285714D01*
X52404761Y-46047619D02*
X52404761Y-45857142D01*
X52500000Y-45666666D01*
X52595238Y-45571428D01*
X52785714Y-45476190D01*
X53166666Y-45380952D01*
X53642857Y-45380952D01*
X54023809Y-45476190D01*
X54214285Y-45571428D01*
X54309523Y-45666666D01*
X54404761Y-45857142D01*
X54404761Y-46047619D01*
X54309523Y-46238095D01*
X54214285Y-46333333D01*
X54023809Y-46428571D01*
X53642857Y-46523809D01*
X53166666Y-46523809D01*
X52785714Y-46428571D01*
X52595238Y-46333333D01*
X52500000Y-46238095D01*
X52404761Y-46047619D01*
X54404761Y-43000000D02*
X52404761Y-43000000D01*
X52404761Y-42523809D01*
X52500000Y-42238095D01*
X52690476Y-42047619D01*
X52880952Y-41952380D01*
X53261904Y-41857142D01*
X53547619Y-41857142D01*
X53928571Y-41952380D01*
X54119047Y-42047619D01*
X54309523Y-42238095D01*
X54404761Y-42523809D01*
X54404761Y-43000000D01*
X52404761Y-40619047D02*
X52404761Y-40238095D01*
X52500000Y-40047619D01*
X52690476Y-39857142D01*
X53071428Y-39761904D01*
X53738095Y-39761904D01*
X54119047Y-39857142D01*
X54309523Y-40047619D01*
X54404761Y-40238095D01*
X54404761Y-40619047D01*
X54309523Y-40809523D01*
X54119047Y-41000000D01*
X53738095Y-41095238D01*
X53071428Y-41095238D01*
X52690476Y-41000000D01*
X52500000Y-40809523D01*
X52404761Y-40619047D01*
X52404761Y-39190476D02*
X52404761Y-38047619D01*
X54404761Y-38619047D02*
X52404761Y-38619047D01*
X54309523Y-37476190D02*
X54404761Y-37190476D01*
X54404761Y-36714285D01*
X54309523Y-36523809D01*
X54214285Y-36428571D01*
X54023809Y-36333333D01*
X53833333Y-36333333D01*
X53642857Y-36428571D01*
X53547619Y-36523809D01*
X53452380Y-36714285D01*
X53357142Y-37095238D01*
X53261904Y-37285714D01*
X53166666Y-37380952D01*
X52976190Y-37476190D01*
X52785714Y-37476190D01*
X52595238Y-37380952D01*
X52500000Y-37285714D01*
X52404761Y-37095238D01*
X52404761Y-36619047D01*
X52500000Y-36333333D01*
X67733333Y-49004761D02*
X66780952Y-49004761D01*
X66780952Y-47004761D01*
X69542857Y-48814285D02*
X69447619Y-48909523D01*
X69161904Y-49004761D01*
X68971428Y-49004761D01*
X68685714Y-48909523D01*
X68495238Y-48719047D01*
X68400000Y-48528571D01*
X68304761Y-48147619D01*
X68304761Y-47861904D01*
X68400000Y-47480952D01*
X68495238Y-47290476D01*
X68685714Y-47100000D01*
X68971428Y-47004761D01*
X69161904Y-47004761D01*
X69447619Y-47100000D01*
X69542857Y-47195238D01*
X70400000Y-49004761D02*
X70400000Y-47004761D01*
X70876190Y-47004761D01*
X71161904Y-47100000D01*
X71352380Y-47290476D01*
X71447619Y-47480952D01*
X71542857Y-47861904D01*
X71542857Y-48147619D01*
X71447619Y-48528571D01*
X71352380Y-48719047D01*
X71161904Y-48909523D01*
X70876190Y-49004761D01*
X70400000Y-49004761D01*
X74590476Y-47957142D02*
X73923809Y-47957142D01*
X73923809Y-49004761D02*
X73923809Y-47004761D01*
X74876190Y-47004761D01*
X76590476Y-49004761D02*
X75638095Y-49004761D01*
X75638095Y-47004761D01*
X77257142Y-47957142D02*
X77923809Y-47957142D01*
X78209523Y-49004761D02*
X77257142Y-49004761D01*
X77257142Y-47004761D01*
X78209523Y-47004761D01*
X78876190Y-47004761D02*
X80209523Y-49004761D01*
X80209523Y-47004761D02*
X78876190Y-49004761D01*
X49795238Y-55904761D02*
X49700000Y-55809523D01*
X49604761Y-55619047D01*
X49604761Y-55142857D01*
X49700000Y-54952380D01*
X49795238Y-54857142D01*
X49985714Y-54761904D01*
X50176190Y-54761904D01*
X50461904Y-54857142D01*
X51604761Y-56000000D01*
X51604761Y-54761904D01*
X51414285Y-53904761D02*
X51509523Y-53809523D01*
X51604761Y-53904761D01*
X51509523Y-54000000D01*
X51414285Y-53904761D01*
X51604761Y-53904761D01*
X49604761Y-52571428D02*
X49604761Y-52380952D01*
X49700000Y-52190476D01*
X49795238Y-52095238D01*
X49985714Y-52000000D01*
X50366666Y-51904761D01*
X50842857Y-51904761D01*
X51223809Y-52000000D01*
X51414285Y-52095238D01*
X51509523Y-52190476D01*
X51604761Y-52380952D01*
X51604761Y-52571428D01*
X51509523Y-52761904D01*
X51414285Y-52857142D01*
X51223809Y-52952380D01*
X50842857Y-53047619D01*
X50366666Y-53047619D01*
X49985714Y-52952380D01*
X49795238Y-52857142D01*
X49700000Y-52761904D01*
X49604761Y-52571428D01*
X49604761Y-51142857D02*
X49985714Y-51142857D01*
X49604761Y-50380952D02*
X49985714Y-50380952D01*
X49604761Y-48285714D02*
X49604761Y-47142857D01*
X51604761Y-47714285D02*
X49604761Y-47714285D01*
X50557142Y-45809523D02*
X50557142Y-46476190D01*
X51604761Y-46476190D02*
X49604761Y-46476190D01*
X49604761Y-45523809D01*
X49604761Y-45047619D02*
X49604761Y-43904761D01*
X51604761Y-44476190D02*
X49604761Y-44476190D01*
D11*
%TO.C,C1*%
X57078571Y-47033333D02*
X57102380Y-47057142D01*
X57126190Y-47128571D01*
X57126190Y-47176190D01*
X57102380Y-47247619D01*
X57054761Y-47295238D01*
X57007142Y-47319047D01*
X56911904Y-47342857D01*
X56840476Y-47342857D01*
X56745238Y-47319047D01*
X56697619Y-47295238D01*
X56650000Y-47247619D01*
X56626190Y-47176190D01*
X56626190Y-47128571D01*
X56650000Y-47057142D01*
X56673809Y-47033333D01*
X57126190Y-46557142D02*
X57126190Y-46842857D01*
X57126190Y-46700000D02*
X56626190Y-46700000D01*
X56697619Y-46747619D01*
X56745238Y-46795238D01*
X56769047Y-46842857D01*
%TO.C,SW2*%
X88733333Y-30302380D02*
X88804761Y-30326190D01*
X88923809Y-30326190D01*
X88971428Y-30302380D01*
X88995238Y-30278571D01*
X89019047Y-30230952D01*
X89019047Y-30183333D01*
X88995238Y-30135714D01*
X88971428Y-30111904D01*
X88923809Y-30088095D01*
X88828571Y-30064285D01*
X88780952Y-30040476D01*
X88757142Y-30016666D01*
X88733333Y-29969047D01*
X88733333Y-29921428D01*
X88757142Y-29873809D01*
X88780952Y-29850000D01*
X88828571Y-29826190D01*
X88947619Y-29826190D01*
X89019047Y-29850000D01*
X89185714Y-29826190D02*
X89304761Y-30326190D01*
X89400000Y-29969047D01*
X89495238Y-30326190D01*
X89614285Y-29826190D01*
X89780952Y-29873809D02*
X89804761Y-29850000D01*
X89852380Y-29826190D01*
X89971428Y-29826190D01*
X90019047Y-29850000D01*
X90042857Y-29873809D01*
X90066666Y-29921428D01*
X90066666Y-29969047D01*
X90042857Y-30040476D01*
X89757142Y-30326190D01*
X90066666Y-30326190D01*
%TO.C,R1*%
X61251190Y-44908333D02*
X61013095Y-45075000D01*
X61251190Y-45194047D02*
X60751190Y-45194047D01*
X60751190Y-45003571D01*
X60775000Y-44955952D01*
X60798809Y-44932142D01*
X60846428Y-44908333D01*
X60917857Y-44908333D01*
X60965476Y-44932142D01*
X60989285Y-44955952D01*
X61013095Y-45003571D01*
X61013095Y-45194047D01*
X61251190Y-44432142D02*
X61251190Y-44717857D01*
X61251190Y-44575000D02*
X60751190Y-44575000D01*
X60822619Y-44622619D01*
X60870238Y-44670238D01*
X60894047Y-44717857D01*
%TO.C,SW1*%
X88633333Y-56102380D02*
X88704761Y-56126190D01*
X88823809Y-56126190D01*
X88871428Y-56102380D01*
X88895238Y-56078571D01*
X88919047Y-56030952D01*
X88919047Y-55983333D01*
X88895238Y-55935714D01*
X88871428Y-55911904D01*
X88823809Y-55888095D01*
X88728571Y-55864285D01*
X88680952Y-55840476D01*
X88657142Y-55816666D01*
X88633333Y-55769047D01*
X88633333Y-55721428D01*
X88657142Y-55673809D01*
X88680952Y-55650000D01*
X88728571Y-55626190D01*
X88847619Y-55626190D01*
X88919047Y-55650000D01*
X89085714Y-55626190D02*
X89204761Y-56126190D01*
X89300000Y-55769047D01*
X89395238Y-56126190D01*
X89514285Y-55626190D01*
X89966666Y-56126190D02*
X89680952Y-56126190D01*
X89823809Y-56126190D02*
X89823809Y-55626190D01*
X89776190Y-55697619D01*
X89728571Y-55745238D01*
X89680952Y-55769047D01*
%TO.C,U1*%
X34100000Y-32700000D02*
X81900000Y-32700000D01*
X81900000Y-32700000D02*
X81900000Y-67300000D01*
X81900000Y-67300000D02*
X34100000Y-67300000D01*
X34100000Y-67300000D02*
X34100000Y-32700000D01*
D13*
X62500000Y-43750000D02*
X62250000Y-43500000D01*
X62800000Y-54100000D02*
X66200000Y-54100000D01*
X62250000Y-44000000D02*
X62500000Y-43750000D01*
X62250000Y-43500000D02*
X62250000Y-44000000D01*
X62700000Y-42100000D02*
X66000000Y-42100000D01*
%TO.C,C1*%
X59261252Y-46215000D02*
X58738748Y-46215000D01*
X59261252Y-47685000D02*
X58738748Y-47685000D01*
%TO.C,SW2*%
X93500000Y-38000000D02*
X94500000Y-37000000D01*
X87500000Y-30500000D02*
X90000000Y-30500000D01*
X87500000Y-39500000D02*
X87500000Y-45000000D01*
X100500000Y-45000000D02*
X100500000Y-39500000D01*
X98000000Y-45000000D02*
X100500000Y-45000000D01*
X93500000Y-37000000D02*
X94500000Y-38000000D01*
X100500000Y-35500000D02*
X100500000Y-30500000D01*
X87500000Y-35500000D02*
X87500000Y-30500000D01*
X100500000Y-30500000D02*
X98000000Y-30500000D01*
X87500000Y-45000000D02*
X90000000Y-45000000D01*
%TO.C,R1*%
X58772936Y-44090000D02*
X59227064Y-44090000D01*
X58772936Y-45560000D02*
X59227064Y-45560000D01*
%TO.C,SW1*%
X94000000Y-58500000D02*
X93500000Y-59000000D01*
X93500000Y-63000000D02*
X94500000Y-62000000D01*
X94000000Y-58500000D02*
X94000000Y-59500000D01*
X94000000Y-58500000D02*
X94500000Y-59000000D01*
X93500000Y-62000000D02*
X94500000Y-63000000D01*
D11*
X87800000Y-56300000D02*
X100200000Y-56300000D01*
X100200000Y-56300000D02*
X100200000Y-68700000D01*
X100200000Y-68700000D02*
X87800000Y-68700000D01*
X87800000Y-68700000D02*
X87800000Y-56300000D01*
%TD*%
M02*
