%TF.GenerationSoftware,KiCad,Pcbnew,6.0.2+dfsg-1*%
%TF.CreationDate,2024-02-19T13:24:52+02:00*%
%TF.ProjectId,rpi_pico_si5351,7270695f-7069-4636-9f5f-736935333531,rev?*%
%TF.SameCoordinates,Original*%
%TF.FileFunction,Soldermask,Bot*%
%TF.FilePolarity,Negative*%
%FSLAX46Y46*%
G04 Gerber Fmt 4.6, Leading zero omitted, Abs format (unit mm)*
G04 Created by KiCad (PCBNEW 6.0.2+dfsg-1) date 2024-02-19 13:24:52*
%MOMM*%
%LPD*%
G01*
G04 APERTURE LIST*
G04 Aperture macros list*
%AMRoundRect*
0 Rectangle with rounded corners*
0 $1 Rounding radius*
0 $2 $3 $4 $5 $6 $7 $8 $9 X,Y pos of 4 corners*
0 Add a 4 corners polygon primitive as box body*
4,1,4,$2,$3,$4,$5,$6,$7,$8,$9,$2,$3,0*
0 Add four circle primitives for the rounded corners*
1,1,$1+$1,$2,$3*
1,1,$1+$1,$4,$5*
1,1,$1+$1,$6,$7*
1,1,$1+$1,$8,$9*
0 Add four rect primitives between the rounded corners*
20,1,$1+$1,$2,$3,$4,$5,0*
20,1,$1+$1,$4,$5,$6,$7,0*
20,1,$1+$1,$6,$7,$8,$9,0*
20,1,$1+$1,$8,$9,$2,$3,0*%
%AMOutline4P*
0 Free polygon, 4 corners , with rotation*
0 The origin of the aperture is its center*
0 number of corners: always 4*
0 $1 to $8 corner X, Y*
0 $9 Rotation angle, in degrees counterclockwise*
0 create outline with 4 corners*
4,1,4,$1,$2,$3,$4,$5,$6,$7,$8,$1,$2,$9*%
G04 Aperture macros list end*
%ADD10C,3.600000*%
%ADD11C,5.600000*%
%ADD12C,2.000000*%
%ADD13RoundRect,0.250000X-0.450000X0.262500X-0.450000X-0.262500X0.450000X-0.262500X0.450000X0.262500X0*%
%ADD14Outline4P,-2.000000X-0.750000X2.000000X-0.750000X2.000000X0.750000X-2.000000X0.750000X180.000000*%
%ADD15R,4.000000X2.000000*%
%ADD16RoundRect,0.250000X0.475000X-0.250000X0.475000X0.250000X-0.475000X0.250000X-0.475000X-0.250000X0*%
%ADD17R,1.000000X3.000000*%
%ADD18RoundRect,0.250000X-0.250000X-0.475000X0.250000X-0.475000X0.250000X0.475000X-0.250000X0.475000X0*%
%ADD19O,1.800000X1.800000*%
%ADD20O,1.500000X1.500000*%
%ADD21R,1.700000X3.500000*%
%ADD22R,3.500000X1.700000*%
%ADD23RoundRect,0.250000X-0.262500X-0.450000X0.262500X-0.450000X0.262500X0.450000X-0.262500X0.450000X0*%
%ADD24RoundRect,0.250000X0.262500X0.450000X-0.262500X0.450000X-0.262500X-0.450000X0.262500X-0.450000X0*%
%ADD25RoundRect,0.250000X0.450000X-0.262500X0.450000X0.262500X-0.450000X0.262500X-0.450000X-0.262500X0*%
%ADD26R,1.400000X0.300000*%
%ADD27R,1.200000X1.400000*%
%ADD28RoundRect,0.250000X0.250000X0.475000X-0.250000X0.475000X-0.250000X-0.475000X0.250000X-0.475000X0*%
G04 APERTURE END LIST*
D10*
%TO.C,H3*%
X126000000Y-29000000D03*
D11*
X126000000Y-29000000D03*
%TD*%
%TO.C,H4*%
X34000000Y-29000000D03*
D10*
X34000000Y-29000000D03*
%TD*%
D12*
%TO.C,SW2*%
X91500000Y-30500000D03*
X96500000Y-30500000D03*
X91500000Y-45000000D03*
X96500000Y-45000000D03*
X94000000Y-45000000D03*
%TD*%
D11*
%TO.C,H1*%
X126000000Y-71000000D03*
D10*
X126000000Y-71000000D03*
%TD*%
D11*
%TO.C,H2*%
X34000000Y-71000000D03*
D10*
X34000000Y-71000000D03*
%TD*%
D13*
%TO.C,R11*%
X96500000Y-40937500D03*
X96500000Y-42762500D03*
%TD*%
D14*
%TO.C,J3*%
X127805000Y-38000000D03*
D15*
X127805000Y-35500000D03*
X127805000Y-40500000D03*
%TD*%
D16*
%TO.C,C10*%
X72525000Y-69425000D03*
X72525000Y-67525000D03*
%TD*%
D14*
%TO.C,J1*%
X127805000Y-62000000D03*
D15*
X127805000Y-64500000D03*
X127805000Y-59500000D03*
%TD*%
D14*
%TO.C,J2*%
X127805000Y-50000000D03*
D15*
X127805000Y-52500000D03*
X127805000Y-47500000D03*
%TD*%
D17*
%TO.C,J4*%
X39870000Y-33520000D03*
X39870000Y-28480000D03*
X42410000Y-33520000D03*
X42410000Y-28480000D03*
X44950000Y-33520000D03*
X44950000Y-28480000D03*
X47490000Y-33520000D03*
X47490000Y-28480000D03*
X50030000Y-33520000D03*
X50030000Y-28480000D03*
X52570000Y-33520000D03*
X52570000Y-28480000D03*
X55110000Y-33520000D03*
X55110000Y-28480000D03*
X57650000Y-33520000D03*
X57650000Y-28480000D03*
X60190000Y-33520000D03*
X60190000Y-28480000D03*
X62730000Y-33520000D03*
X62730000Y-28480000D03*
X65270000Y-33520000D03*
X65270000Y-28480000D03*
X67810000Y-33520000D03*
X67810000Y-28480000D03*
X70350000Y-33520000D03*
X70350000Y-28480000D03*
X72890000Y-33520000D03*
X72890000Y-28480000D03*
X75430000Y-33520000D03*
X75430000Y-28480000D03*
X77970000Y-33520000D03*
X77970000Y-28480000D03*
X80510000Y-33520000D03*
X80510000Y-28480000D03*
X83050000Y-33520000D03*
X83050000Y-28480000D03*
X85590000Y-33520000D03*
X85590000Y-28480000D03*
X88130000Y-33520000D03*
X88130000Y-28480000D03*
%TD*%
D18*
%TO.C,C8*%
X89550000Y-47400000D03*
X91450000Y-47400000D03*
%TD*%
D19*
%TO.C,U2*%
X32055000Y-52725000D03*
X32055000Y-47275000D03*
D20*
X35085000Y-47575000D03*
X35085000Y-52425000D03*
D21*
X31925000Y-40210000D03*
X34465000Y-40210000D03*
X37005000Y-40210000D03*
X39545000Y-40210000D03*
X42085000Y-40210000D03*
X44625000Y-40210000D03*
X47165000Y-40210000D03*
X49705000Y-40210000D03*
X52245000Y-40210000D03*
X54785000Y-40210000D03*
X57325000Y-40210000D03*
X59865000Y-40210000D03*
X62405000Y-40210000D03*
X64945000Y-40210000D03*
X67485000Y-40210000D03*
X70025000Y-40210000D03*
X72565000Y-40210000D03*
X75105000Y-40210000D03*
X77645000Y-40210000D03*
X80185000Y-40210000D03*
X80185000Y-59790000D03*
X77645000Y-59790000D03*
X75105000Y-59790000D03*
X72565000Y-59790000D03*
X70025000Y-59790000D03*
X67485000Y-59790000D03*
X64945000Y-59790000D03*
X62405000Y-59790000D03*
X59865000Y-59790000D03*
X57325000Y-59790000D03*
X54785000Y-59790000D03*
X52245000Y-59790000D03*
X49705000Y-59790000D03*
X47165000Y-59790000D03*
X44625000Y-59790000D03*
X42085000Y-59790000D03*
X39545000Y-59790000D03*
X37005000Y-59790000D03*
X34465000Y-59790000D03*
X31925000Y-59790000D03*
D22*
X80855000Y-47460000D03*
X80855000Y-50000000D03*
X80855000Y-52540000D03*
%TD*%
D23*
%TO.C,R6*%
X96637500Y-63800000D03*
X98462500Y-63800000D03*
%TD*%
D18*
%TO.C,C2*%
X122100000Y-62000000D03*
X124000000Y-62000000D03*
%TD*%
D24*
%TO.C,R8*%
X91912500Y-63000000D03*
X90087500Y-63000000D03*
%TD*%
D25*
%TO.C,R2*%
X115100000Y-46212500D03*
X115100000Y-44387500D03*
%TD*%
D16*
%TO.C,C14*%
X69975000Y-69425000D03*
X69975000Y-67525000D03*
%TD*%
D18*
%TO.C,C6*%
X122050000Y-38000000D03*
X123950000Y-38000000D03*
%TD*%
D26*
%TO.C,U3*%
X113600000Y-51000000D03*
X113600000Y-50500000D03*
X113600000Y-50000000D03*
X113600000Y-49500000D03*
X113600000Y-49000000D03*
X118000000Y-49000000D03*
X118000000Y-49500000D03*
X118000000Y-50000000D03*
X118000000Y-50500000D03*
X118000000Y-51000000D03*
%TD*%
D27*
%TO.C,X1*%
X108775000Y-53100000D03*
X108775000Y-50900000D03*
X110475000Y-50900000D03*
X110475000Y-53100000D03*
%TD*%
D16*
%TO.C,C11*%
X59800000Y-69425000D03*
X59800000Y-67525000D03*
%TD*%
D18*
%TO.C,C4*%
X113600000Y-52925000D03*
X115500000Y-52925000D03*
%TD*%
D16*
%TO.C,C3*%
X120125000Y-47775000D03*
X120125000Y-45875000D03*
%TD*%
D24*
%TO.C,R9*%
X94862500Y-32650000D03*
X93037500Y-32650000D03*
%TD*%
%TO.C,R4*%
X91912500Y-61000000D03*
X90087500Y-61000000D03*
%TD*%
D28*
%TO.C,C9*%
X98450000Y-47400000D03*
X96550000Y-47400000D03*
%TD*%
D23*
%TO.C,R3*%
X109812500Y-45800000D03*
X111637500Y-45800000D03*
%TD*%
%TO.C,R7*%
X96637500Y-65800000D03*
X98462500Y-65800000D03*
%TD*%
D28*
%TO.C,C7*%
X93350000Y-28100000D03*
X91450000Y-28100000D03*
%TD*%
D13*
%TO.C,R10*%
X91500000Y-40937500D03*
X91500000Y-42762500D03*
%TD*%
D23*
%TO.C,R5*%
X96637500Y-61800000D03*
X98462500Y-61800000D03*
%TD*%
D16*
%TO.C,C12*%
X64900000Y-69425000D03*
X64900000Y-67525000D03*
%TD*%
%TO.C,C13*%
X67425000Y-69425000D03*
X67425000Y-67525000D03*
%TD*%
D18*
%TO.C,C5*%
X122050000Y-50000000D03*
X123950000Y-50000000D03*
%TD*%
G36*
X106942121Y-42020002D02*
G01*
X106988614Y-42073658D01*
X107000000Y-42126000D01*
X107000000Y-47874000D01*
X106979998Y-47942121D01*
X106926342Y-47988614D01*
X106874000Y-48000000D01*
X105126000Y-48000000D01*
X105057879Y-47979998D01*
X105011386Y-47926342D01*
X105000000Y-47874000D01*
X105000000Y-42126000D01*
X105020002Y-42057879D01*
X105073658Y-42011386D01*
X105126000Y-42000000D01*
X106874000Y-42000000D01*
X106942121Y-42020002D01*
G37*
G36*
X122942121Y-25020002D02*
G01*
X122988614Y-25073658D01*
X123000000Y-25126000D01*
X123000000Y-26874000D01*
X122979998Y-26942121D01*
X122926342Y-26988614D01*
X122874000Y-27000000D01*
X107018115Y-27000000D01*
X107002876Y-27004475D01*
X107001671Y-27005865D01*
X107000000Y-27013548D01*
X107000000Y-39874000D01*
X106979998Y-39942121D01*
X106926342Y-39988614D01*
X106874000Y-40000000D01*
X105126000Y-40000000D01*
X105057879Y-39979998D01*
X105011386Y-39926342D01*
X105000000Y-39874000D01*
X105000000Y-25126000D01*
X105020002Y-25057879D01*
X105073658Y-25011386D01*
X105126000Y-25000000D01*
X122874000Y-25000000D01*
X122942121Y-25020002D01*
G37*
G36*
X120892121Y-73370002D02*
G01*
X120938614Y-73423658D01*
X120950000Y-73476000D01*
X120950000Y-74874000D01*
X120929998Y-74942121D01*
X120876342Y-74988614D01*
X120824000Y-75000000D01*
X105126000Y-75000000D01*
X105057879Y-74979998D01*
X105011386Y-74926342D01*
X105000000Y-74874000D01*
X105000000Y-73476000D01*
X105020002Y-73407879D01*
X105073658Y-73361386D01*
X105126000Y-73350000D01*
X120824000Y-73350000D01*
X120892121Y-73370002D01*
G37*
G36*
X106942121Y-51020002D02*
G01*
X106988614Y-51073658D01*
X107000000Y-51126000D01*
X107000000Y-71324000D01*
X106979998Y-71392121D01*
X106926342Y-71438614D01*
X106874000Y-71450000D01*
X105126000Y-71450000D01*
X105057879Y-71429998D01*
X105011386Y-71376342D01*
X105000000Y-71324000D01*
X105000000Y-51126000D01*
X105020002Y-51057879D01*
X105073658Y-51011386D01*
X105126000Y-51000000D01*
X106874000Y-51000000D01*
X106942121Y-51020002D01*
G37*
M02*
