M48
; DRILL file {KiCad 6.0.2+dfsg-1} date Mon 19 Feb 2024 01:24:48 PM EET
; FORMAT={-:-/ absolute / inch / decimal}
; #@! TF.CreationDate,2024-02-19T13:24:48+02:00
; #@! TF.GenerationSoftware,Kicad,Pcbnew,6.0.2+dfsg-1
; #@! TF.FileFunction,MixedPlating,1,4
FMAT,2
INCH
; #@! TA.AperFunction,Plated,PTH,ViaDrill
T1C0.0157
; #@! TA.AperFunction,Plated,PTH,ComponentDrill
T2C0.0433
; #@! TA.AperFunction,Plated,PTH,ComponentDrill
T3C0.1260
; #@! TA.AperFunction,NonPlated,NPTH,ComponentDrill
T4C0.0591
; #@! TA.AperFunction,NonPlated,NPTH,ComponentDrill
T5C0.0709
%
G90
G05
T1
X1.2559Y-1.4882
X1.2559Y-2.2598
X1.3583Y-1.4882
X1.3583Y-2.2598
X1.4567Y-1.4882
X1.4567Y-2.2598
X1.5551Y-1.4882
X1.5551Y-2.2598
X1.5708Y-1.2401
X1.5709Y-1.2008
X1.6535Y-2.2598
X1.6575Y-1.4882
X1.6575Y-1.6929
X1.6693Y-1.2008
X1.6693Y-1.2402
X1.7559Y-1.4882
X1.7559Y-2.2598
X1.7677Y-1.2205
X1.8543Y-2.0354
X1.8583Y-1.4882
X1.8583Y-2.2598
X1.8701Y-1.2008
X1.8701Y-1.2402
X1.9567Y-1.4882
X1.9567Y-2.2598
X1.9685Y-1.2008
X1.9685Y-1.2402
X2.0551Y-1.4882
X2.0551Y-1.9409
X2.0551Y-2.2598
X2.0709Y-1.2008
X2.0709Y-1.2402
X2.1575Y-1.4882
X2.1575Y-2.2598
X2.1693Y-1.2008
X2.1693Y-1.2402
X2.2559Y-1.4882
X2.2559Y-2.2598
X2.2717Y-1.2205
X2.3543Y-1.4882
X2.3543Y-2.2598
X2.3543Y-2.5955
X2.3701Y-1.2008
X2.3701Y-1.2402
X2.4449Y-1.7362
X2.4449Y-1.8622
X2.4567Y-1.4882
X2.4567Y-2.2598
X2.4685Y-1.2008
X2.4685Y-1.2402
X2.5551Y-1.4882
X2.5551Y-2.2598
X2.5551Y-2.563
X2.5709Y-1.2008
X2.5709Y-1.2402
X2.6102Y-1.7362
X2.6102Y-1.8622
X2.623Y-2.0659
X2.6545Y-2.5315
X2.6575Y-1.4882
X2.6575Y-2.2598
X2.6693Y-1.2008
X2.6693Y-1.2402
X2.7549Y-2.4911
X2.7559Y-1.4882
X2.7559Y-2.2598
X2.7677Y-1.2008
X2.7677Y-1.2402
X2.8543Y-1.4882
X2.8543Y-2.4606
X2.8547Y-1.6185
X2.8583Y-2.2598
X2.8701Y-1.2008
X2.8701Y-1.2402
X2.9567Y-1.4882
X2.9567Y-2.2598
X2.9685Y-1.2008
X2.9685Y-1.2402
X3.0547Y-1.6185
X3.0551Y-1.4882
X3.0551Y-2.2598
X3.0669Y-1.2008
X3.0669Y-1.2402
X3.1535Y-1.4882
X3.1547Y-1.6185
X3.1575Y-2.2598
X3.1693Y-1.2008
X3.1693Y-1.2402
X3.1801Y-1.9685
X3.2283Y-2.2598
X3.2677Y-1.2008
X3.2677Y-1.2402
X3.3701Y-1.2008
X3.3701Y-1.2402
X3.4685Y-1.2008
X3.4685Y-1.2402
X3.4724Y-2.4606
X3.4724Y-2.6181
X3.565Y-2.3051
X3.6654Y-2.6063
X3.9291Y-2.3031
X3.9291Y-2.4606
X3.9291Y-2.6181
X4.1732Y-1.0236
X4.1732Y-1.3386
X4.1732Y-1.4961
X4.1732Y-1.7717
X4.1732Y-2.0472
X4.1732Y-2.4016
X4.1732Y-2.7953
X4.1732Y-2.9134
X4.3169Y-2.7461
X4.3504Y-2.2697
X4.3622Y-1.5118
X4.4882Y-1.0236
X4.4882Y-2.9134
X4.5138Y-2.8209
X4.5689Y-1.4075
X4.5728Y-2.1693
X4.5728Y-2.3465
X4.5728Y-2.5335
X4.5758Y-1.9941
X4.7175Y-1.9685
X4.7283Y-1.7382
X4.8031Y-1.0236
X4.8031Y-2.9134
X4.8189Y-1.8465
X4.9193Y-1.3976
X4.9193Y-1.5945
X4.9193Y-1.8701
X4.9193Y-2.0669
X4.9193Y-2.3425
X4.9193Y-2.5394
T2
X3.6024Y-1.2008
X3.6024Y-1.7717
X3.7008Y-1.7717
X3.7992Y-1.2008
X3.7992Y-1.7717
T3
X1.3386Y-1.1417
X1.3386Y-2.7953
X4.9606Y-1.1417
X4.9606Y-2.7953
T4
X1.3813Y-1.873
X1.3813Y-2.064
T5
X1.262Y-1.8612
X1.262Y-2.0758
T0
M30
